<?xml version="1.0" encoding="UTF-8" standalone="no"?>
<!DOCTYPE svg PUBLIC "-//W3C//DTD SVG 1.1//EN" "http://www.w3.org/Graphics/SVG/1.1/DTD/svg11.dtd">
<svg width="100%" height="100%" viewBox="0 0 1109 600" version="1.1" xmlns="http://www.w3.org/2000/svg" xmlns:xlink="http://www.w3.org/1999/xlink" xml:space="preserve" xmlns:serif="http://www.serif.com/" style="fill-rule:evenodd;clip-rule:evenodd;stroke-linejoin:round;stroke-miterlimit:2;">
    <g transform="matrix(-0.133383,1.50758,1.50758,0.133383,-814.516,-2159.18)">
        <path d="M1578.93,679.976C1578.93,679.976 1571.45,699.171 1568.36,734.015C1563.05,794.13 1564.07,844.336 1578.93,845.651C1591.12,846.729 1616.08,838.417 1617.55,821.851C1620.85,784.537 1597.55,699.402 1578.93,679.976Z" style="fill:rgb(192,0,0);"/>
    </g>
    <g transform="matrix(1.51347,0,0,1.51347,-2287.85,-1203.79)">
        <path d="M1625.44,830.658C1625.44,848.102 1642,886.482 1658.54,916.834C1670.44,938.679 1683.05,957.565 1691.2,957.565C1708.71,957.565 1723.75,940.46 1723.75,928.481C1723.75,919.264 1715.56,904.245 1701.91,891.845C1688.25,879.444 1669.13,869.662 1655.9,859.139C1633.56,841.378 1625.44,830.658 1625.44,830.658Z" style="fill:rgb(192,0,0);"/>
    </g>
    <g transform="matrix(1.51347,0,0,1.51347,-2287.85,-1291.82)">
        <path d="M1861.47,853.546C1861.47,853.546 1855.22,880.306 1855.22,894.486C1855.22,908.667 1857.78,923.073 1857.78,932.179C1857.78,942.896 1843.05,992.836 1821.42,992.836C1818.15,992.836 1813.45,991.432 1809.19,991.346C1805.37,991.268 1799.09,992.037 1796.59,992.037C1791.31,992.037 1776.16,979.961 1776.16,973.734C1776.16,956.643 1835.51,853.546 1861.47,853.546Z" style="fill:rgb(192,0,0);"/>
    </g>
    <g transform="matrix(0.11324,1.50923,1.50923,-0.11324,-839.047,-2570.84)">
        <path d="M1930.48,756.947C1917.17,757.945 1891.48,852.482 1895.44,905.164C1895.44,905.164 1911.59,871.892 1930.48,858.762C1951.23,844.359 1966.06,797.698 1965.78,793.979C1964.46,776.319 1942.23,756.065 1930.48,756.947Z" style="fill:rgb(192,0,0);"/>
    </g>
    <g transform="matrix(1.51347,0,0,1.51347,-2287.85,-755.899)">
        <path d="M1911.28,767.159C1896.62,767.159 1883.39,751.891 1883.39,738.58C1883.39,729.301 1900.57,725.125 1914.18,725.125C1940.28,725.125 2020.3,738.71 2020.3,743.586C2020.3,743.586 1995.3,747.958 1970.53,753.718C1944.64,759.738 1918.77,767.159 1911.28,767.159Z" style="fill:rgb(192,0,0);"/>
    </g>
    <g transform="matrix(1.51347,0,0,1.51347,-2287.85,-869.081)">
        <path d="M1738.37,728.977C1746.31,728.977 1746.43,732.106 1750.74,732.106C1757.4,732.106 1774.17,726.125 1780.84,726.132C1784.74,726.137 1787.91,731.164 1790.89,732.149C1793.38,732.97 1795.59,732.672 1799.62,732.672C1815.45,732.672 1852.18,776.457 1852.18,802.253C1852.18,818.4 1833.1,837.089 1821.02,837.089C1813.78,837.089 1804.26,834.68 1797.02,834.68C1786.96,834.68 1770.89,840.942 1757.48,840.942C1737.7,840.942 1694.18,823.691 1694.18,775.461C1694.18,743.041 1726.47,728.977 1738.37,728.977ZM1764.23,747.891C1764.23,747.891 1801.23,755.33 1801.23,771.152C1801.23,786.973 1774.45,797.368 1763.3,797.368C1754.31,797.368 1739.84,787.354 1740.15,781.488C1740.58,773.095 1764.23,747.891 1764.23,747.891Z" style="fill:rgb(192,0,0);"/>
    </g>
    <g transform="matrix(1.51347,0,0,1.51347,-2287.85,-77.4351)">
        <path d="M1728.32,387.272C1729.62,387.272 1730.51,387.147 1731.01,386.897L1731.13,386.928L1730.82,394.767L1707.43,394.767L1707.43,353.012C1707.99,353.054 1708.62,353.085 1709.31,353.106L1711.49,353.169C1712.95,353.21 1714.53,353.231 1716.24,353.231C1721.01,353.231 1725.72,353.148 1730.39,352.981C1730.16,354.813 1730.04,357.26 1730.04,360.32C1730.04,360.653 1730.06,360.903 1730.11,361.07L1730.04,361.163C1728.96,360.851 1727.42,360.695 1725.42,360.695L1715.58,360.695L1715.58,368.659L1722.98,368.659C1725.27,368.659 1726.65,368.596 1727.11,368.471L1727.2,376.185C1726.2,376.081 1724.91,376.029 1723.33,376.029L1715.58,376.029L1715.58,387.272L1728.32,387.272Z" style="fill-rule:nonzero;"/>
        <path d="M1761.08,393.018C1758.44,394.496 1755.8,395.235 1753.15,395.235C1750.51,395.235 1748.2,394.819 1746.22,393.986C1744.24,393.153 1742.56,392.008 1741.16,390.551C1738.29,387.553 1736.85,383.66 1736.85,378.871C1736.85,373.916 1738.52,369.793 1741.85,366.504C1745.2,363.173 1749.49,361.507 1754.71,361.507C1756.32,361.507 1757.89,361.715 1759.43,362.132L1759.43,348.234L1767.08,348.234L1767.08,381.619C1767.08,384.388 1767.21,386.2 1767.47,387.053C1767.73,387.907 1768.02,388.531 1768.35,388.927C1768.67,389.323 1769.08,389.697 1769.58,390.051L1763.71,395.235C1762.62,394.652 1761.75,393.913 1761.08,393.018ZM1754.62,388.053C1756.37,388.053 1757.97,387.719 1759.43,387.053L1759.43,369.752C1757.97,369.148 1756.39,368.846 1754.68,368.846C1752.98,368.846 1751.51,369.075 1750.29,369.533C1749.08,369.991 1748.03,370.626 1747.16,371.438C1745.32,373.145 1744.41,375.363 1744.41,378.09C1744.41,381.067 1745.24,383.441 1746.91,385.211C1748.7,387.105 1751.27,388.053 1754.62,388.053Z" style="fill-rule:nonzero;"/>
        <path d="M1775.08,352.825C1776.74,350.222 1778.48,347.932 1780.29,345.954L1787.01,351.232C1786.11,352.336 1785.28,353.418 1784.51,354.48C1784.51,354.48 1783.7,355.615 1782.1,357.884L1775.08,352.825ZM1783.29,391.269C1783.29,393.06 1783.33,394.226 1783.41,394.767L1775.48,394.767L1775.48,362.132L1783.29,362.132L1783.29,391.269Z" style="fill-rule:nonzero;"/>
        <path d="M1806.59,387.896C1809.27,387.896 1811.11,387.199 1812.11,385.804L1812.36,385.804L1812.46,393.049C1811.44,394.07 1809.54,394.746 1806.77,395.079C1806.02,395.183 1805.09,395.235 1803.98,395.235C1802.86,395.235 1801.66,395.027 1800.36,394.611C1799.05,394.194 1797.95,393.518 1797.03,392.581C1795.13,390.645 1794.19,387.615 1794.19,383.493L1794.19,369.314L1789.47,369.314C1789.45,368.711 1789.44,368.097 1789.44,367.472L1789.44,362.662C1789.44,362.309 1789.45,362.132 1789.47,362.132L1794.19,362.132L1794.19,353.231L1801.84,353.231L1801.84,362.132L1810.43,362.132L1810.43,369.314L1801.84,369.314L1801.84,382.056C1801.84,385.325 1802.75,387.189 1804.56,387.647C1805.14,387.813 1805.82,387.896 1806.59,387.896Z" style="fill-rule:nonzero;"/>
        <path d="M1827.26,391.269C1827.26,393.06 1827.3,394.226 1827.38,394.767L1819.61,394.767L1819.61,350.108L1827.26,350.108L1827.26,364.568C1829.95,362.527 1832.72,361.507 1835.57,361.507C1839.07,361.507 1841.88,362.662 1844,364.974C1846.08,367.285 1847.12,370.345 1847.12,374.155L1847.12,386.585C1847.12,390.103 1847.17,392.217 1847.28,392.924C1847.38,393.632 1847.52,394.09 1847.7,394.299C1847.88,394.507 1848.03,394.694 1848.15,394.861L1848.09,394.986C1846.4,394.84 1845.17,394.767 1844.4,394.767L1842.19,394.767C1841.5,394.767 1840.6,394.798 1839.47,394.861L1839.47,376.778C1839.47,373.905 1838.84,371.782 1837.57,370.408C1836.61,369.367 1835.31,368.846 1833.66,368.846C1831.23,368.846 1829.09,370.251 1827.26,373.062L1827.26,391.269Z" style="fill-rule:nonzero;"/>
        <path d="M1903.12,355.542L1902.53,364.724L1902.31,364.786C1900.77,362.475 1898.14,360.976 1894.44,360.289C1893.27,360.06 1892.15,359.945 1891.08,359.945C1890.01,359.945 1889.09,360.039 1888.33,360.227C1887.57,360.414 1886.92,360.685 1886.38,361.039C1885.24,361.788 1884.66,362.767 1884.66,363.974C1884.66,365.556 1885.16,366.743 1886.16,367.534C1887.41,368.492 1889.48,369.164 1892.38,369.549C1895.27,369.934 1897.59,370.46 1899.34,371.126C1901.09,371.792 1902.53,372.635 1903.65,373.655C1905.77,375.571 1906.84,378.278 1906.84,381.775C1906.84,386.356 1905.11,389.885 1901.65,392.362C1898.69,394.486 1894.97,395.548 1890.47,395.548C1886.85,395.548 1883.27,394.861 1879.73,393.487C1878.56,393.029 1877.54,392.498 1876.67,391.894L1877.01,381.463L1877.14,381.369C1879.72,385.825 1883.95,388.053 1889.85,388.053C1894.03,388.053 1896.8,387.043 1898.15,385.023C1898.61,384.336 1898.84,383.571 1898.84,382.728C1898.84,381.885 1898.71,381.187 1898.43,380.635C1898.16,380.084 1897.72,379.61 1897.09,379.214C1895.88,378.423 1893.86,377.892 1891,377.622C1888.15,377.351 1885.82,376.841 1884.01,376.091C1882.19,375.342 1880.75,374.415 1879.67,373.312C1877.71,371.313 1876.73,368.523 1876.73,364.942C1876.73,361.236 1878.03,358.238 1880.63,355.948C1883.28,353.616 1886.84,352.45 1891.33,352.45C1895.82,352.45 1899.75,353.481 1903.12,355.542Z" style="fill-rule:nonzero;"/>
        <path d="M1929.01,387.896C1931.69,387.896 1933.54,387.199 1934.54,385.804L1934.79,385.804L1934.88,393.049C1933.86,394.07 1931.97,394.746 1929.2,395.079C1928.45,395.183 1927.52,395.235 1926.4,395.235C1925.29,395.235 1924.08,395.027 1922.78,394.611C1921.48,394.194 1920.37,393.518 1919.45,392.581C1917.56,390.645 1916.61,387.615 1916.61,383.493L1916.61,369.314L1911.89,369.314C1911.87,368.711 1911.86,368.097 1911.86,367.472L1911.86,362.662C1911.86,362.309 1911.87,362.132 1911.89,362.132L1916.61,362.132L1916.61,353.231L1924.26,353.231L1924.26,362.132L1932.85,362.132L1932.85,369.314L1924.26,369.314L1924.26,382.056C1924.26,385.325 1925.17,387.189 1926.98,387.647C1927.56,387.813 1928.24,387.896 1929.01,387.896Z" style="fill-rule:nonzero;"/>
        <path d="M1939.66,378.715C1939.66,376.279 1940.07,374.02 1940.91,371.938C1941.74,369.856 1942.92,368.034 1944.44,366.473C1947.68,363.162 1951.93,361.507 1957.18,361.507C1961.61,361.507 1965.17,362.975 1967.86,365.91C1970.5,368.742 1971.83,372.302 1971.83,376.591C1971.83,378.236 1971.7,379.36 1971.45,379.964C1969.37,380.547 1965.13,380.838 1958.74,380.838L1947.75,380.838C1948.29,383.066 1949.55,384.799 1951.53,386.038C1953.5,387.277 1956.08,387.896 1959.24,387.896C1962.55,387.896 1965.39,387.303 1967.77,386.116C1968.39,385.804 1968.86,385.512 1969.17,385.242C1969.13,386.116 1969.08,387.012 1969.01,387.928L1968.67,392.8C1967.09,393.882 1964.53,394.632 1960.99,395.048C1959.95,395.173 1958.95,395.235 1957.99,395.235C1952.7,395.235 1948.33,393.695 1944.87,390.613C1941.4,387.511 1939.66,383.545 1939.66,378.715ZM1963.52,374.78C1962.66,370.303 1960.23,368.065 1956.21,368.065C1953.05,368.065 1950.64,369.429 1949,372.156C1948.5,372.989 1948.11,373.905 1947.84,374.905C1948.34,374.925 1948.95,374.946 1949.68,374.967L1951.99,374.967C1952.76,374.988 1953.5,374.998 1954.21,374.998L1955.99,374.998C1957.05,374.998 1958.09,374.988 1959.11,374.967L1961.67,374.873C1962.36,374.853 1962.98,374.821 1963.52,374.78Z" style="fill-rule:nonzero;"/>
        <path d="M1977.6,352.825C1979.27,350.222 1981.01,347.932 1982.82,345.954L1989.53,351.232C1988.64,352.336 1987.8,353.418 1987.03,354.48C1987.03,354.48 1986.23,355.615 1984.63,357.884L1977.6,352.825ZM1985.82,391.269C1985.82,393.06 1985.86,394.226 1985.94,394.767L1978.01,394.767L1978.01,362.132L1985.82,362.132L1985.82,391.269Z" style="fill-rule:nonzero;"/>
        <path d="M2002.84,390.77C2002.84,392.602 2002.92,393.934 2003.09,394.767L1995.25,394.767L1995.25,362.132L2002.84,362.132L2002.84,364.911C2005.58,362.642 2008.52,361.507 2011.64,361.507C2015.06,361.507 2017.78,362.668 2019.83,364.989C2021.87,367.311 2022.88,370.366 2022.88,374.155L2022.88,386.585C2022.88,390.103 2022.94,392.217 2023.04,392.924C2023.15,393.632 2023.29,394.09 2023.46,394.299C2023.64,394.507 2023.79,394.694 2023.92,394.861L2023.85,394.986C2022.17,394.84 2020.94,394.767 2020.17,394.767L2017.98,394.767C2017.32,394.767 2016.42,394.798 2015.3,394.861L2015.3,377.84C2015.3,371.74 2013.44,368.69 2009.74,368.69C2006.99,368.69 2004.69,370.106 2002.84,372.937L2002.84,390.77Z" style="fill-rule:nonzero;"/>
        <path d="M2079.07,355.542L2078.48,364.724L2078.26,364.786C2076.72,362.475 2074.09,360.976 2070.39,360.289C2069.22,360.06 2068.1,359.945 2067.03,359.945C2065.96,359.945 2065.04,360.039 2064.28,360.227C2063.52,360.414 2062.87,360.685 2062.33,361.039C2061.19,361.788 2060.61,362.767 2060.61,363.974C2060.61,365.556 2061.11,366.743 2062.11,367.534C2063.36,368.492 2065.43,369.164 2068.33,369.549C2071.22,369.934 2073.54,370.46 2075.29,371.126C2077.04,371.792 2078.48,372.635 2079.6,373.655C2081.72,375.571 2082.79,378.278 2082.79,381.775C2082.79,386.356 2081.06,389.885 2077.6,392.362C2074.65,394.486 2070.92,395.548 2066.42,395.548C2062.8,395.548 2059.22,394.861 2055.68,393.487C2054.51,393.029 2053.49,392.498 2052.62,391.894L2052.96,381.463L2053.09,381.369C2055.67,385.825 2059.91,388.053 2065.8,388.053C2069.98,388.053 2072.75,387.043 2074.11,385.023C2074.56,384.336 2074.79,383.571 2074.79,382.728C2074.79,381.885 2074.66,381.187 2074.39,380.635C2074.12,380.084 2073.67,379.61 2073.04,379.214C2071.84,378.423 2069.8,377.892 2066.95,377.622C2064.1,377.351 2061.77,376.841 2059.96,376.091C2058.15,375.342 2056.7,374.415 2055.62,373.312C2053.66,371.313 2052.68,368.523 2052.68,364.942C2052.68,361.236 2053.98,358.238 2056.59,355.948C2059.23,353.616 2062.79,352.45 2067.28,352.45C2071.77,352.45 2075.7,353.481 2079.07,355.542Z" style="fill-rule:nonzero;"/>
        <path d="M2115.98,391.738C2113.65,394.07 2110,395.235 2105.02,395.235C2100.19,395.235 2096.25,393.768 2093.19,390.832C2090.08,387.855 2088.53,383.899 2088.53,378.965C2088.53,373.947 2090.06,369.825 2093.12,366.597C2096.37,363.204 2100.71,361.507 2106.15,361.507C2110,361.507 2113.22,362.35 2115.83,364.037L2114.58,372.032L2114.36,372C2113.36,370.793 2112.31,370.002 2111.21,369.627C2109.41,369.002 2107.62,368.69 2105.83,368.69C2104.04,368.69 2102.64,368.919 2101.62,369.377C2100.6,369.835 2099.72,370.47 2098.99,371.282C2097.54,372.948 2096.81,375.155 2096.81,377.903C2096.81,382.775 2098.49,385.96 2101.87,387.459C2103.03,387.959 2104.27,388.209 2105.57,388.209C2106.87,388.209 2108.01,388.094 2108.97,387.865C2109.94,387.636 2110.82,387.324 2111.61,386.928C2113.3,386.095 2114.44,385.127 2115.05,384.024L2115.27,384.118L2115.98,391.738Z" style="fill-rule:nonzero;"/>
        <path d="M2130.97,391.269C2130.97,393.06 2131.01,394.226 2131.1,394.767L2123.32,394.767L2123.32,350.108L2130.97,350.108L2130.97,364.568C2133.66,362.527 2136.43,361.507 2139.28,361.507C2142.78,361.507 2145.59,362.662 2147.71,364.974C2149.8,367.285 2150.84,370.345 2150.84,374.155L2150.84,386.585C2150.84,390.103 2150.89,392.217 2150.99,392.924C2151.1,393.632 2151.24,394.09 2151.41,394.299C2151.59,394.507 2151.74,394.694 2151.87,394.861L2151.8,394.986C2150.12,394.84 2148.89,394.767 2148.12,394.767L2145.9,394.767C2145.22,394.767 2144.31,394.798 2143.18,394.861L2143.18,376.778C2143.18,373.905 2142.55,371.782 2141.28,370.408C2140.32,369.367 2139.02,368.846 2137.38,368.846C2134.94,368.846 2132.81,370.251 2130.97,373.062L2130.97,391.269Z" style="fill-rule:nonzero;"/>
        <path d="M2179.32,391.925C2176.65,394.132 2173.75,395.235 2170.6,395.235C2167.23,395.235 2164.59,394.101 2162.67,391.831C2160.84,389.624 2159.92,386.595 2159.92,382.743L2159.92,370.345C2159.92,366.181 2159.84,363.792 2159.66,363.178C2159.48,362.564 2159.35,362.173 2159.27,362.007C2160.23,362.09 2161.22,362.132 2162.27,362.132L2164.86,362.132C2165.55,362.132 2166.45,362.1 2167.57,362.038L2167.57,380.12C2167.57,384.409 2168.74,386.897 2171.07,387.584C2171.78,387.792 2172.55,387.896 2173.38,387.896C2175.84,387.896 2177.82,387.001 2179.32,385.211L2179.32,362.132L2187.06,362.132L2187.06,390.77C2187.06,392.602 2187.15,393.934 2187.31,394.767L2179.32,394.767L2179.32,391.925Z" style="fill-rule:nonzero;"/>
        <path d="M2204.27,391.269C2204.27,393.06 2204.31,394.226 2204.39,394.767L2196.46,394.767L2196.46,348.234L2204.27,348.234L2204.27,391.269Z" style="fill-rule:nonzero;"/>
        <path d="M2211.48,378.715C2211.48,376.279 2211.9,374.02 2212.73,371.938C2213.57,369.856 2214.74,368.034 2216.26,366.473C2219.51,363.162 2223.76,361.507 2229,361.507C2233.44,361.507 2237,362.975 2239.68,365.91C2242.33,368.742 2243.65,372.302 2243.65,376.591C2243.65,378.236 2243.53,379.36 2243.28,379.964C2241.19,380.547 2236.96,380.838 2230.57,380.838L2219.57,380.838C2220.11,383.066 2221.37,384.799 2223.35,386.038C2225.33,387.277 2227.9,387.896 2231.07,387.896C2234.38,387.896 2237.22,387.303 2239.59,386.116C2240.22,385.804 2240.68,385.512 2241,385.242C2240.95,386.116 2240.9,387.012 2240.84,387.928L2240.5,392.8C2238.91,393.882 2236.35,394.632 2232.81,395.048C2231.77,395.173 2230.77,395.235 2229.82,395.235C2224.53,395.235 2220.16,393.695 2216.7,390.613C2213.22,387.511 2211.48,383.545 2211.48,378.715ZM2235.34,374.78C2234.49,370.303 2232.05,368.065 2228.04,368.065C2224.87,368.065 2222.47,369.429 2220.82,372.156C2220.32,372.989 2219.94,373.905 2219.67,374.905C2220.17,374.925 2220.78,374.946 2221.51,374.967L2223.82,374.967C2224.59,374.988 2225.33,374.998 2226.04,374.998L2227.82,374.998C2228.88,374.998 2229.92,374.988 2230.94,374.967L2233.5,374.873C2234.19,374.853 2234.8,374.821 2235.34,374.78Z" style="fill-rule:nonzero;"/>
        <g transform="matrix(1,0,0,1,-1.32147,0)">
            <path d="M1720.82,417.553L1720.54,422.032L1720.43,422.063C1719.68,420.935 1718.4,420.204 1716.59,419.869C1716.02,419.757 1715.47,419.701 1714.95,419.701C1714.43,419.701 1713.98,419.747 1713.61,419.838C1713.24,419.93 1712.92,420.062 1712.66,420.234C1712.1,420.6 1711.82,421.077 1711.82,421.666C1711.82,422.438 1712.06,423.017 1712.55,423.403C1713.16,423.87 1714.17,424.198 1715.58,424.386C1717,424.574 1718.13,424.83 1718.98,425.155C1719.83,425.48 1720.54,425.892 1721.08,426.389C1722.12,427.324 1722.64,428.644 1722.64,430.35C1722.64,432.585 1721.79,434.306 1720.11,435.515C1718.67,436.551 1716.85,437.069 1714.65,437.069C1712.89,437.069 1711.14,436.734 1709.41,436.063C1708.84,435.84 1708.35,435.581 1707.92,435.286L1708.09,430.198L1708.15,430.152C1709.41,432.326 1711.48,433.413 1714.35,433.413C1716.39,433.413 1717.74,432.92 1718.4,431.935C1718.62,431.6 1718.74,431.226 1718.74,430.815C1718.74,430.404 1718.67,430.063 1718.54,429.794C1718.41,429.525 1718.19,429.294 1717.88,429.101C1717.3,428.715 1716.3,428.456 1714.91,428.324C1713.52,428.192 1712.38,427.943 1711.5,427.578C1710.62,427.212 1709.91,426.76 1709.38,426.222C1708.43,425.247 1707.95,423.886 1707.95,422.139C1707.95,420.331 1708.59,418.868 1709.86,417.751C1711.14,416.614 1712.88,416.045 1715.07,416.045C1717.26,416.045 1719.18,416.548 1720.82,417.553Z" style="fill-rule:nonzero;"/>
        </g>
        <g transform="matrix(1,0,0,1,-1.32147,0)">
            <path d="M1725.23,428.812C1725.23,427.694 1725.42,426.625 1725.8,425.605C1726.18,424.584 1726.73,423.693 1727.44,422.931C1728.99,421.286 1731.01,420.463 1733.48,420.463C1735.95,420.463 1737.91,421.24 1739.37,422.794C1740.76,424.277 1741.45,426.201 1741.45,428.568C1741.45,430.934 1740.74,432.895 1739.3,434.449C1737.79,436.094 1735.79,436.917 1733.29,436.917C1730.71,436.917 1728.68,436.109 1727.22,434.494C1725.89,433.022 1725.23,431.127 1725.23,428.812ZM1728.93,428.72C1728.93,429.36 1729.04,429.98 1729.25,430.579C1729.46,431.178 1729.77,431.691 1730.16,432.118C1731.01,433.042 1732.11,433.504 1733.48,433.504C1734.75,433.504 1735.75,433.052 1736.49,432.148C1737.2,431.275 1737.55,430.137 1737.55,428.735C1737.55,427.314 1737.19,426.166 1736.45,425.292C1735.67,424.358 1734.6,423.891 1733.24,423.891C1731.86,423.891 1730.78,424.388 1730,425.384C1729.28,426.298 1728.93,427.41 1728.93,428.72Z" style="fill-rule:nonzero;"/>
        </g>
        <g transform="matrix(1,0,0,1,-1.32147,0)">
            <path d="M1748.63,434.738C1748.63,435.632 1748.67,436.282 1748.75,436.688L1744.92,436.688L1744.92,420.768L1748.63,420.768L1748.63,422.124C1749.97,421.016 1751.4,420.463 1752.92,420.463C1754.59,420.463 1755.92,421.029 1756.91,422.162C1757.91,423.294 1758.41,424.785 1758.41,426.633L1758.41,432.697C1758.41,434.413 1758.43,435.444 1758.49,435.789C1758.54,436.135 1758.6,436.358 1758.69,436.46C1758.78,436.561 1758.85,436.653 1758.91,436.734L1758.88,436.795C1758.06,436.724 1757.46,436.688 1757.08,436.688L1756.02,436.688C1755.69,436.688 1755.26,436.703 1754.71,436.734L1754.71,428.431C1754.71,425.455 1753.8,423.967 1751.99,423.967C1750.65,423.967 1749.53,424.658 1748.63,426.039L1748.63,434.738Z" style="fill-rule:nonzero;"/>
        </g>
        <g transform="matrix(1,0,0,1,-1.32147,0)">
            <path d="M1773.78,435.835C1772.49,436.556 1771.2,436.917 1769.91,436.917C1768.62,436.917 1767.49,436.713 1766.53,436.307C1765.56,435.901 1764.74,435.342 1764.06,434.631C1762.66,433.169 1761.96,431.27 1761.96,428.934C1761.96,426.516 1762.77,424.505 1764.4,422.901C1766.03,421.275 1768.12,420.463 1770.67,420.463C1771.45,420.463 1772.22,420.564 1772.97,420.768L1772.97,413.988L1776.7,413.988L1776.7,430.274C1776.7,431.625 1776.77,432.509 1776.9,432.925C1777.02,433.341 1777.16,433.646 1777.32,433.839C1777.48,434.032 1777.68,434.215 1777.92,434.388L1775.06,436.917C1774.53,436.632 1774.11,436.272 1773.78,435.835ZM1770.63,433.413C1771.48,433.413 1772.26,433.25 1772.97,432.925L1772.97,424.485C1772.26,424.19 1771.49,424.043 1770.66,424.043C1769.82,424.043 1769.11,424.155 1768.52,424.378C1767.92,424.602 1767.41,424.912 1766.99,425.308C1766.09,426.14 1765.64,427.222 1765.64,428.553C1765.64,430.005 1766.05,431.163 1766.86,432.026C1767.74,432.95 1768.99,433.413 1770.63,433.413Z" style="fill-rule:nonzero;"/>
        </g>
        <g transform="matrix(1,0,0,1,-1.32147,0)">
            <path d="M1780.33,428.857C1780.33,427.669 1780.53,426.567 1780.94,425.551C1781.35,424.536 1781.92,423.647 1782.66,422.885C1784.25,421.27 1786.32,420.463 1788.88,420.463C1791.04,420.463 1792.78,421.179 1794.09,422.611C1795.38,423.992 1796.02,425.729 1796.02,427.821C1796.02,428.624 1795.96,429.172 1795.84,429.467C1794.83,429.751 1792.76,429.893 1789.64,429.893L1784.28,429.893C1784.54,430.98 1785.16,431.826 1786.12,432.43C1787.09,433.034 1788.34,433.336 1789.88,433.336C1791.5,433.336 1792.88,433.047 1794.04,432.468C1794.35,432.316 1794.58,432.173 1794.73,432.041C1794.71,432.468 1794.68,432.905 1794.65,433.352L1794.48,435.728C1793.71,436.256 1792.46,436.622 1790.74,436.825C1790.23,436.886 1789.74,436.917 1789.27,436.917C1786.69,436.917 1784.56,436.165 1782.88,434.662C1781.18,433.149 1780.33,431.214 1780.33,428.857ZM1791.97,426.938C1791.55,424.754 1790.37,423.662 1788.41,423.662C1786.86,423.662 1785.69,424.328 1784.89,425.658C1784.64,426.064 1784.45,426.511 1784.32,426.999C1784.57,427.009 1784.87,427.019 1785.22,427.029L1786.35,427.029C1786.73,427.039 1787.09,427.044 1787.43,427.044L1788.3,427.044C1788.82,427.044 1789.33,427.039 1789.82,427.029L1791.07,426.983C1791.41,426.973 1791.71,426.958 1791.97,426.938Z" style="fill-rule:nonzero;"/>
        </g>
        <g transform="matrix(1,0,0,1,-1.32147,0)">
            <path d="M1802.92,434.982C1802.92,435.855 1802.94,436.424 1802.99,436.688L1799.19,436.688L1799.19,420.768L1802.92,420.768L1802.92,421.941C1803.79,420.956 1804.69,420.463 1805.64,420.463C1806.59,420.463 1807.34,420.58 1807.89,420.813L1807.62,424.912L1807.56,424.957C1807.2,424.328 1806.46,424.013 1805.35,424.013C1804.92,424.013 1804.49,424.157 1804.04,424.447C1803.6,424.736 1803.23,425.12 1802.92,425.597L1802.92,434.982Z" style="fill-rule:nonzero;"/>
        </g>
        <g transform="matrix(1,0,0,1,-1.32147,0)">
            <path d="M1813.71,436.368L1813.71,440.847C1813.71,441.721 1813.73,442.289 1813.77,442.554L1809.98,442.554L1809.98,420.768L1813.71,420.768L1813.71,421.758C1814.94,420.895 1816.12,420.463 1817.25,420.463C1818.37,420.463 1819.37,420.62 1820.25,420.935C1821.12,421.25 1821.89,421.738 1822.55,422.398C1824,423.83 1824.73,425.871 1824.73,428.522C1824.73,430.279 1824.31,431.848 1823.49,433.23C1822.79,434.398 1821.82,435.332 1820.58,436.033C1819.49,436.653 1818.3,436.962 1817.02,436.962C1815.74,436.962 1814.63,436.764 1813.71,436.368ZM1813.71,432.529C1814.48,433.179 1815.48,433.504 1816.71,433.504C1818.72,433.504 1820.02,432.534 1820.61,430.594C1820.82,429.934 1820.92,429.226 1820.92,428.469C1820.92,427.712 1820.85,427.108 1820.7,426.656C1820.56,426.204 1820.38,425.813 1820.15,425.483C1819.92,425.153 1819.66,424.879 1819.38,424.66C1819.09,424.442 1818.8,424.267 1818.51,424.135C1817.99,423.901 1817.46,423.784 1816.91,423.784C1816.36,423.784 1815.79,423.911 1815.2,424.165C1814.62,424.419 1814.12,424.759 1813.71,425.186L1813.71,432.529Z" style="fill-rule:nonzero;"/>
        </g>
        <g transform="matrix(1,0,0,1,-1.32147,0)">
            <path d="M1838.44,435.744C1837,436.526 1835.69,436.917 1834.52,436.917C1833.35,436.917 1832.35,436.807 1831.52,436.589C1830.69,436.371 1829.98,436.048 1829.4,435.622C1828.22,434.758 1827.63,433.509 1827.63,431.874C1827.63,430.411 1828.36,429.193 1829.8,428.217C1831.36,427.161 1833.49,426.633 1836.17,426.633L1836.78,426.648C1836.9,426.658 1837.04,426.666 1837.19,426.671C1837.34,426.676 1837.48,426.689 1837.6,426.709C1837.52,425.084 1836.82,424.135 1835.5,423.86C1835.06,423.769 1834.6,423.723 1834.1,423.723C1833.61,423.723 1833.13,423.766 1832.65,423.853C1832.18,423.939 1831.72,424.053 1831.28,424.195C1830.29,424.51 1829.59,424.871 1829.16,425.277L1829.11,425.247L1828.66,421.88C1830.45,420.935 1832.42,420.463 1834.55,420.463C1837.86,420.463 1839.98,421.656 1840.9,424.043C1841.2,424.805 1841.35,425.663 1841.35,426.618L1841.35,432.133C1841.35,433.311 1841.76,434.113 1842.6,434.54L1839.84,437.069C1839.26,436.764 1838.79,436.322 1838.44,435.744ZM1837.61,429.452C1837.34,429.401 1837.06,429.375 1836.76,429.375L1836.15,429.375C1833.91,429.375 1832.48,429.873 1831.87,430.868C1831.69,431.163 1831.6,431.473 1831.6,431.798C1831.6,432.123 1831.65,432.41 1831.77,432.658C1831.89,432.907 1832.08,433.113 1832.36,433.275C1832.89,433.58 1833.67,433.733 1834.71,433.733C1835.75,433.733 1836.73,433.484 1837.63,432.986C1837.62,432.874 1837.61,432.757 1837.61,432.636L1837.61,429.452ZM1839.88,414.902C1839.84,415.41 1839.82,416.057 1839.82,416.845C1839.82,417.632 1839.84,418.203 1839.88,418.559L1835.85,418.559C1835.93,417.929 1835.97,417.307 1835.97,416.692C1835.97,416.078 1835.94,415.481 1835.88,414.902L1839.88,414.902ZM1833.33,414.902C1833.29,415.41 1833.27,416.057 1833.27,416.845C1833.27,417.632 1833.29,418.203 1833.33,418.559L1829.3,418.559C1829.38,417.929 1829.42,417.307 1829.42,416.692C1829.42,416.078 1829.39,415.481 1829.33,414.902L1833.33,414.902Z" style="fill-rule:nonzero;"/>
        </g>
        <g transform="matrix(1,0,0,1,-1.32147,0)">
            <path d="M1857.02,435.835C1855.73,436.556 1854.44,436.917 1853.15,436.917C1851.86,436.917 1850.74,436.713 1849.77,436.307C1848.81,435.901 1847.98,435.342 1847.3,434.631C1845.9,433.169 1845.2,431.27 1845.2,428.934C1845.2,426.516 1846.01,424.505 1847.64,422.901C1849.27,421.275 1851.37,420.463 1853.92,420.463C1854.7,420.463 1855.46,420.564 1856.22,420.768L1856.22,413.988L1859.95,413.988L1859.95,430.274C1859.95,431.625 1860.01,432.509 1860.14,432.925C1860.27,433.341 1860.41,433.646 1860.57,433.839C1860.72,434.032 1860.92,434.215 1861.17,434.388L1858.3,436.917C1857.78,436.632 1857.35,436.272 1857.02,435.835ZM1853.87,433.413C1854.72,433.413 1855.51,433.25 1856.22,432.925L1856.22,424.485C1855.51,424.19 1854.73,424.043 1853.9,424.043C1853.07,424.043 1852.35,424.155 1851.76,424.378C1851.17,424.602 1850.65,424.912 1850.23,425.308C1849.34,426.14 1848.89,427.222 1848.89,428.553C1848.89,430.005 1849.29,431.163 1850.11,432.026C1850.98,432.95 1852.24,433.413 1853.87,433.413Z" style="fill-rule:nonzero;"/>
        </g>
        <g transform="matrix(1,0,0,1,-1.32147,0)">
            <path d="M1874.85,435.744C1873.41,436.526 1872.1,436.917 1870.93,436.917C1869.77,436.917 1868.76,436.807 1867.93,436.589C1867.1,436.371 1866.39,436.048 1865.81,435.622C1864.64,434.758 1864.05,433.509 1864.05,431.874C1864.05,430.411 1864.77,429.193 1866.21,428.217C1867.77,427.161 1869.9,426.633 1872.58,426.633L1873.19,426.648C1873.31,426.658 1873.45,426.666 1873.6,426.671C1873.75,426.676 1873.89,426.689 1874.01,426.709C1873.93,425.084 1873.23,424.135 1871.91,423.86C1871.47,423.769 1871.01,423.723 1870.51,423.723C1870.02,423.723 1869.54,423.766 1869.07,423.853C1868.59,423.939 1868.13,424.053 1867.69,424.195C1866.7,424.51 1866,424.871 1865.57,425.277L1865.52,425.247L1865.07,421.88C1866.87,420.935 1868.83,420.463 1870.96,420.463C1874.27,420.463 1876.39,421.656 1877.32,424.043C1877.61,424.805 1877.76,425.663 1877.76,426.618L1877.76,432.133C1877.76,433.311 1878.17,434.113 1879.01,434.54L1876.25,437.069C1875.67,436.764 1875.2,436.322 1874.85,435.744ZM1874.03,429.452C1873.75,429.401 1873.47,429.375 1873.17,429.375L1872.56,429.375C1870.32,429.375 1868.89,429.873 1868.28,430.868C1868.1,431.163 1868.01,431.473 1868.01,431.798C1868.01,432.123 1868.07,432.41 1868.18,432.658C1868.3,432.907 1868.5,433.113 1868.77,433.275C1869.3,433.58 1870.08,433.733 1871.12,433.733C1872.16,433.733 1873.14,433.484 1874.04,432.986C1874.03,432.874 1874.03,432.757 1874.03,432.636L1874.03,429.452Z" style="fill-rule:nonzero;"/>
        </g>
        <g transform="matrix(1,0,0,1,-1.32147,0)">
            <path d="M1886.7,432.453C1886.33,432.95 1886.14,433.344 1886.14,433.634C1886.14,433.923 1886.18,434.146 1886.27,434.304C1886.37,434.461 1886.56,434.611 1886.87,434.753C1887.54,435.068 1888.64,435.345 1890.17,435.584C1891.71,435.822 1892.91,436.119 1893.78,436.475C1894.65,436.83 1895.35,437.267 1895.89,437.785C1896.89,438.77 1897.4,440.167 1897.4,441.975C1897.4,443.782 1896.76,445.171 1895.49,446.141C1894.22,447.111 1892.34,447.596 1889.84,447.596C1887.32,447.596 1885.29,447.048 1883.75,445.951C1882.2,444.854 1881.41,443.397 1881.37,441.579C1881.31,439.466 1882.13,437.937 1883.85,436.993C1883.38,436.607 1883.07,436.152 1882.91,435.629C1882.76,435.106 1882.68,434.51 1882.68,433.839C1882.68,432.712 1883.17,431.757 1884.16,430.975C1883.01,429.888 1882.43,428.537 1882.43,426.923C1882.43,425.115 1883.09,423.601 1884.38,422.383C1885.76,421.103 1887.53,420.463 1889.72,420.463C1890.87,420.463 1891.94,420.676 1892.95,421.103C1894.27,420.544 1895.24,420.054 1895.86,419.633C1896.48,419.211 1896.87,418.904 1897.05,418.711L1897.14,418.726C1897.23,418.97 1897.34,419.315 1897.46,419.762L1897.73,420.859C1897.98,421.763 1898.12,422.383 1898.17,422.718C1897.73,423.205 1896.94,423.551 1895.81,423.754C1896.25,424.597 1896.47,425.49 1896.47,426.435C1896.47,427.38 1896.3,428.235 1895.98,429.002C1895.65,429.769 1895.19,430.442 1894.59,431.021C1893.26,432.27 1891.57,432.895 1889.5,432.895C1888.5,432.895 1887.56,432.747 1886.7,432.453ZM1886.31,425.597C1886.16,425.963 1886.09,426.333 1886.09,426.709C1886.09,427.085 1886.17,427.446 1886.33,427.791C1886.49,428.136 1886.72,428.446 1887.02,428.72C1887.7,429.33 1888.59,429.634 1889.69,429.634C1890.52,429.634 1891.24,429.355 1891.85,428.796C1892.49,428.187 1892.81,427.453 1892.81,426.595C1892.81,425.737 1892.52,425.044 1891.94,424.515C1891.36,423.987 1890.57,423.723 1889.55,423.723C1887.87,423.723 1886.79,424.348 1886.31,425.597ZM1890.04,444.366C1892.54,444.366 1893.79,443.493 1893.79,441.746C1893.79,440.913 1893.38,440.243 1892.57,439.735C1891.65,439.156 1890.08,438.704 1887.86,438.379L1887.07,438.242C1886.4,438.598 1885.9,439.055 1885.59,439.613C1885.27,440.172 1885.12,440.702 1885.12,441.205C1885.13,441.708 1885.25,442.142 1885.48,442.508C1885.72,442.873 1886.04,443.193 1886.46,443.468C1887.38,444.067 1888.58,444.366 1890.04,444.366Z" style="fill-rule:nonzero;"/>
        </g>
        <g transform="matrix(1,0,0,1,-1.32147,0)">
            <path d="M1899.53,428.812C1899.53,427.694 1899.72,426.625 1900.1,425.605C1900.48,424.584 1901.03,423.693 1901.74,422.931C1903.29,421.286 1905.31,420.463 1907.79,420.463C1910.25,420.463 1912.21,421.24 1913.67,422.794C1915.06,424.277 1915.75,426.201 1915.75,428.568C1915.75,430.934 1915.04,432.895 1913.61,434.449C1912.09,436.094 1910.09,436.917 1907.59,436.917C1905.01,436.917 1902.99,436.109 1901.52,434.494C1900.19,433.022 1899.53,431.127 1899.53,428.812ZM1903.23,428.72C1903.23,429.36 1903.34,429.98 1903.55,430.579C1903.76,431.178 1904.07,431.691 1904.47,432.118C1905.31,433.042 1906.41,433.504 1907.79,433.504C1909.06,433.504 1910.06,433.052 1910.79,432.148C1911.5,431.275 1911.85,430.137 1911.85,428.735C1911.85,427.314 1911.49,426.166 1910.76,425.292C1909.98,424.358 1908.9,423.891 1907.54,423.891C1906.16,423.891 1905.08,424.388 1904.3,425.384C1903.59,426.298 1903.23,427.41 1903.23,428.72Z" style="fill-rule:nonzero;"/>
        </g>
        <g transform="matrix(1,0,0,1,-1.32147,0)">
            <path d="M1923.11,432.453C1922.74,432.95 1922.55,433.344 1922.55,433.634C1922.55,433.923 1922.59,434.146 1922.69,434.304C1922.78,434.461 1922.98,434.611 1923.28,434.753C1923.95,435.068 1925.05,435.345 1926.59,435.584C1928.12,435.822 1929.32,436.119 1930.19,436.475C1931.06,436.83 1931.76,437.267 1932.3,437.785C1933.3,438.77 1933.81,440.167 1933.81,441.975C1933.81,443.782 1933.17,445.171 1931.9,446.141C1930.63,447.111 1928.75,447.596 1926.25,447.596C1923.73,447.596 1921.7,447.048 1920.16,445.951C1918.61,444.854 1917.82,443.397 1917.78,441.579C1917.72,439.466 1918.55,437.937 1920.26,436.993C1919.8,436.607 1919.48,436.152 1919.33,435.629C1919.17,435.106 1919.09,434.51 1919.09,433.839C1919.09,432.712 1919.58,431.757 1920.57,430.975C1919.42,429.888 1918.85,428.537 1918.85,426.923C1918.85,425.115 1919.5,423.601 1920.8,422.383C1922.17,421.103 1923.94,420.463 1926.13,420.463C1927.28,420.463 1928.35,420.676 1929.36,421.103C1930.68,420.544 1931.65,420.054 1932.27,419.633C1932.89,419.211 1933.28,418.904 1933.46,418.711L1933.55,418.726C1933.64,418.97 1933.75,419.315 1933.87,419.762L1934.14,420.859C1934.39,421.763 1934.53,422.383 1934.58,422.718C1934.14,423.205 1933.35,423.551 1932.22,423.754C1932.66,424.597 1932.88,425.49 1932.88,426.435C1932.88,427.38 1932.72,428.235 1932.39,429.002C1932.07,429.769 1931.6,430.442 1931,431.021C1929.67,432.27 1927.98,432.895 1925.91,432.895C1924.91,432.895 1923.98,432.747 1923.11,432.453ZM1922.72,425.597C1922.57,425.963 1922.5,426.333 1922.5,426.709C1922.5,427.085 1922.58,427.446 1922.74,427.791C1922.9,428.136 1923.13,428.446 1923.43,428.72C1924.11,429.33 1925,429.634 1926.1,429.634C1926.93,429.634 1927.65,429.355 1928.26,428.796C1928.9,428.187 1929.22,427.453 1929.22,426.595C1929.22,425.737 1928.93,425.044 1928.35,424.515C1927.77,423.987 1926.98,423.723 1925.96,423.723C1924.29,423.723 1923.2,424.348 1922.72,425.597ZM1926.45,444.366C1928.95,444.366 1930.2,443.493 1930.2,441.746C1930.2,440.913 1929.79,440.243 1928.98,439.735C1928.06,439.156 1926.49,438.704 1924.27,438.379L1923.48,438.242C1922.81,438.598 1922.32,439.055 1922,439.613C1921.68,440.172 1921.53,440.702 1921.54,441.205C1921.54,441.708 1921.66,442.142 1921.89,442.508C1922.13,442.873 1922.45,443.193 1922.87,443.468C1923.79,444.067 1924.99,444.366 1926.45,444.366Z" style="fill-rule:nonzero;"/>
        </g>
        <g transform="matrix(1,0,0,1,-1.32147,0)">
            <path d="M1936.61,416.228C1937.42,414.958 1938.27,413.841 1939.15,412.876L1942.43,415.451C1941.99,415.989 1941.59,416.517 1941.21,417.035C1941.21,417.035 1940.82,417.589 1940.04,418.696L1936.61,416.228ZM1940.62,434.982C1940.62,435.855 1940.64,436.424 1940.68,436.688L1936.81,436.688L1936.81,420.768L1940.62,420.768L1940.62,434.982Z" style="fill-rule:nonzero;"/>
        </g>
        <g transform="matrix(1,0,0,1,-1.32147,0)">
            <path d="M1950.28,436.917C1947.41,436.917 1945.25,436.394 1943.8,435.347C1943.82,435.043 1943.85,434.697 1943.89,434.311L1944.03,433.215C1944.11,432.493 1944.16,432.044 1944.18,431.866C1944.2,431.689 1944.22,431.592 1944.23,431.577C1944.24,431.562 1944.32,431.643 1944.47,431.821C1944.62,431.998 1944.91,432.214 1945.34,432.468C1945.77,432.722 1946.26,432.945 1946.82,433.138C1948.03,433.555 1949.29,433.763 1950.6,433.763C1952.35,433.763 1953.23,433.179 1953.23,432.011C1953.23,431.635 1953.06,431.356 1952.73,431.173C1952.13,430.868 1951.25,430.637 1950.09,430.48C1948.92,430.322 1947.97,430.091 1947.23,429.787C1946.49,429.482 1945.88,429.116 1945.42,428.69C1944.55,427.887 1944.12,426.836 1944.12,425.536C1944.12,423.952 1944.73,422.708 1945.95,421.804C1947.16,420.91 1948.83,420.463 1950.96,420.463C1953.07,420.463 1954.88,421.062 1956.37,422.261C1956.3,422.525 1956.22,422.779 1956.14,423.022C1955.91,423.693 1955.74,424.175 1955.62,424.47L1955.27,425.369C1955.25,425.45 1955.24,425.49 1955.23,425.49C1955.21,425.49 1955.13,425.384 1954.98,425.171C1954.34,424.429 1953.35,423.942 1952,423.708C1951.58,423.627 1951.15,423.586 1950.72,423.586C1948.87,423.586 1947.94,424.145 1947.94,425.262C1947.94,425.648 1948.14,425.942 1948.52,426.146C1949.25,426.531 1950.23,426.816 1951.49,426.999C1952.74,427.182 1953.69,427.428 1954.34,427.738C1954.99,428.047 1955.52,428.421 1955.91,428.857C1956.64,429.65 1957.01,430.701 1957.01,432.011C1957.01,433.443 1956.44,434.606 1955.29,435.5C1954.09,436.444 1952.42,436.917 1950.28,436.917Z" style="fill-rule:nonzero;"/>
        </g>
        <g transform="matrix(1,0,0,1,-1.32147,0)">
            <path d="M1972.99,435.21C1971.85,436.348 1970.07,436.917 1967.64,436.917C1965.29,436.917 1963.36,436.201 1961.87,434.769C1960.36,433.316 1959.6,431.386 1959.6,428.979C1959.6,426.531 1960.35,424.52 1961.84,422.946C1963.42,421.291 1965.54,420.463 1968.19,420.463C1970.07,420.463 1971.64,420.874 1972.91,421.697L1972.31,425.597L1972.2,425.582C1971.71,424.993 1971.2,424.607 1970.66,424.424C1969.79,424.119 1968.91,423.967 1968.04,423.967C1967.17,423.967 1966.48,424.079 1965.98,424.302C1965.49,424.526 1965.06,424.835 1964.7,425.231C1963.99,426.044 1963.64,427.121 1963.64,428.461C1963.64,430.838 1964.46,432.392 1966.11,433.123C1966.67,433.367 1967.28,433.489 1967.91,433.489C1968.55,433.489 1969.1,433.433 1969.57,433.321C1970.04,433.209 1970.47,433.057 1970.86,432.864C1971.68,432.458 1972.24,431.986 1972.53,431.447L1972.64,431.493L1972.99,435.21Z" style="fill-rule:nonzero;"/>
        </g>
        <g transform="matrix(1,0,0,1,-1.32147,0)">
            <path d="M1980.3,434.982C1980.3,435.855 1980.32,436.424 1980.37,436.688L1976.57,436.688L1976.57,414.902L1980.3,414.902L1980.3,421.956C1981.61,420.961 1982.97,420.463 1984.36,420.463C1986.06,420.463 1987.43,421.027 1988.47,422.154C1989.49,423.281 1989.99,424.774 1989.99,426.633L1989.99,432.697C1989.99,434.413 1990.02,435.444 1990.07,435.789C1990.12,436.135 1990.19,436.358 1990.28,436.46C1990.36,436.561 1990.43,436.653 1990.5,436.734L1990.47,436.795C1989.64,436.724 1989.04,436.688 1988.67,436.688L1987.59,436.688C1987.25,436.688 1986.81,436.703 1986.26,436.734L1986.26,427.913C1986.26,426.511 1985.95,425.475 1985.33,424.805C1984.86,424.297 1984.23,424.043 1983.43,424.043C1982.24,424.043 1981.2,424.729 1980.3,426.1L1980.3,434.982Z" style="fill-rule:nonzero;"/>
        </g>
        <g transform="matrix(1,0,0,1,-1.32147,0)">
            <path d="M1993.59,428.857C1993.59,427.669 1993.79,426.567 1994.2,425.551C1994.6,424.536 1995.18,423.647 1995.92,422.885C1997.5,421.27 1999.58,420.463 2002.13,420.463C2004.3,420.463 2006.04,421.179 2007.35,422.611C2008.63,423.992 2009.28,425.729 2009.28,427.821C2009.28,428.624 2009.22,429.172 2009.1,429.467C2008.08,429.751 2006.02,429.893 2002.9,429.893L1997.53,429.893C1997.8,430.98 1998.41,431.826 1999.38,432.43C2000.34,433.034 2001.6,433.336 2003.14,433.336C2004.76,433.336 2006.14,433.047 2007.3,432.468C2007.61,432.316 2007.83,432.173 2007.99,432.041C2007.97,432.468 2007.94,432.905 2007.91,433.352L2007.74,435.728C2006.97,436.256 2005.72,436.622 2003.99,436.825C2003.49,436.886 2003,436.917 2002.53,436.917C1999.95,436.917 1997.82,436.165 1996.13,434.662C1994.44,433.149 1993.59,431.214 1993.59,428.857ZM2005.23,426.938C2004.81,424.754 2003.62,423.662 2001.66,423.662C2000.12,423.662 1998.95,424.328 1998.14,425.658C1997.9,426.064 1997.71,426.511 1997.58,426.999C1997.82,427.009 1998.12,427.019 1998.48,427.029L1999.61,427.029C1999.98,427.039 2000.34,427.044 2000.69,427.044L2001.56,427.044C2002.07,427.044 2002.58,427.039 2003.08,427.029L2004.33,426.983C2004.66,426.973 2004.96,426.958 2005.23,426.938Z" style="fill-rule:nonzero;"/>
        </g>
        <g transform="matrix(1,0,0,1,-1.32147,0)">
            <path d="M2017.95,436.917C2015.09,436.917 2012.93,436.394 2011.47,435.347C2011.49,435.043 2011.53,434.697 2011.57,434.311L2011.7,433.215C2011.78,432.493 2011.84,432.044 2011.86,431.866C2011.88,431.689 2011.89,431.592 2011.9,431.577C2011.91,431.562 2011.99,431.643 2012.14,431.821C2012.3,431.998 2012.59,432.214 2013.01,432.468C2013.44,432.722 2013.93,432.945 2014.49,433.138C2015.7,433.555 2016.96,433.763 2018.27,433.763C2020.03,433.763 2020.9,433.179 2020.9,432.011C2020.9,431.635 2020.74,431.356 2020.4,431.173C2019.8,430.868 2018.92,430.637 2017.76,430.48C2016.6,430.322 2015.64,430.091 2014.9,429.787C2014.16,429.482 2013.56,429.116 2013.09,428.69C2012.23,427.887 2011.79,426.836 2011.79,425.536C2011.79,423.952 2012.4,422.708 2013.62,421.804C2014.83,420.91 2016.5,420.463 2018.63,420.463C2020.75,420.463 2022.55,421.062 2024.04,422.261C2023.97,422.525 2023.9,422.779 2023.81,423.022C2023.58,423.693 2023.41,424.175 2023.3,424.47L2022.95,425.369C2022.93,425.45 2022.91,425.49 2022.9,425.49C2022.88,425.49 2022.8,425.384 2022.66,425.171C2022.02,424.429 2021.02,423.942 2019.67,423.708C2019.25,423.627 2018.83,423.586 2018.39,423.586C2016.54,423.586 2015.62,424.145 2015.62,425.262C2015.62,425.648 2015.81,425.942 2016.2,426.146C2016.92,426.531 2017.91,426.816 2019.16,426.999C2020.41,427.182 2021.37,427.428 2022.02,427.738C2022.67,428.047 2023.19,428.421 2023.59,428.857C2024.32,429.65 2024.68,430.701 2024.68,432.011C2024.68,433.443 2024.11,434.606 2022.96,435.5C2021.76,436.444 2020.09,436.917 2017.95,436.917Z" style="fill-rule:nonzero;"/>
        </g>
        <g transform="matrix(1,0,0,1,-1.32147,0)">
            <path d="M2049.62,427.928C2049.14,427.877 2048.51,427.852 2047.73,427.852L2043.12,427.852L2043.12,436.688L2038.94,436.688L2038.94,416.319C2039.22,416.339 2039.53,416.355 2039.89,416.365L2041.01,416.395C2041.79,416.416 2042.59,416.426 2043.42,416.426C2045.92,416.426 2048.31,416.385 2050.58,416.304C2050.47,417.198 2050.41,418.391 2050.41,419.884C2050.41,420.046 2050.43,420.168 2050.45,420.25L2050.41,420.295C2049.88,420.143 2049.12,420.067 2048.16,420.067L2043.12,420.067L2043.12,424.256L2047.57,424.256C2048.68,424.256 2049.35,424.226 2049.58,424.165L2049.62,427.928Z" style="fill-rule:nonzero;"/>
        </g>
        <g transform="matrix(1,0,0,1,-1.32147,0)">
            <path d="M2052.97,428.812C2052.97,427.694 2053.16,426.625 2053.55,425.605C2053.93,424.584 2054.47,423.693 2055.18,422.931C2056.74,421.286 2058.75,420.463 2061.23,420.463C2063.7,420.463 2065.66,421.24 2067.11,422.794C2068.5,424.277 2069.2,426.201 2069.2,428.568C2069.2,430.934 2068.48,432.895 2067.05,434.449C2065.54,436.094 2063.53,436.917 2061.03,436.917C2058.45,436.917 2056.43,436.109 2054.97,434.494C2053.64,433.022 2052.97,431.127 2052.97,428.812ZM2056.68,428.72C2056.68,429.36 2056.78,429.98 2057,430.579C2057.21,431.178 2057.51,431.691 2057.91,432.118C2058.75,433.042 2059.86,433.504 2061.23,433.504C2062.5,433.504 2063.5,433.052 2064.23,432.148C2064.94,431.275 2065.3,430.137 2065.3,428.735C2065.3,427.314 2064.93,426.166 2064.2,425.292C2063.42,424.358 2062.35,423.891 2060.99,423.891C2059.61,423.891 2058.52,424.388 2057.74,425.384C2057.03,426.298 2056.68,427.41 2056.68,428.72ZM2066.3,414.902C2066.26,415.41 2066.24,416.057 2066.24,416.845C2066.24,417.632 2066.26,418.203 2066.3,418.559L2062.27,418.559C2062.35,417.929 2062.39,417.307 2062.39,416.692C2062.39,416.078 2062.36,415.481 2062.3,414.902L2066.3,414.902ZM2059.75,414.902C2059.71,415.41 2059.69,416.057 2059.69,416.845C2059.69,417.632 2059.71,418.203 2059.75,418.559L2055.72,418.559C2055.8,417.929 2055.84,417.307 2055.84,416.692C2055.84,416.078 2055.81,415.481 2055.75,414.902L2059.75,414.902Z" style="fill-rule:nonzero;"/>
        </g>
        <g transform="matrix(1,0,0,1,-1.32147,0)">
            <path d="M2075.96,434.982C2075.96,435.855 2075.98,436.424 2076.02,436.688L2072.23,436.688L2072.23,420.768L2075.96,420.768L2075.96,421.941C2076.83,420.956 2077.73,420.463 2078.68,420.463C2079.63,420.463 2080.38,420.58 2080.93,420.813L2080.66,424.912L2080.6,424.957C2080.24,424.328 2079.5,424.013 2078.39,424.013C2077.96,424.013 2077.53,424.157 2077.08,424.447C2076.64,424.736 2076.27,425.12 2075.96,425.597L2075.96,434.982Z" style="fill-rule:nonzero;"/>
        </g>
        <g transform="matrix(1,0,0,1,-1.32147,0)">
            <path d="M2093.71,435.835C2092.42,436.556 2091.13,436.917 2089.84,436.917C2088.55,436.917 2087.43,436.713 2086.46,436.307C2085.49,435.901 2084.67,435.342 2083.99,434.631C2082.59,433.169 2081.89,431.27 2081.89,428.934C2081.89,426.516 2082.7,424.505 2084.33,422.901C2085.96,421.275 2088.05,420.463 2090.6,420.463C2091.39,420.463 2092.15,420.564 2092.9,420.768L2092.9,413.988L2096.64,413.988L2096.64,430.274C2096.64,431.625 2096.7,432.509 2096.83,432.925C2096.95,433.341 2097.1,433.646 2097.25,433.839C2097.41,434.032 2097.61,434.215 2097.86,434.388L2094.99,436.917C2094.46,436.632 2094.04,436.272 2093.71,435.835ZM2090.56,433.413C2091.41,433.413 2092.19,433.25 2092.9,432.925L2092.9,424.485C2092.19,424.19 2091.42,424.043 2090.59,424.043C2089.76,424.043 2089.04,424.155 2088.45,424.378C2087.85,424.602 2087.34,424.912 2086.92,425.308C2086.02,426.14 2085.58,427.222 2085.58,428.553C2085.58,430.005 2085.98,431.163 2086.8,432.026C2087.67,432.95 2088.92,433.413 2090.56,433.413Z" style="fill-rule:nonzero;"/>
        </g>
        <g transform="matrix(1,0,0,1,-1.32147,0)">
            <path d="M2100.26,428.857C2100.26,427.669 2100.47,426.567 2100.87,425.551C2101.28,424.536 2101.85,423.647 2102.59,422.885C2104.18,421.27 2106.25,420.463 2108.81,420.463C2110.97,420.463 2112.71,421.179 2114.02,422.611C2115.31,423.992 2115.95,425.729 2115.95,427.821C2115.95,428.624 2115.89,429.172 2115.77,429.467C2114.76,429.751 2112.69,429.893 2109.57,429.893L2104.21,429.893C2104.47,430.98 2105.09,431.826 2106.05,432.43C2107.02,433.034 2108.27,433.336 2109.82,433.336C2111.43,433.336 2112.82,433.047 2113.97,432.468C2114.28,432.316 2114.51,432.173 2114.66,432.041C2114.64,432.468 2114.61,432.905 2114.58,433.352L2114.42,435.728C2113.64,436.256 2112.39,436.622 2110.67,436.825C2110.16,436.886 2109.67,436.917 2109.21,436.917C2106.63,436.917 2104.49,436.165 2102.81,434.662C2101.11,433.149 2100.26,431.214 2100.26,428.857ZM2111.9,426.938C2111.49,424.754 2110.3,423.662 2108.34,423.662C2106.79,423.662 2105.62,424.328 2104.82,425.658C2104.57,426.064 2104.39,426.511 2104.25,426.999C2104.5,427.009 2104.8,427.019 2105.15,427.029L2106.28,427.029C2106.66,427.039 2107.02,427.044 2107.36,427.044L2108.23,427.044C2108.75,427.044 2109.26,427.039 2109.75,427.029L2111,426.983C2111.34,426.973 2111.64,426.958 2111.9,426.938Z" style="fill-rule:nonzero;"/>
        </g>
        <g transform="matrix(1,0,0,1,-1.32147,0)">
            <path d="M2122.86,434.982C2122.86,435.855 2122.88,436.424 2122.92,436.688L2119.12,436.688L2119.12,420.768L2122.86,420.768L2122.86,421.941C2123.72,420.956 2124.63,420.463 2125.57,420.463C2126.53,420.463 2127.27,420.58 2127.82,420.813L2127.55,424.912L2127.49,424.957C2127.13,424.328 2126.4,424.013 2125.28,424.013C2124.85,424.013 2124.42,424.157 2123.98,424.447C2123.53,424.736 2123.16,425.12 2122.86,425.597L2122.86,434.982Z" style="fill-rule:nonzero;"/>
        </g>
        <g transform="matrix(1,0,0,1,-1.32147,0)">
            <path d="M2129.65,421.484L2129.62,420.768L2142.49,420.768L2134.72,433.641L2140.71,433.641C2141.61,433.641 2142.21,433.514 2142.52,433.26L2141.52,436.917C2141.07,436.886 2140.53,436.861 2139.9,436.84L2138.01,436.749C2136.85,436.708 2135.74,436.688 2134.71,436.688C2132.41,436.688 2130.28,436.764 2128.3,436.917L2136.26,423.754L2132.48,423.754C2131.31,423.754 2130.34,423.886 2129.59,424.15C2129.63,423.358 2129.65,422.743 2129.65,422.306L2129.65,421.484Z" style="fill-rule:nonzero;"/>
        </g>
        <g transform="matrix(1,0,0,1,-1.32147,0)">
            <path d="M2144.52,428.857C2144.52,427.669 2144.72,426.567 2145.13,425.551C2145.53,424.536 2146.11,423.647 2146.85,422.885C2148.43,421.27 2150.51,420.463 2153.07,420.463C2155.23,420.463 2156.97,421.179 2158.28,422.611C2159.57,423.992 2160.21,425.729 2160.21,427.821C2160.21,428.624 2160.15,429.172 2160.03,429.467C2159.01,429.751 2156.95,429.893 2153.83,429.893L2148.47,429.893C2148.73,430.98 2149.34,431.826 2150.31,432.43C2151.27,433.034 2152.53,433.336 2154.07,433.336C2155.69,433.336 2157.07,433.047 2158.23,432.468C2158.54,432.316 2158.76,432.173 2158.92,432.041C2158.9,432.468 2158.87,432.905 2158.84,433.352L2158.67,435.728C2157.9,436.256 2156.65,436.622 2154.93,436.825C2154.42,436.886 2153.93,436.917 2153.46,436.917C2150.88,436.917 2148.75,436.165 2147.06,434.662C2145.37,433.149 2144.52,431.214 2144.52,428.857ZM2156.16,426.938C2155.74,424.754 2154.55,423.662 2152.59,423.662C2151.05,423.662 2149.88,424.328 2149.07,425.658C2148.83,426.064 2148.64,426.511 2148.51,426.999C2148.76,427.009 2149.05,427.019 2149.41,427.029L2150.54,427.029C2150.91,427.039 2151.27,427.044 2151.62,427.044L2152.49,427.044C2153.01,427.044 2153.51,427.039 2154.01,427.029L2155.26,426.983C2155.6,426.973 2155.89,426.958 2156.16,426.938Z" style="fill-rule:nonzero;"/>
        </g>
        <g transform="matrix(1,0,0,1,-1.32147,0)">
            <path d="M2167.52,434.738C2167.52,435.632 2167.57,436.282 2167.65,436.688L2163.82,436.688L2163.82,420.768L2167.52,420.768L2167.52,422.124C2168.87,421.016 2170.3,420.463 2171.82,420.463C2173.49,420.463 2174.82,421.029 2175.81,422.162C2176.81,423.294 2177.3,424.785 2177.3,426.633L2177.3,432.697C2177.3,434.413 2177.33,435.444 2177.38,435.789C2177.43,436.135 2177.5,436.358 2177.59,436.46C2177.67,436.561 2177.75,436.653 2177.81,436.734L2177.78,436.795C2176.95,436.724 2176.36,436.688 2175.98,436.688L2174.91,436.688C2174.59,436.688 2174.15,436.703 2173.6,436.734L2173.6,428.431C2173.6,425.455 2172.7,423.967 2170.89,423.967C2169.55,423.967 2168.43,424.658 2167.52,426.039L2167.52,434.738Z" style="fill-rule:nonzero;"/>
        </g>
        <g transform="matrix(1,0,0,1,-1.32147,0)">
            <path d="M2188.82,433.336C2190.13,433.336 2191.03,432.996 2191.52,432.316L2191.64,432.316L2191.69,435.85C2191.19,436.348 2190.26,436.678 2188.91,436.84C2188.55,436.891 2188.09,436.917 2187.55,436.917C2187.01,436.917 2186.42,436.815 2185.78,436.612C2185.15,436.409 2184.61,436.079 2184.16,435.622C2183.24,434.677 2182.77,433.199 2182.77,431.188L2182.77,424.272L2180.47,424.272C2180.46,423.977 2180.46,423.677 2180.46,423.373L2180.46,421.027C2180.46,420.854 2180.46,420.768 2180.47,420.768L2182.77,420.768L2182.77,416.426L2186.51,416.426L2186.51,420.768L2190.7,420.768L2190.7,424.272L2186.51,424.272L2186.51,430.487C2186.51,432.082 2186.95,432.991 2187.83,433.215C2188.12,433.296 2188.45,433.336 2188.82,433.336Z" style="fill-rule:nonzero;"/>
        </g>
        <g transform="matrix(1,0,0,1,-1.32147,0)">
            <path d="M2198.38,434.982C2198.38,435.855 2198.39,436.424 2198.44,436.688L2194.64,436.688L2194.64,420.768L2198.38,420.768L2198.38,421.941C2199.24,420.956 2200.14,420.463 2201.09,420.463C2202.04,420.463 2202.79,420.58 2203.34,420.813L2203.07,424.912L2203.01,424.957C2202.65,424.328 2201.91,424.013 2200.8,424.013C2200.37,424.013 2199.94,424.157 2199.49,424.447C2199.05,424.736 2198.68,425.12 2198.38,425.597L2198.38,434.982Z" style="fill-rule:nonzero;"/>
        </g>
        <g transform="matrix(1,0,0,1,-1.32147,0)">
            <path d="M2214.74,435.302C2213.44,436.378 2212.02,436.917 2210.49,436.917C2208.84,436.917 2207.55,436.363 2206.62,435.256C2205.72,434.179 2205.28,432.702 2205.28,430.823L2205.28,424.774C2205.28,422.743 2205.23,421.578 2205.15,421.278C2205.06,420.978 2205,420.788 2204.96,420.707C2205.42,420.747 2205.91,420.768 2206.42,420.768L2207.68,420.768C2208.02,420.768 2208.46,420.752 2209.01,420.722L2209.01,429.543C2209.01,431.635 2209.58,432.849 2210.72,433.184C2211.06,433.286 2211.44,433.336 2211.84,433.336C2213.04,433.336 2214.01,432.9 2214.74,432.026L2214.74,420.768L2218.51,420.768L2218.51,434.738C2218.51,435.632 2218.56,436.282 2218.64,436.688L2214.74,436.688L2214.74,435.302Z" style="fill-rule:nonzero;"/>
        </g>
        <g transform="matrix(1,0,0,1,-1.32147,0)">
            <path d="M2227.49,432.285C2227.49,434.57 2227.53,436.038 2227.61,436.688L2223.63,436.688L2223.63,420.768L2227.49,420.768L2227.49,422.139C2228.88,421.022 2230.31,420.463 2231.77,420.463C2233.5,420.463 2234.75,421.209 2235.53,422.702C2236.32,421.9 2236.97,421.372 2237.48,421.118C2238.35,420.681 2239.21,420.463 2240.08,420.463C2240.95,420.463 2241.69,420.61 2242.3,420.905C2242.91,421.199 2243.41,421.616 2243.8,422.154C2244.61,423.241 2245.01,424.734 2245.01,426.633L2245.01,432.697C2245.01,434.413 2245.03,435.444 2245.09,435.789C2245.14,436.135 2245.2,436.358 2245.29,436.46C2245.38,436.561 2245.45,436.653 2245.51,436.734L2245.48,436.795C2244.67,436.724 2244.07,436.688 2243.68,436.688L2242.54,436.688C2242.16,436.688 2241.7,436.703 2241.15,436.734L2241.15,428.492C2241.15,426.115 2240.79,424.703 2240.06,424.256C2239.81,424.114 2239.53,424.043 2239.2,424.043C2238.87,424.043 2238.58,424.081 2238.32,424.157C2238.07,424.234 2237.83,424.358 2237.61,424.531C2237.23,424.805 2236.8,425.343 2236.33,426.146C2236.34,426.227 2236.34,426.308 2236.34,426.389L2236.34,430.411C2236.34,433.011 2236.4,435.104 2236.52,436.688L2234.32,436.688C2233.72,436.688 2233.14,436.703 2232.59,436.734L2232.59,428.476C2232.59,426.821 2232.49,425.744 2232.3,425.247C2232.1,424.749 2231.89,424.424 2231.66,424.272C2231.44,424.119 2231.16,424.043 2230.84,424.043C2229.5,424.043 2228.38,424.688 2227.49,425.978L2227.49,432.285Z" style="fill-rule:nonzero;"/>
        </g>
    </g>
</svg>
