<?xml version="1.0" encoding="UTF-8" standalone="no"?>
<!DOCTYPE svg PUBLIC "-//W3C//DTD SVG 1.1//EN" "http://www.w3.org/Graphics/SVG/1.1/DTD/svg11.dtd">
<svg width="100%" height="100%" viewBox="0 0 979 529" version="1.1" xmlns="http://www.w3.org/2000/svg" xmlns:xlink="http://www.w3.org/1999/xlink" xml:space="preserve" xmlns:serif="http://www.serif.com/" style="fill-rule:evenodd;clip-rule:evenodd;stroke-linejoin:round;stroke-miterlimit:2;">
    <g transform="matrix(0.79313,0,0,0.79313,35.4044,68.4296)">
        <g transform="matrix(107.522,0,0,107.522,275.434,491.355)">
            <path d="M0.411,-0.117C0.431,-0.117 0.445,-0.119 0.453,-0.123L0.455,-0.123L0.45,-0L0.084,-0L0.084,-0.653C0.093,-0.652 0.103,-0.652 0.113,-0.651L0.147,-0.65C0.17,-0.65 0.195,-0.649 0.222,-0.649C0.296,-0.649 0.37,-0.651 0.443,-0.653C0.439,-0.625 0.438,-0.586 0.438,-0.539C0.438,-0.533 0.438,-0.529 0.438,-0.527L0.438,-0.525C0.421,-0.53 0.396,-0.533 0.365,-0.533L0.211,-0.533L0.211,-0.408L0.327,-0.408C0.363,-0.408 0.384,-0.409 0.392,-0.411L0.393,-0.291C0.377,-0.292 0.357,-0.293 0.333,-0.293L0.211,-0.293L0.211,-0.117L0.411,-0.117Z" style="fill-rule:nonzero;"/>
        </g>
        <g transform="matrix(107.522,0,0,107.522,329.3,491.355)">
            <path d="M0.422,-0.027C0.381,-0.004 0.339,0.007 0.298,0.007C0.257,0.007 0.22,0.001 0.189,-0.012C0.159,-0.025 0.132,-0.043 0.11,-0.066C0.065,-0.113 0.043,-0.174 0.043,-0.249C0.043,-0.326 0.069,-0.39 0.121,-0.442C0.174,-0.494 0.241,-0.52 0.322,-0.52C0.347,-0.52 0.372,-0.517 0.396,-0.51L0.396,-0.728L0.516,-0.728L0.516,-0.206C0.516,-0.162 0.518,-0.134 0.522,-0.121C0.526,-0.107 0.53,-0.097 0.535,-0.091C0.54,-0.085 0.547,-0.079 0.555,-0.074L0.463,0.007C0.446,-0.002 0.432,-0.013 0.422,-0.027ZM0.321,-0.105C0.348,-0.105 0.373,-0.11 0.396,-0.121L0.396,-0.391C0.373,-0.401 0.348,-0.405 0.322,-0.405C0.295,-0.405 0.272,-0.402 0.253,-0.395C0.234,-0.387 0.218,-0.377 0.204,-0.365C0.175,-0.338 0.161,-0.303 0.161,-0.261C0.161,-0.214 0.174,-0.177 0.2,-0.149C0.228,-0.12 0.268,-0.105 0.321,-0.105Z" style="fill-rule:nonzero;"/>
        </g>
        <g transform="matrix(107.522,0,0,107.522,392.144,491.355)">
            <path d="M0.056,-0.656C0.082,-0.696 0.109,-0.732 0.138,-0.763L0.243,-0.681C0.229,-0.663 0.216,-0.646 0.204,-0.63C0.204,-0.63 0.191,-0.612 0.166,-0.577L0.056,-0.656ZM0.185,-0.055C0.185,-0.027 0.185,-0.008 0.187,-0L0.063,-0L0.063,-0.51L0.185,-0.51L0.185,-0.055Z" style="fill-rule:nonzero;"/>
        </g>
        <g transform="matrix(107.522,0,0,107.522,419.077,491.355)">
            <path d="M0.298,-0.107C0.34,-0.107 0.369,-0.118 0.385,-0.14L0.389,-0.14L0.39,-0.027C0.374,-0.011 0.345,-0 0.301,0.005C0.29,0.007 0.275,0.007 0.258,0.007C0.24,0.007 0.221,0.004 0.201,-0.002C0.181,-0.009 0.163,-0.02 0.149,-0.034C0.119,-0.064 0.104,-0.112 0.104,-0.176L0.104,-0.398L0.031,-0.398C0.03,-0.407 0.03,-0.417 0.03,-0.427L0.03,-0.502C0.03,-0.507 0.03,-0.51 0.031,-0.51L0.104,-0.51L0.104,-0.649L0.224,-0.649L0.224,-0.51L0.358,-0.51L0.358,-0.398L0.224,-0.398L0.224,-0.199C0.224,-0.148 0.238,-0.118 0.267,-0.111C0.276,-0.109 0.286,-0.107 0.298,-0.107Z" style="fill-rule:nonzero;"/>
        </g>
        <g transform="matrix(107.522,0,0,107.522,463.965,491.355)">
            <path d="M0.204,-0.055C0.204,-0.027 0.205,-0.008 0.206,-0L0.084,-0L0.084,-0.698L0.204,-0.698L0.204,-0.472C0.246,-0.504 0.289,-0.52 0.334,-0.52C0.389,-0.52 0.433,-0.502 0.466,-0.466C0.498,-0.43 0.515,-0.382 0.515,-0.322L0.515,-0.128C0.515,-0.073 0.515,-0.04 0.517,-0.029C0.519,-0.018 0.521,-0.011 0.524,-0.007C0.526,-0.004 0.529,-0.001 0.531,0.001L0.53,0.003C0.503,0.001 0.484,-0 0.472,-0L0.438,-0C0.427,-0 0.413,0 0.395,0.001L0.395,-0.281C0.395,-0.326 0.385,-0.359 0.365,-0.381C0.35,-0.397 0.33,-0.405 0.304,-0.405C0.266,-0.405 0.233,-0.383 0.204,-0.339L0.204,-0.055Z" style="fill-rule:nonzero;"/>
        </g>
        <g transform="matrix(107.522,0,0,107.522,562.247,491.355)">
            <path d="M0.476,-0.613L0.467,-0.47L0.463,-0.469C0.439,-0.505 0.398,-0.528 0.34,-0.539C0.322,-0.543 0.305,-0.544 0.288,-0.544C0.271,-0.544 0.257,-0.543 0.245,-0.54C0.233,-0.537 0.223,-0.533 0.214,-0.527C0.196,-0.516 0.188,-0.5 0.188,-0.481C0.188,-0.457 0.195,-0.438 0.211,-0.426C0.23,-0.411 0.263,-0.4 0.308,-0.394C0.353,-0.388 0.39,-0.38 0.417,-0.37C0.444,-0.359 0.467,-0.346 0.484,-0.33C0.518,-0.3 0.534,-0.258 0.534,-0.203C0.534,-0.132 0.507,-0.076 0.453,-0.038C0.407,-0.004 0.349,0.012 0.278,0.012C0.222,0.012 0.166,0.001 0.11,-0.02C0.092,-0.027 0.076,-0.035 0.063,-0.045L0.068,-0.208L0.07,-0.209C0.11,-0.14 0.176,-0.105 0.269,-0.105C0.334,-0.105 0.377,-0.121 0.398,-0.152C0.406,-0.163 0.409,-0.175 0.409,-0.188C0.409,-0.201 0.407,-0.212 0.403,-0.221C0.399,-0.23 0.392,-0.237 0.382,-0.243C0.363,-0.256 0.331,-0.264 0.287,-0.268C0.242,-0.272 0.206,-0.28 0.177,-0.292C0.149,-0.304 0.126,-0.318 0.109,-0.335C0.079,-0.367 0.063,-0.41 0.063,-0.466C0.063,-0.524 0.084,-0.571 0.125,-0.607C0.166,-0.643 0.222,-0.662 0.292,-0.662C0.362,-0.662 0.423,-0.646 0.476,-0.613Z" style="fill-rule:nonzero;"/>
        </g>
        <g transform="matrix(107.522,0,0,107.522,624.881,491.355)">
            <path d="M0.298,-0.107C0.34,-0.107 0.369,-0.118 0.385,-0.14L0.389,-0.14L0.39,-0.027C0.374,-0.011 0.345,-0 0.301,0.005C0.29,0.007 0.275,0.007 0.258,0.007C0.24,0.007 0.221,0.004 0.201,-0.002C0.181,-0.009 0.163,-0.02 0.149,-0.034C0.119,-0.064 0.104,-0.112 0.104,-0.176L0.104,-0.398L0.031,-0.398C0.03,-0.407 0.03,-0.417 0.03,-0.427L0.03,-0.502C0.03,-0.507 0.03,-0.51 0.031,-0.51L0.104,-0.51L0.104,-0.649L0.224,-0.649L0.224,-0.51L0.358,-0.51L0.358,-0.398L0.224,-0.398L0.224,-0.199C0.224,-0.148 0.238,-0.118 0.267,-0.111C0.276,-0.109 0.286,-0.107 0.298,-0.107Z" style="fill-rule:nonzero;"/>
        </g>
        <g transform="matrix(107.522,0,0,107.522,669.769,491.355)">
            <path d="M0.047,-0.251C0.047,-0.289 0.054,-0.324 0.067,-0.357C0.08,-0.389 0.098,-0.418 0.122,-0.442C0.173,-0.494 0.239,-0.52 0.321,-0.52C0.391,-0.52 0.446,-0.497 0.488,-0.451C0.53,-0.407 0.55,-0.351 0.55,-0.284C0.55,-0.258 0.548,-0.241 0.544,-0.231C0.512,-0.222 0.446,-0.218 0.346,-0.218L0.174,-0.218C0.182,-0.183 0.202,-0.156 0.233,-0.136C0.264,-0.117 0.304,-0.107 0.354,-0.107C0.405,-0.107 0.45,-0.117 0.487,-0.135C0.497,-0.14 0.504,-0.145 0.509,-0.149C0.508,-0.135 0.507,-0.121 0.506,-0.107L0.501,-0.031C0.476,-0.014 0.436,-0.002 0.381,0.004C0.365,0.006 0.349,0.007 0.334,0.007C0.251,0.007 0.183,-0.017 0.129,-0.065C0.075,-0.113 0.047,-0.175 0.047,-0.251ZM0.42,-0.313C0.407,-0.382 0.369,-0.417 0.306,-0.417C0.257,-0.417 0.219,-0.396 0.193,-0.354C0.186,-0.34 0.18,-0.326 0.175,-0.311C0.183,-0.31 0.193,-0.31 0.204,-0.31L0.24,-0.31C0.252,-0.309 0.264,-0.309 0.275,-0.309L0.303,-0.309C0.319,-0.309 0.336,-0.309 0.352,-0.31L0.392,-0.311C0.402,-0.311 0.412,-0.312 0.42,-0.313Z" style="fill-rule:nonzero;"/>
        </g>
        <g transform="matrix(107.522,0,0,107.522,732.613,491.355)">
            <path d="M0.056,-0.656C0.082,-0.696 0.109,-0.732 0.138,-0.763L0.243,-0.681C0.229,-0.663 0.216,-0.646 0.204,-0.63C0.204,-0.63 0.191,-0.612 0.166,-0.577L0.056,-0.656ZM0.185,-0.055C0.185,-0.027 0.185,-0.008 0.187,-0L0.063,-0L0.063,-0.51L0.185,-0.51L0.185,-0.055Z" style="fill-rule:nonzero;"/>
        </g>
        <g transform="matrix(107.522,0,0,107.522,759.546,491.355)">
            <path d="M0.2,-0.063C0.2,-0.034 0.201,-0.013 0.204,-0L0.082,-0L0.082,-0.51L0.2,-0.51L0.2,-0.467C0.243,-0.502 0.289,-0.52 0.338,-0.52C0.391,-0.52 0.434,-0.502 0.466,-0.466C0.498,-0.429 0.514,-0.382 0.514,-0.322L0.514,-0.128C0.514,-0.073 0.514,-0.04 0.516,-0.029C0.518,-0.018 0.52,-0.011 0.523,-0.007C0.525,-0.004 0.528,-0.001 0.53,0.001L0.529,0.003C0.502,0.001 0.483,-0 0.471,-0L0.437,-0C0.427,-0 0.413,0 0.395,0.001L0.395,-0.265C0.395,-0.36 0.366,-0.408 0.308,-0.408C0.265,-0.408 0.229,-0.386 0.2,-0.341L0.2,-0.063Z" style="fill-rule:nonzero;"/>
        </g>
        <g transform="matrix(107.522,0,0,107.522,858.038,491.355)">
            <path d="M0.476,-0.613L0.467,-0.47L0.463,-0.469C0.439,-0.505 0.398,-0.528 0.34,-0.539C0.322,-0.543 0.305,-0.544 0.288,-0.544C0.271,-0.544 0.257,-0.543 0.245,-0.54C0.233,-0.537 0.223,-0.533 0.214,-0.527C0.196,-0.516 0.188,-0.5 0.188,-0.481C0.188,-0.457 0.195,-0.438 0.211,-0.426C0.23,-0.411 0.263,-0.4 0.308,-0.394C0.353,-0.388 0.39,-0.38 0.417,-0.37C0.444,-0.359 0.467,-0.346 0.484,-0.33C0.518,-0.3 0.534,-0.258 0.534,-0.203C0.534,-0.132 0.507,-0.076 0.453,-0.038C0.407,-0.004 0.349,0.012 0.278,0.012C0.222,0.012 0.166,0.001 0.11,-0.02C0.092,-0.027 0.076,-0.035 0.063,-0.045L0.068,-0.208L0.07,-0.209C0.11,-0.14 0.176,-0.105 0.269,-0.105C0.334,-0.105 0.377,-0.121 0.398,-0.152C0.406,-0.163 0.409,-0.175 0.409,-0.188C0.409,-0.201 0.407,-0.212 0.403,-0.221C0.399,-0.23 0.392,-0.237 0.382,-0.243C0.363,-0.256 0.331,-0.264 0.287,-0.268C0.242,-0.272 0.206,-0.28 0.177,-0.292C0.149,-0.304 0.126,-0.318 0.109,-0.335C0.079,-0.367 0.063,-0.41 0.063,-0.466C0.063,-0.524 0.084,-0.571 0.125,-0.607C0.166,-0.643 0.222,-0.662 0.292,-0.662C0.362,-0.662 0.423,-0.646 0.476,-0.613Z" style="fill-rule:nonzero;"/>
        </g>
        <g transform="matrix(107.522,0,0,107.522,920.672,491.355)">
            <path d="M0.471,-0.047C0.434,-0.011 0.377,0.007 0.299,0.007C0.224,0.007 0.162,-0.016 0.114,-0.062C0.066,-0.108 0.042,-0.17 0.042,-0.247C0.042,-0.326 0.065,-0.39 0.113,-0.44C0.164,-0.493 0.232,-0.52 0.317,-0.52C0.377,-0.52 0.428,-0.507 0.468,-0.48L0.449,-0.355L0.445,-0.356C0.43,-0.375 0.413,-0.387 0.396,-0.393C0.368,-0.403 0.34,-0.408 0.312,-0.408C0.284,-0.408 0.262,-0.404 0.246,-0.397C0.23,-0.39 0.216,-0.38 0.205,-0.367C0.182,-0.341 0.171,-0.307 0.171,-0.264C0.171,-0.188 0.197,-0.138 0.25,-0.114C0.268,-0.106 0.288,-0.103 0.308,-0.103C0.328,-0.103 0.346,-0.104 0.361,-0.108C0.376,-0.111 0.39,-0.116 0.402,-0.123C0.429,-0.136 0.447,-0.151 0.456,-0.168L0.459,-0.167L0.471,-0.047Z" style="fill-rule:nonzero;"/>
        </g>
        <g transform="matrix(107.522,0,0,107.522,974.538,491.355)">
            <path d="M0.204,-0.055C0.204,-0.027 0.205,-0.008 0.206,-0L0.084,-0L0.084,-0.698L0.204,-0.698L0.204,-0.472C0.246,-0.504 0.289,-0.52 0.334,-0.52C0.389,-0.52 0.433,-0.502 0.466,-0.466C0.498,-0.43 0.515,-0.382 0.515,-0.322L0.515,-0.128C0.515,-0.073 0.515,-0.04 0.517,-0.029C0.519,-0.018 0.521,-0.011 0.524,-0.007C0.526,-0.004 0.529,-0.001 0.531,0.001L0.53,0.003C0.503,0.001 0.484,-0 0.472,-0L0.438,-0C0.427,-0 0.413,0 0.395,0.001L0.395,-0.281C0.395,-0.326 0.385,-0.359 0.365,-0.381C0.35,-0.397 0.33,-0.405 0.304,-0.405C0.266,-0.405 0.233,-0.383 0.204,-0.339L0.204,-0.055Z" style="fill-rule:nonzero;"/>
        </g>
        <g transform="matrix(107.522,0,0,107.522,1037.17,491.355)">
            <path d="M0.377,-0.044C0.336,-0.01 0.29,0.007 0.241,0.007C0.188,0.007 0.147,-0.01 0.117,-0.046C0.089,-0.08 0.074,-0.128 0.074,-0.188L0.074,-0.382C0.074,-0.447 0.073,-0.484 0.07,-0.494C0.067,-0.503 0.065,-0.51 0.064,-0.512C0.079,-0.511 0.095,-0.51 0.111,-0.51L0.151,-0.51C0.162,-0.51 0.176,-0.511 0.194,-0.512L0.194,-0.229C0.194,-0.162 0.212,-0.123 0.249,-0.112C0.26,-0.109 0.272,-0.107 0.285,-0.107C0.323,-0.107 0.354,-0.121 0.377,-0.149L0.377,-0.51L0.499,-0.51L0.499,-0.063C0.499,-0.034 0.5,-0.013 0.502,-0L0.377,-0L0.377,-0.044Z" style="fill-rule:nonzero;"/>
        </g>
        <g transform="matrix(107.522,0,0,107.522,1099.8,491.355)">
            <path d="M0.185,-0.055C0.185,-0.027 0.186,-0.008 0.187,-0L0.063,-0L0.063,-0.728L0.185,-0.728L0.185,-0.055Z" style="fill-rule:nonzero;"/>
        </g>
        <g transform="matrix(107.522,0,0,107.522,1126.74,491.355)">
            <path d="M0.047,-0.251C0.047,-0.289 0.054,-0.324 0.067,-0.357C0.08,-0.389 0.098,-0.418 0.122,-0.442C0.173,-0.494 0.239,-0.52 0.321,-0.52C0.391,-0.52 0.446,-0.497 0.488,-0.451C0.53,-0.407 0.55,-0.351 0.55,-0.284C0.55,-0.258 0.548,-0.241 0.544,-0.231C0.512,-0.222 0.446,-0.218 0.346,-0.218L0.174,-0.218C0.182,-0.183 0.202,-0.156 0.233,-0.136C0.264,-0.117 0.304,-0.107 0.354,-0.107C0.405,-0.107 0.45,-0.117 0.487,-0.135C0.497,-0.14 0.504,-0.145 0.509,-0.149C0.508,-0.135 0.507,-0.121 0.506,-0.107L0.501,-0.031C0.476,-0.014 0.436,-0.002 0.381,0.004C0.365,0.006 0.349,0.007 0.334,0.007C0.251,0.007 0.183,-0.017 0.129,-0.065C0.075,-0.113 0.047,-0.175 0.047,-0.251ZM0.42,-0.313C0.407,-0.382 0.369,-0.417 0.306,-0.417C0.257,-0.417 0.219,-0.396 0.193,-0.354C0.186,-0.34 0.18,-0.326 0.175,-0.311C0.183,-0.31 0.193,-0.31 0.204,-0.31L0.24,-0.31C0.252,-0.309 0.264,-0.309 0.275,-0.309L0.303,-0.309C0.319,-0.309 0.336,-0.309 0.352,-0.31L0.392,-0.311C0.402,-0.311 0.412,-0.312 0.42,-0.313Z" style="fill-rule:nonzero;"/>
        </g>
    </g>
    <g transform="matrix(0.386911,0,0,0.386911,152.503,323.92)">
        <g transform="matrix(107.522,0,0,107.522,275.434,491.355)">
            <path d="M0.476,-0.613L0.467,-0.47L0.463,-0.469C0.439,-0.505 0.398,-0.528 0.34,-0.539C0.322,-0.543 0.305,-0.544 0.288,-0.544C0.271,-0.544 0.257,-0.543 0.245,-0.54C0.233,-0.537 0.223,-0.533 0.214,-0.527C0.196,-0.516 0.188,-0.5 0.188,-0.481C0.188,-0.457 0.195,-0.438 0.211,-0.426C0.23,-0.411 0.263,-0.4 0.308,-0.394C0.353,-0.388 0.39,-0.38 0.417,-0.37C0.444,-0.359 0.467,-0.346 0.484,-0.33C0.518,-0.3 0.534,-0.258 0.534,-0.203C0.534,-0.132 0.507,-0.076 0.453,-0.038C0.407,-0.004 0.349,0.012 0.278,0.012C0.222,0.012 0.166,0.001 0.11,-0.02C0.092,-0.027 0.076,-0.035 0.063,-0.045L0.068,-0.208L0.07,-0.209C0.11,-0.14 0.176,-0.105 0.269,-0.105C0.334,-0.105 0.377,-0.121 0.398,-0.152C0.406,-0.163 0.409,-0.175 0.409,-0.188C0.409,-0.201 0.407,-0.212 0.403,-0.221C0.399,-0.23 0.392,-0.237 0.382,-0.243C0.363,-0.256 0.331,-0.264 0.287,-0.268C0.242,-0.272 0.206,-0.28 0.177,-0.292C0.149,-0.304 0.126,-0.318 0.109,-0.335C0.079,-0.367 0.063,-0.41 0.063,-0.466C0.063,-0.524 0.084,-0.571 0.125,-0.607C0.166,-0.643 0.222,-0.662 0.292,-0.662C0.362,-0.662 0.423,-0.646 0.476,-0.613Z" style="fill-rule:nonzero;"/>
        </g>
        <g transform="matrix(107.522,0,0,107.522,338.068,491.355)">
            <path d="M0.035,-0.252C0.035,-0.288 0.041,-0.323 0.053,-0.355C0.065,-0.388 0.083,-0.417 0.105,-0.441C0.155,-0.494 0.22,-0.52 0.299,-0.52C0.378,-0.52 0.441,-0.495 0.488,-0.445C0.532,-0.398 0.555,-0.336 0.555,-0.26C0.555,-0.184 0.532,-0.122 0.486,-0.072C0.437,-0.019 0.373,0.007 0.293,0.007C0.21,0.007 0.146,-0.019 0.099,-0.07C0.056,-0.118 0.035,-0.178 0.035,-0.252ZM0.153,-0.255C0.153,-0.235 0.157,-0.215 0.164,-0.196C0.17,-0.177 0.18,-0.16 0.193,-0.146C0.22,-0.117 0.255,-0.102 0.299,-0.102C0.34,-0.102 0.372,-0.117 0.396,-0.146C0.418,-0.174 0.43,-0.21 0.43,-0.255C0.43,-0.3 0.418,-0.337 0.395,-0.365C0.369,-0.395 0.335,-0.41 0.292,-0.41C0.247,-0.41 0.213,-0.394 0.188,-0.362C0.165,-0.333 0.153,-0.297 0.153,-0.255Z" style="fill-rule:nonzero;"/>
        </g>
        <g transform="matrix(107.522,0,0,107.522,400.912,491.355)">
            <path d="M0.2,-0.063C0.2,-0.034 0.201,-0.013 0.204,-0L0.082,-0L0.082,-0.51L0.2,-0.51L0.2,-0.467C0.243,-0.502 0.289,-0.52 0.338,-0.52C0.391,-0.52 0.434,-0.502 0.466,-0.466C0.498,-0.429 0.514,-0.382 0.514,-0.322L0.514,-0.128C0.514,-0.073 0.514,-0.04 0.516,-0.029C0.518,-0.018 0.52,-0.011 0.523,-0.007C0.525,-0.004 0.528,-0.001 0.53,0.001L0.529,0.003C0.502,0.001 0.483,-0 0.471,-0L0.437,-0C0.427,-0 0.413,0 0.395,0.001L0.395,-0.265C0.395,-0.36 0.366,-0.408 0.308,-0.408C0.265,-0.408 0.229,-0.386 0.2,-0.341L0.2,-0.063Z" style="fill-rule:nonzero;"/>
        </g>
        <g transform="matrix(107.522,0,0,107.522,463.755,491.355)">
            <path d="M0.422,-0.027C0.381,-0.004 0.339,0.007 0.298,0.007C0.257,0.007 0.22,0.001 0.189,-0.012C0.159,-0.025 0.132,-0.043 0.11,-0.066C0.065,-0.113 0.043,-0.174 0.043,-0.249C0.043,-0.326 0.069,-0.39 0.121,-0.442C0.174,-0.494 0.241,-0.52 0.322,-0.52C0.347,-0.52 0.372,-0.517 0.396,-0.51L0.396,-0.728L0.516,-0.728L0.516,-0.206C0.516,-0.162 0.518,-0.134 0.522,-0.121C0.526,-0.107 0.53,-0.097 0.535,-0.091C0.54,-0.085 0.547,-0.079 0.555,-0.074L0.463,0.007C0.446,-0.002 0.432,-0.013 0.422,-0.027ZM0.321,-0.105C0.348,-0.105 0.373,-0.11 0.396,-0.121L0.396,-0.391C0.373,-0.401 0.348,-0.405 0.322,-0.405C0.295,-0.405 0.272,-0.402 0.253,-0.395C0.234,-0.387 0.218,-0.377 0.204,-0.365C0.175,-0.338 0.161,-0.303 0.161,-0.261C0.161,-0.214 0.174,-0.177 0.2,-0.149C0.228,-0.12 0.268,-0.105 0.321,-0.105Z" style="fill-rule:nonzero;"/>
        </g>
        <g transform="matrix(107.522,0,0,107.522,526.599,491.355)">
            <path d="M0.047,-0.251C0.047,-0.289 0.054,-0.324 0.067,-0.357C0.08,-0.389 0.098,-0.418 0.122,-0.442C0.173,-0.494 0.239,-0.52 0.321,-0.52C0.391,-0.52 0.446,-0.497 0.488,-0.451C0.53,-0.407 0.55,-0.351 0.55,-0.284C0.55,-0.258 0.548,-0.241 0.544,-0.231C0.512,-0.222 0.446,-0.218 0.346,-0.218L0.174,-0.218C0.182,-0.183 0.202,-0.156 0.233,-0.136C0.264,-0.117 0.304,-0.107 0.354,-0.107C0.405,-0.107 0.45,-0.117 0.487,-0.135C0.497,-0.14 0.504,-0.145 0.509,-0.149C0.508,-0.135 0.507,-0.121 0.506,-0.107L0.501,-0.031C0.476,-0.014 0.436,-0.002 0.381,0.004C0.365,0.006 0.349,0.007 0.334,0.007C0.251,0.007 0.183,-0.017 0.129,-0.065C0.075,-0.113 0.047,-0.175 0.047,-0.251ZM0.42,-0.313C0.407,-0.382 0.369,-0.417 0.306,-0.417C0.257,-0.417 0.219,-0.396 0.193,-0.354C0.186,-0.34 0.18,-0.326 0.175,-0.311C0.183,-0.31 0.193,-0.31 0.204,-0.31L0.24,-0.31C0.252,-0.309 0.264,-0.309 0.275,-0.309L0.303,-0.309C0.319,-0.309 0.336,-0.309 0.352,-0.31L0.392,-0.311C0.402,-0.311 0.412,-0.312 0.42,-0.313Z" style="fill-rule:nonzero;"/>
        </g>
        <g transform="matrix(107.522,0,0,107.522,589.443,491.355)">
            <path d="M0.187,-0.055C0.187,-0.027 0.188,-0.008 0.189,-0L0.067,-0L0.067,-0.51L0.187,-0.51L0.187,-0.473C0.215,-0.504 0.244,-0.52 0.274,-0.52C0.305,-0.52 0.329,-0.516 0.346,-0.509L0.337,-0.377L0.335,-0.376C0.324,-0.396 0.3,-0.406 0.265,-0.406C0.251,-0.406 0.237,-0.402 0.223,-0.392C0.209,-0.383 0.197,-0.371 0.187,-0.355L0.187,-0.055Z" style="fill-rule:nonzero;"/>
        </g>
        <g transform="matrix(107.522,0,0,107.522,625.353,491.355)">
            <path d="M0.199,-0.01L0.199,0.133C0.199,0.161 0.199,0.18 0.201,0.188L0.079,0.188L0.079,-0.51L0.199,-0.51L0.199,-0.479C0.238,-0.506 0.276,-0.52 0.312,-0.52C0.348,-0.52 0.38,-0.515 0.408,-0.505C0.436,-0.495 0.461,-0.479 0.482,-0.458C0.528,-0.412 0.552,-0.347 0.552,-0.262C0.552,-0.205 0.539,-0.155 0.512,-0.111C0.49,-0.073 0.459,-0.043 0.419,-0.021C0.384,-0.001 0.346,0.009 0.305,0.009C0.264,0.009 0.228,0.002 0.199,-0.01ZM0.199,-0.133C0.223,-0.112 0.256,-0.102 0.295,-0.102C0.359,-0.102 0.401,-0.133 0.42,-0.195C0.426,-0.216 0.43,-0.239 0.43,-0.263C0.43,-0.288 0.427,-0.307 0.423,-0.322C0.418,-0.336 0.412,-0.349 0.405,-0.359C0.398,-0.37 0.389,-0.378 0.38,-0.385C0.371,-0.392 0.362,-0.398 0.353,-0.402C0.336,-0.41 0.319,-0.414 0.301,-0.414C0.284,-0.414 0.265,-0.41 0.247,-0.401C0.228,-0.393 0.212,-0.382 0.199,-0.369L0.199,-0.133Z" style="fill-rule:nonzero;"/>
        </g>
        <g transform="matrix(107.522,0,0,107.522,687.987,491.355)">
            <path d="M0.409,-0.03C0.362,-0.005 0.321,0.007 0.283,0.007C0.246,0.007 0.214,0.004 0.187,-0.003C0.16,-0.01 0.138,-0.021 0.119,-0.034C0.081,-0.062 0.063,-0.102 0.063,-0.154C0.063,-0.201 0.086,-0.24 0.132,-0.271C0.182,-0.305 0.25,-0.322 0.336,-0.322L0.355,-0.322C0.359,-0.321 0.364,-0.321 0.369,-0.321C0.374,-0.321 0.378,-0.32 0.382,-0.32C0.379,-0.372 0.357,-0.402 0.314,-0.411C0.3,-0.414 0.286,-0.416 0.27,-0.416C0.254,-0.416 0.239,-0.414 0.223,-0.411C0.208,-0.409 0.194,-0.405 0.179,-0.4C0.148,-0.39 0.125,-0.379 0.111,-0.366L0.11,-0.367L0.095,-0.475C0.153,-0.505 0.216,-0.52 0.284,-0.52C0.39,-0.52 0.458,-0.482 0.488,-0.405C0.497,-0.381 0.502,-0.353 0.502,-0.323L0.502,-0.146C0.502,-0.108 0.515,-0.083 0.542,-0.069L0.454,0.012C0.435,0.002 0.42,-0.012 0.409,-0.03ZM0.382,-0.232C0.374,-0.234 0.364,-0.234 0.355,-0.234L0.335,-0.234C0.264,-0.234 0.218,-0.218 0.198,-0.187C0.192,-0.177 0.189,-0.167 0.189,-0.157C0.189,-0.146 0.191,-0.137 0.195,-0.129C0.199,-0.121 0.205,-0.115 0.214,-0.109C0.231,-0.1 0.256,-0.095 0.289,-0.095C0.323,-0.095 0.354,-0.103 0.383,-0.119C0.382,-0.122 0.382,-0.126 0.382,-0.13L0.382,-0.232ZM0.455,-0.698C0.454,-0.682 0.453,-0.661 0.453,-0.636C0.453,-0.611 0.454,-0.592 0.455,-0.581L0.326,-0.581C0.328,-0.601 0.33,-0.621 0.33,-0.641C0.33,-0.661 0.329,-0.68 0.327,-0.698L0.455,-0.698ZM0.245,-0.698C0.244,-0.682 0.243,-0.661 0.243,-0.636C0.243,-0.611 0.244,-0.592 0.245,-0.581L0.116,-0.581C0.118,-0.601 0.12,-0.621 0.12,-0.641C0.12,-0.661 0.119,-0.68 0.117,-0.698L0.245,-0.698Z" style="fill-rule:nonzero;"/>
        </g>
        <g transform="matrix(107.522,0,0,107.522,750.621,491.355)">
            <path d="M0.422,-0.027C0.381,-0.004 0.339,0.007 0.298,0.007C0.257,0.007 0.22,0.001 0.189,-0.012C0.159,-0.025 0.132,-0.043 0.11,-0.066C0.065,-0.113 0.043,-0.174 0.043,-0.249C0.043,-0.326 0.069,-0.39 0.121,-0.442C0.174,-0.494 0.241,-0.52 0.322,-0.52C0.347,-0.52 0.372,-0.517 0.396,-0.51L0.396,-0.728L0.516,-0.728L0.516,-0.206C0.516,-0.162 0.518,-0.134 0.522,-0.121C0.526,-0.107 0.53,-0.097 0.535,-0.091C0.54,-0.085 0.547,-0.079 0.555,-0.074L0.463,0.007C0.446,-0.002 0.432,-0.013 0.422,-0.027ZM0.321,-0.105C0.348,-0.105 0.373,-0.11 0.396,-0.121L0.396,-0.391C0.373,-0.401 0.348,-0.405 0.322,-0.405C0.295,-0.405 0.272,-0.402 0.253,-0.395C0.234,-0.387 0.218,-0.377 0.204,-0.365C0.175,-0.338 0.161,-0.303 0.161,-0.261C0.161,-0.214 0.174,-0.177 0.2,-0.149C0.228,-0.12 0.268,-0.105 0.321,-0.105Z" style="fill-rule:nonzero;"/>
        </g>
        <g transform="matrix(107.522,0,0,107.522,813.465,491.355)">
            <path d="M0.409,-0.03C0.362,-0.005 0.321,0.007 0.283,0.007C0.246,0.007 0.214,0.004 0.187,-0.003C0.16,-0.01 0.138,-0.021 0.119,-0.034C0.081,-0.062 0.063,-0.102 0.063,-0.154C0.063,-0.201 0.086,-0.24 0.132,-0.271C0.182,-0.305 0.25,-0.322 0.336,-0.322L0.355,-0.322C0.359,-0.321 0.364,-0.321 0.369,-0.321C0.374,-0.321 0.378,-0.32 0.382,-0.32C0.379,-0.372 0.357,-0.402 0.314,-0.411C0.3,-0.414 0.286,-0.416 0.27,-0.416C0.254,-0.416 0.239,-0.414 0.223,-0.411C0.208,-0.409 0.194,-0.405 0.179,-0.4C0.148,-0.39 0.125,-0.379 0.111,-0.366L0.11,-0.367L0.095,-0.475C0.153,-0.505 0.216,-0.52 0.284,-0.52C0.39,-0.52 0.458,-0.482 0.488,-0.405C0.497,-0.381 0.502,-0.353 0.502,-0.323L0.502,-0.146C0.502,-0.108 0.515,-0.083 0.542,-0.069L0.454,0.012C0.435,0.002 0.42,-0.012 0.409,-0.03ZM0.382,-0.232C0.374,-0.234 0.364,-0.234 0.355,-0.234L0.335,-0.234C0.264,-0.234 0.218,-0.218 0.198,-0.187C0.192,-0.177 0.189,-0.167 0.189,-0.157C0.189,-0.146 0.191,-0.137 0.195,-0.129C0.199,-0.121 0.205,-0.115 0.214,-0.109C0.231,-0.1 0.256,-0.095 0.289,-0.095C0.323,-0.095 0.354,-0.103 0.383,-0.119C0.382,-0.122 0.382,-0.126 0.382,-0.13L0.382,-0.232Z" style="fill-rule:nonzero;"/>
        </g>
        <g transform="matrix(107.522,0,0,107.522,876.098,491.355)">
            <path d="M0.206,-0.136C0.194,-0.12 0.188,-0.107 0.188,-0.098C0.188,-0.089 0.189,-0.081 0.192,-0.076C0.195,-0.071 0.202,-0.067 0.211,-0.062C0.233,-0.052 0.268,-0.043 0.317,-0.035C0.367,-0.028 0.405,-0.018 0.433,-0.007C0.461,0.005 0.483,0.019 0.5,0.035C0.533,0.067 0.549,0.111 0.549,0.169C0.549,0.227 0.528,0.272 0.488,0.303C0.447,0.334 0.387,0.35 0.307,0.35C0.226,0.35 0.161,0.332 0.111,0.297C0.062,0.262 0.036,0.215 0.035,0.157C0.033,0.089 0.06,0.04 0.115,0.01C0.1,-0.003 0.09,-0.017 0.085,-0.034C0.08,-0.051 0.077,-0.07 0.077,-0.091C0.077,-0.127 0.093,-0.158 0.125,-0.183C0.088,-0.218 0.069,-0.261 0.069,-0.313C0.069,-0.371 0.09,-0.419 0.132,-0.458C0.176,-0.5 0.233,-0.52 0.303,-0.52C0.34,-0.52 0.374,-0.513 0.406,-0.5C0.449,-0.517 0.48,-0.533 0.5,-0.547C0.519,-0.56 0.532,-0.57 0.538,-0.576L0.541,-0.576C0.543,-0.568 0.547,-0.557 0.551,-0.542L0.56,-0.507C0.567,-0.478 0.572,-0.458 0.574,-0.448C0.559,-0.432 0.534,-0.421 0.498,-0.415C0.512,-0.388 0.519,-0.359 0.519,-0.329C0.519,-0.298 0.514,-0.271 0.503,-0.246C0.493,-0.222 0.478,-0.2 0.459,-0.182C0.416,-0.142 0.362,-0.122 0.296,-0.122C0.264,-0.122 0.234,-0.126 0.206,-0.136ZM0.193,-0.355C0.189,-0.344 0.187,-0.332 0.187,-0.32C0.187,-0.308 0.189,-0.296 0.194,-0.285C0.199,-0.274 0.207,-0.264 0.216,-0.255C0.238,-0.236 0.267,-0.226 0.302,-0.226C0.328,-0.226 0.352,-0.235 0.371,-0.253C0.392,-0.272 0.402,-0.296 0.402,-0.323C0.402,-0.351 0.393,-0.373 0.374,-0.39C0.355,-0.407 0.33,-0.416 0.297,-0.416C0.244,-0.416 0.209,-0.396 0.193,-0.355ZM0.313,0.246C0.393,0.246 0.433,0.218 0.433,0.162C0.433,0.135 0.42,0.114 0.394,0.098C0.365,0.079 0.314,0.065 0.243,0.054L0.218,0.05C0.196,0.061 0.181,0.076 0.17,0.094C0.16,0.112 0.155,0.129 0.156,0.145C0.156,0.161 0.16,0.175 0.167,0.187C0.174,0.198 0.185,0.208 0.198,0.217C0.228,0.236 0.266,0.246 0.313,0.246Z" style="fill-rule:nonzero;"/>
        </g>
        <g transform="matrix(107.522,0,0,107.522,938.732,491.355)">
            <path d="M0.035,-0.252C0.035,-0.288 0.041,-0.323 0.053,-0.355C0.065,-0.388 0.083,-0.417 0.105,-0.441C0.155,-0.494 0.22,-0.52 0.299,-0.52C0.378,-0.52 0.441,-0.495 0.488,-0.445C0.532,-0.398 0.555,-0.336 0.555,-0.26C0.555,-0.184 0.532,-0.122 0.486,-0.072C0.437,-0.019 0.373,0.007 0.293,0.007C0.21,0.007 0.146,-0.019 0.099,-0.07C0.056,-0.118 0.035,-0.178 0.035,-0.252ZM0.153,-0.255C0.153,-0.235 0.157,-0.215 0.164,-0.196C0.17,-0.177 0.18,-0.16 0.193,-0.146C0.22,-0.117 0.255,-0.102 0.299,-0.102C0.34,-0.102 0.372,-0.117 0.396,-0.146C0.418,-0.174 0.43,-0.21 0.43,-0.255C0.43,-0.3 0.418,-0.337 0.395,-0.365C0.369,-0.395 0.335,-0.41 0.292,-0.41C0.247,-0.41 0.213,-0.394 0.188,-0.362C0.165,-0.333 0.153,-0.297 0.153,-0.255Z" style="fill-rule:nonzero;"/>
        </g>
        <g transform="matrix(107.522,0,0,107.522,1001.58,491.355)">
            <path d="M0.206,-0.136C0.194,-0.12 0.188,-0.107 0.188,-0.098C0.188,-0.089 0.189,-0.081 0.192,-0.076C0.195,-0.071 0.202,-0.067 0.211,-0.062C0.233,-0.052 0.268,-0.043 0.317,-0.035C0.367,-0.028 0.405,-0.018 0.433,-0.007C0.461,0.005 0.483,0.019 0.5,0.035C0.533,0.067 0.549,0.111 0.549,0.169C0.549,0.227 0.528,0.272 0.488,0.303C0.447,0.334 0.387,0.35 0.307,0.35C0.226,0.35 0.161,0.332 0.111,0.297C0.062,0.262 0.036,0.215 0.035,0.157C0.033,0.089 0.06,0.04 0.115,0.01C0.1,-0.003 0.09,-0.017 0.085,-0.034C0.08,-0.051 0.077,-0.07 0.077,-0.091C0.077,-0.127 0.093,-0.158 0.125,-0.183C0.088,-0.218 0.069,-0.261 0.069,-0.313C0.069,-0.371 0.09,-0.419 0.132,-0.458C0.176,-0.5 0.233,-0.52 0.303,-0.52C0.34,-0.52 0.374,-0.513 0.406,-0.5C0.449,-0.517 0.48,-0.533 0.5,-0.547C0.519,-0.56 0.532,-0.57 0.538,-0.576L0.541,-0.576C0.543,-0.568 0.547,-0.557 0.551,-0.542L0.56,-0.507C0.567,-0.478 0.572,-0.458 0.574,-0.448C0.559,-0.432 0.534,-0.421 0.498,-0.415C0.512,-0.388 0.519,-0.359 0.519,-0.329C0.519,-0.298 0.514,-0.271 0.503,-0.246C0.493,-0.222 0.478,-0.2 0.459,-0.182C0.416,-0.142 0.362,-0.122 0.296,-0.122C0.264,-0.122 0.234,-0.126 0.206,-0.136ZM0.193,-0.355C0.189,-0.344 0.187,-0.332 0.187,-0.32C0.187,-0.308 0.189,-0.296 0.194,-0.285C0.199,-0.274 0.207,-0.264 0.216,-0.255C0.238,-0.236 0.267,-0.226 0.302,-0.226C0.328,-0.226 0.352,-0.235 0.371,-0.253C0.392,-0.272 0.402,-0.296 0.402,-0.323C0.402,-0.351 0.393,-0.373 0.374,-0.39C0.355,-0.407 0.33,-0.416 0.297,-0.416C0.244,-0.416 0.209,-0.396 0.193,-0.355ZM0.313,0.246C0.393,0.246 0.433,0.218 0.433,0.162C0.433,0.135 0.42,0.114 0.394,0.098C0.365,0.079 0.314,0.065 0.243,0.054L0.218,0.05C0.196,0.061 0.181,0.076 0.17,0.094C0.16,0.112 0.155,0.129 0.156,0.145C0.156,0.161 0.16,0.175 0.167,0.187C0.174,0.198 0.185,0.208 0.198,0.217C0.228,0.236 0.266,0.246 0.313,0.246Z" style="fill-rule:nonzero;"/>
        </g>
        <g transform="matrix(107.522,0,0,107.522,1064.21,491.355)">
            <path d="M0.056,-0.656C0.082,-0.696 0.109,-0.732 0.138,-0.763L0.243,-0.681C0.229,-0.663 0.216,-0.646 0.204,-0.63C0.204,-0.63 0.191,-0.612 0.166,-0.577L0.056,-0.656ZM0.185,-0.055C0.185,-0.027 0.185,-0.008 0.187,-0L0.063,-0L0.063,-0.51L0.185,-0.51L0.185,-0.055Z" style="fill-rule:nonzero;"/>
        </g>
        <g transform="matrix(107.522,0,0,107.522,1091.14,491.355)">
            <path d="M0.244,0.007C0.152,0.007 0.083,-0.009 0.036,-0.043C0.037,-0.053 0.038,-0.064 0.039,-0.076L0.043,-0.111C0.046,-0.134 0.048,-0.149 0.048,-0.155C0.049,-0.16 0.049,-0.163 0.05,-0.164C0.05,-0.164 0.053,-0.162 0.058,-0.156C0.063,-0.15 0.072,-0.143 0.085,-0.135C0.099,-0.127 0.115,-0.12 0.133,-0.114C0.172,-0.1 0.212,-0.094 0.254,-0.094C0.31,-0.094 0.338,-0.112 0.338,-0.15C0.338,-0.162 0.333,-0.171 0.322,-0.177C0.303,-0.187 0.275,-0.194 0.238,-0.199C0.2,-0.204 0.17,-0.211 0.146,-0.221C0.122,-0.231 0.103,-0.243 0.088,-0.256C0.06,-0.282 0.046,-0.316 0.046,-0.357C0.046,-0.408 0.066,-0.448 0.105,-0.477C0.144,-0.506 0.197,-0.52 0.266,-0.52C0.333,-0.52 0.391,-0.501 0.439,-0.462C0.437,-0.454 0.434,-0.446 0.432,-0.438C0.424,-0.417 0.419,-0.401 0.415,-0.392L0.404,-0.363C0.403,-0.36 0.403,-0.359 0.402,-0.359C0.402,-0.359 0.399,-0.362 0.395,-0.369C0.374,-0.393 0.342,-0.409 0.299,-0.416C0.285,-0.419 0.272,-0.42 0.258,-0.42C0.199,-0.42 0.169,-0.402 0.169,-0.366C0.169,-0.354 0.175,-0.344 0.188,-0.338C0.211,-0.326 0.242,-0.316 0.282,-0.311C0.323,-0.305 0.353,-0.297 0.374,-0.287C0.395,-0.277 0.412,-0.265 0.424,-0.251C0.448,-0.226 0.459,-0.192 0.459,-0.15C0.459,-0.104 0.441,-0.067 0.404,-0.038C0.366,-0.008 0.312,0.007 0.244,0.007Z" style="fill-rule:nonzero;"/>
        </g>
        <g transform="matrix(107.522,0,0,107.522,1145.01,491.355)">
            <path d="M0.471,-0.047C0.434,-0.011 0.377,0.007 0.299,0.007C0.224,0.007 0.162,-0.016 0.114,-0.062C0.066,-0.108 0.042,-0.17 0.042,-0.247C0.042,-0.326 0.065,-0.39 0.113,-0.44C0.164,-0.493 0.232,-0.52 0.317,-0.52C0.377,-0.52 0.428,-0.507 0.468,-0.48L0.449,-0.355L0.445,-0.356C0.43,-0.375 0.413,-0.387 0.396,-0.393C0.368,-0.403 0.34,-0.408 0.312,-0.408C0.284,-0.408 0.262,-0.404 0.246,-0.397C0.23,-0.39 0.216,-0.38 0.205,-0.367C0.182,-0.341 0.171,-0.307 0.171,-0.264C0.171,-0.188 0.197,-0.138 0.25,-0.114C0.268,-0.106 0.288,-0.103 0.308,-0.103C0.328,-0.103 0.346,-0.104 0.361,-0.108C0.376,-0.111 0.39,-0.116 0.402,-0.123C0.429,-0.136 0.447,-0.151 0.456,-0.168L0.459,-0.167L0.471,-0.047Z" style="fill-rule:nonzero;"/>
        </g>
        <g transform="matrix(107.522,0,0,107.522,1198.87,491.355)">
            <path d="M0.204,-0.055C0.204,-0.027 0.205,-0.008 0.206,-0L0.084,-0L0.084,-0.698L0.204,-0.698L0.204,-0.472C0.246,-0.504 0.289,-0.52 0.334,-0.52C0.389,-0.52 0.433,-0.502 0.466,-0.466C0.498,-0.43 0.515,-0.382 0.515,-0.322L0.515,-0.128C0.515,-0.073 0.515,-0.04 0.517,-0.029C0.519,-0.018 0.521,-0.011 0.524,-0.007C0.526,-0.004 0.529,-0.001 0.531,0.001L0.53,0.003C0.503,0.001 0.484,-0 0.472,-0L0.438,-0C0.427,-0 0.413,0 0.395,0.001L0.395,-0.281C0.395,-0.326 0.385,-0.359 0.365,-0.381C0.35,-0.397 0.33,-0.405 0.304,-0.405C0.266,-0.405 0.233,-0.383 0.204,-0.339L0.204,-0.055Z" style="fill-rule:nonzero;"/>
        </g>
        <g transform="matrix(107.522,0,0,107.522,1261.51,491.355)">
            <path d="M0.047,-0.251C0.047,-0.289 0.054,-0.324 0.067,-0.357C0.08,-0.389 0.098,-0.418 0.122,-0.442C0.173,-0.494 0.239,-0.52 0.321,-0.52C0.391,-0.52 0.446,-0.497 0.488,-0.451C0.53,-0.407 0.55,-0.351 0.55,-0.284C0.55,-0.258 0.548,-0.241 0.544,-0.231C0.512,-0.222 0.446,-0.218 0.346,-0.218L0.174,-0.218C0.182,-0.183 0.202,-0.156 0.233,-0.136C0.264,-0.117 0.304,-0.107 0.354,-0.107C0.405,-0.107 0.45,-0.117 0.487,-0.135C0.497,-0.14 0.504,-0.145 0.509,-0.149C0.508,-0.135 0.507,-0.121 0.506,-0.107L0.501,-0.031C0.476,-0.014 0.436,-0.002 0.381,0.004C0.365,0.006 0.349,0.007 0.334,0.007C0.251,0.007 0.183,-0.017 0.129,-0.065C0.075,-0.113 0.047,-0.175 0.047,-0.251ZM0.42,-0.313C0.407,-0.382 0.369,-0.417 0.306,-0.417C0.257,-0.417 0.219,-0.396 0.193,-0.354C0.186,-0.34 0.18,-0.326 0.175,-0.311C0.183,-0.31 0.193,-0.31 0.204,-0.31L0.24,-0.31C0.252,-0.309 0.264,-0.309 0.275,-0.309L0.303,-0.309C0.319,-0.309 0.336,-0.309 0.352,-0.31L0.392,-0.311C0.402,-0.311 0.412,-0.312 0.42,-0.313Z" style="fill-rule:nonzero;"/>
        </g>
        <g transform="matrix(107.522,0,0,107.522,1324.35,491.355)">
            <path d="M0.244,0.007C0.152,0.007 0.083,-0.009 0.036,-0.043C0.037,-0.053 0.038,-0.064 0.039,-0.076L0.043,-0.111C0.046,-0.134 0.048,-0.149 0.048,-0.155C0.049,-0.16 0.049,-0.163 0.05,-0.164C0.05,-0.164 0.053,-0.162 0.058,-0.156C0.063,-0.15 0.072,-0.143 0.085,-0.135C0.099,-0.127 0.115,-0.12 0.133,-0.114C0.172,-0.1 0.212,-0.094 0.254,-0.094C0.31,-0.094 0.338,-0.112 0.338,-0.15C0.338,-0.162 0.333,-0.171 0.322,-0.177C0.303,-0.187 0.275,-0.194 0.238,-0.199C0.2,-0.204 0.17,-0.211 0.146,-0.221C0.122,-0.231 0.103,-0.243 0.088,-0.256C0.06,-0.282 0.046,-0.316 0.046,-0.357C0.046,-0.408 0.066,-0.448 0.105,-0.477C0.144,-0.506 0.197,-0.52 0.266,-0.52C0.333,-0.52 0.391,-0.501 0.439,-0.462C0.437,-0.454 0.434,-0.446 0.432,-0.438C0.424,-0.417 0.419,-0.401 0.415,-0.392L0.404,-0.363C0.403,-0.36 0.403,-0.359 0.402,-0.359C0.402,-0.359 0.399,-0.362 0.395,-0.369C0.374,-0.393 0.342,-0.409 0.299,-0.416C0.285,-0.419 0.272,-0.42 0.258,-0.42C0.199,-0.42 0.169,-0.402 0.169,-0.366C0.169,-0.354 0.175,-0.344 0.188,-0.338C0.211,-0.326 0.242,-0.316 0.282,-0.311C0.323,-0.305 0.353,-0.297 0.374,-0.287C0.395,-0.277 0.412,-0.265 0.424,-0.251C0.448,-0.226 0.459,-0.192 0.459,-0.15C0.459,-0.104 0.441,-0.067 0.404,-0.038C0.366,-0.008 0.312,0.007 0.244,0.007Z" style="fill-rule:nonzero;"/>
        </g>
        <g transform="matrix(107.522,0,0,107.522,1413.87,491.355)">
            <path d="M0.426,-0.281C0.411,-0.282 0.39,-0.283 0.366,-0.283L0.218,-0.283L0.218,-0L0.084,-0L0.084,-0.653C0.093,-0.652 0.103,-0.652 0.114,-0.651L0.15,-0.65C0.175,-0.65 0.201,-0.649 0.228,-0.649C0.308,-0.649 0.384,-0.651 0.457,-0.653C0.453,-0.625 0.452,-0.586 0.452,-0.539C0.452,-0.533 0.452,-0.529 0.453,-0.527L0.452,-0.525C0.434,-0.53 0.41,-0.533 0.379,-0.533L0.218,-0.533L0.218,-0.398L0.36,-0.398C0.396,-0.398 0.418,-0.399 0.425,-0.401L0.426,-0.281Z" style="fill-rule:nonzero;"/>
        </g>
        <g transform="matrix(107.522,0,0,107.522,1467.52,491.355)">
            <path d="M0.035,-0.252C0.035,-0.288 0.041,-0.323 0.053,-0.355C0.065,-0.388 0.083,-0.417 0.105,-0.441C0.155,-0.494 0.22,-0.52 0.299,-0.52C0.378,-0.52 0.441,-0.495 0.488,-0.445C0.532,-0.398 0.555,-0.336 0.555,-0.26C0.555,-0.184 0.532,-0.122 0.486,-0.072C0.437,-0.019 0.373,0.007 0.293,0.007C0.21,0.007 0.146,-0.019 0.099,-0.07C0.056,-0.118 0.035,-0.178 0.035,-0.252ZM0.153,-0.255C0.153,-0.235 0.157,-0.215 0.164,-0.196C0.17,-0.177 0.18,-0.16 0.193,-0.146C0.22,-0.117 0.255,-0.102 0.299,-0.102C0.34,-0.102 0.372,-0.117 0.396,-0.146C0.418,-0.174 0.43,-0.21 0.43,-0.255C0.43,-0.3 0.418,-0.337 0.395,-0.365C0.369,-0.395 0.335,-0.41 0.292,-0.41C0.247,-0.41 0.213,-0.394 0.188,-0.362C0.165,-0.333 0.153,-0.297 0.153,-0.255ZM0.462,-0.698C0.461,-0.682 0.46,-0.661 0.46,-0.636C0.46,-0.611 0.461,-0.592 0.462,-0.581L0.333,-0.581C0.335,-0.601 0.336,-0.621 0.336,-0.641C0.336,-0.661 0.335,-0.68 0.333,-0.698L0.462,-0.698ZM0.252,-0.698C0.251,-0.682 0.25,-0.661 0.25,-0.636C0.25,-0.611 0.251,-0.592 0.252,-0.581L0.123,-0.581C0.125,-0.601 0.126,-0.621 0.126,-0.641C0.126,-0.661 0.125,-0.68 0.124,-0.698L0.252,-0.698Z" style="fill-rule:nonzero;"/>
        </g>
        <g transform="matrix(107.522,0,0,107.522,1530.37,491.355)">
            <path d="M0.187,-0.055C0.187,-0.027 0.188,-0.008 0.189,-0L0.067,-0L0.067,-0.51L0.187,-0.51L0.187,-0.473C0.215,-0.504 0.244,-0.52 0.274,-0.52C0.305,-0.52 0.329,-0.516 0.346,-0.509L0.337,-0.377L0.335,-0.376C0.324,-0.396 0.3,-0.406 0.265,-0.406C0.251,-0.406 0.237,-0.402 0.223,-0.392C0.209,-0.383 0.197,-0.371 0.187,-0.355L0.187,-0.055Z" style="fill-rule:nonzero;"/>
        </g>
        <g transform="matrix(107.522,0,0,107.522,1566.28,491.355)">
            <path d="M0.422,-0.027C0.381,-0.004 0.339,0.007 0.298,0.007C0.257,0.007 0.22,0.001 0.189,-0.012C0.159,-0.025 0.132,-0.043 0.11,-0.066C0.065,-0.113 0.043,-0.174 0.043,-0.249C0.043,-0.326 0.069,-0.39 0.121,-0.442C0.174,-0.494 0.241,-0.52 0.322,-0.52C0.347,-0.52 0.372,-0.517 0.396,-0.51L0.396,-0.728L0.516,-0.728L0.516,-0.206C0.516,-0.162 0.518,-0.134 0.522,-0.121C0.526,-0.107 0.53,-0.097 0.535,-0.091C0.54,-0.085 0.547,-0.079 0.555,-0.074L0.463,0.007C0.446,-0.002 0.432,-0.013 0.422,-0.027ZM0.321,-0.105C0.348,-0.105 0.373,-0.11 0.396,-0.121L0.396,-0.391C0.373,-0.401 0.348,-0.405 0.322,-0.405C0.295,-0.405 0.272,-0.402 0.253,-0.395C0.234,-0.387 0.218,-0.377 0.204,-0.365C0.175,-0.338 0.161,-0.303 0.161,-0.261C0.161,-0.214 0.174,-0.177 0.2,-0.149C0.228,-0.12 0.268,-0.105 0.321,-0.105Z" style="fill-rule:nonzero;"/>
        </g>
        <g transform="matrix(107.522,0,0,107.522,1629.12,491.355)">
            <path d="M0.047,-0.251C0.047,-0.289 0.054,-0.324 0.067,-0.357C0.08,-0.389 0.098,-0.418 0.122,-0.442C0.173,-0.494 0.239,-0.52 0.321,-0.52C0.391,-0.52 0.446,-0.497 0.488,-0.451C0.53,-0.407 0.55,-0.351 0.55,-0.284C0.55,-0.258 0.548,-0.241 0.544,-0.231C0.512,-0.222 0.446,-0.218 0.346,-0.218L0.174,-0.218C0.182,-0.183 0.202,-0.156 0.233,-0.136C0.264,-0.117 0.304,-0.107 0.354,-0.107C0.405,-0.107 0.45,-0.117 0.487,-0.135C0.497,-0.14 0.504,-0.145 0.509,-0.149C0.508,-0.135 0.507,-0.121 0.506,-0.107L0.501,-0.031C0.476,-0.014 0.436,-0.002 0.381,0.004C0.365,0.006 0.349,0.007 0.334,0.007C0.251,0.007 0.183,-0.017 0.129,-0.065C0.075,-0.113 0.047,-0.175 0.047,-0.251ZM0.42,-0.313C0.407,-0.382 0.369,-0.417 0.306,-0.417C0.257,-0.417 0.219,-0.396 0.193,-0.354C0.186,-0.34 0.18,-0.326 0.175,-0.311C0.183,-0.31 0.193,-0.31 0.204,-0.31L0.24,-0.31C0.252,-0.309 0.264,-0.309 0.275,-0.309L0.303,-0.309C0.319,-0.309 0.336,-0.309 0.352,-0.31L0.392,-0.311C0.402,-0.311 0.412,-0.312 0.42,-0.313Z" style="fill-rule:nonzero;"/>
        </g>
        <g transform="matrix(107.522,0,0,107.522,1691.96,491.355)">
            <path d="M0.187,-0.055C0.187,-0.027 0.188,-0.008 0.189,-0L0.067,-0L0.067,-0.51L0.187,-0.51L0.187,-0.473C0.215,-0.504 0.244,-0.52 0.274,-0.52C0.305,-0.52 0.329,-0.516 0.346,-0.509L0.337,-0.377L0.335,-0.376C0.324,-0.396 0.3,-0.406 0.265,-0.406C0.251,-0.406 0.237,-0.402 0.223,-0.392C0.209,-0.383 0.197,-0.371 0.187,-0.355L0.187,-0.055Z" style="fill-rule:nonzero;"/>
        </g>
        <g transform="matrix(107.522,0,0,107.522,1727.87,491.355)">
            <path d="M0.071,-0.487L0.07,-0.51L0.482,-0.51L0.233,-0.098L0.425,-0.098C0.454,-0.098 0.473,-0.102 0.483,-0.11L0.451,0.007C0.437,0.006 0.42,0.006 0.399,0.005L0.339,0.002C0.301,0.001 0.266,-0 0.233,-0C0.159,-0 0.091,0.002 0.027,0.007L0.283,-0.415L0.162,-0.415C0.124,-0.415 0.093,-0.41 0.069,-0.402C0.07,-0.427 0.071,-0.447 0.071,-0.461L0.071,-0.487Z" style="fill-rule:nonzero;"/>
        </g>
        <g transform="matrix(107.522,0,0,107.522,1781.64,491.355)">
            <path d="M0.047,-0.251C0.047,-0.289 0.054,-0.324 0.067,-0.357C0.08,-0.389 0.098,-0.418 0.122,-0.442C0.173,-0.494 0.239,-0.52 0.321,-0.52C0.391,-0.52 0.446,-0.497 0.488,-0.451C0.53,-0.407 0.55,-0.351 0.55,-0.284C0.55,-0.258 0.548,-0.241 0.544,-0.231C0.512,-0.222 0.446,-0.218 0.346,-0.218L0.174,-0.218C0.182,-0.183 0.202,-0.156 0.233,-0.136C0.264,-0.117 0.304,-0.107 0.354,-0.107C0.405,-0.107 0.45,-0.117 0.487,-0.135C0.497,-0.14 0.504,-0.145 0.509,-0.149C0.508,-0.135 0.507,-0.121 0.506,-0.107L0.501,-0.031C0.476,-0.014 0.436,-0.002 0.381,0.004C0.365,0.006 0.349,0.007 0.334,0.007C0.251,0.007 0.183,-0.017 0.129,-0.065C0.075,-0.113 0.047,-0.175 0.047,-0.251ZM0.42,-0.313C0.407,-0.382 0.369,-0.417 0.306,-0.417C0.257,-0.417 0.219,-0.396 0.193,-0.354C0.186,-0.34 0.18,-0.326 0.175,-0.311C0.183,-0.31 0.193,-0.31 0.204,-0.31L0.24,-0.31C0.252,-0.309 0.264,-0.309 0.275,-0.309L0.303,-0.309C0.319,-0.309 0.336,-0.309 0.352,-0.31L0.392,-0.311C0.402,-0.311 0.412,-0.312 0.42,-0.313Z" style="fill-rule:nonzero;"/>
        </g>
        <g transform="matrix(107.522,0,0,107.522,1844.48,491.355)">
            <path d="M0.2,-0.063C0.2,-0.034 0.201,-0.013 0.204,-0L0.082,-0L0.082,-0.51L0.2,-0.51L0.2,-0.467C0.243,-0.502 0.289,-0.52 0.338,-0.52C0.391,-0.52 0.434,-0.502 0.466,-0.466C0.498,-0.429 0.514,-0.382 0.514,-0.322L0.514,-0.128C0.514,-0.073 0.514,-0.04 0.516,-0.029C0.518,-0.018 0.52,-0.011 0.523,-0.007C0.525,-0.004 0.528,-0.001 0.53,0.001L0.529,0.003C0.502,0.001 0.483,-0 0.471,-0L0.437,-0C0.427,-0 0.413,0 0.395,0.001L0.395,-0.265C0.395,-0.36 0.366,-0.408 0.308,-0.408C0.265,-0.408 0.229,-0.386 0.2,-0.341L0.2,-0.063Z" style="fill-rule:nonzero;"/>
        </g>
        <g transform="matrix(107.522,0,0,107.522,1907.32,491.355)">
            <path d="M0.298,-0.107C0.34,-0.107 0.369,-0.118 0.385,-0.14L0.389,-0.14L0.39,-0.027C0.374,-0.011 0.345,-0 0.301,0.005C0.29,0.007 0.275,0.007 0.258,0.007C0.24,0.007 0.221,0.004 0.201,-0.002C0.181,-0.009 0.163,-0.02 0.149,-0.034C0.119,-0.064 0.104,-0.112 0.104,-0.176L0.104,-0.398L0.031,-0.398C0.03,-0.407 0.03,-0.417 0.03,-0.427L0.03,-0.502C0.03,-0.507 0.03,-0.51 0.031,-0.51L0.104,-0.51L0.104,-0.649L0.224,-0.649L0.224,-0.51L0.358,-0.51L0.358,-0.398L0.224,-0.398L0.224,-0.199C0.224,-0.148 0.238,-0.118 0.267,-0.111C0.276,-0.109 0.286,-0.107 0.298,-0.107Z" style="fill-rule:nonzero;"/>
        </g>
        <g transform="matrix(107.522,0,0,107.522,1952.21,491.355)">
            <path d="M0.187,-0.055C0.187,-0.027 0.188,-0.008 0.189,-0L0.067,-0L0.067,-0.51L0.187,-0.51L0.187,-0.473C0.215,-0.504 0.244,-0.52 0.274,-0.52C0.305,-0.52 0.329,-0.516 0.346,-0.509L0.337,-0.377L0.335,-0.376C0.324,-0.396 0.3,-0.406 0.265,-0.406C0.251,-0.406 0.237,-0.402 0.223,-0.392C0.209,-0.383 0.197,-0.371 0.187,-0.355L0.187,-0.055Z" style="fill-rule:nonzero;"/>
        </g>
        <g transform="matrix(107.522,0,0,107.522,1988.12,491.355)">
            <path d="M0.377,-0.044C0.336,-0.01 0.29,0.007 0.241,0.007C0.188,0.007 0.147,-0.01 0.117,-0.046C0.089,-0.08 0.074,-0.128 0.074,-0.188L0.074,-0.382C0.074,-0.447 0.073,-0.484 0.07,-0.494C0.067,-0.503 0.065,-0.51 0.064,-0.512C0.079,-0.511 0.095,-0.51 0.111,-0.51L0.151,-0.51C0.162,-0.51 0.176,-0.511 0.194,-0.512L0.194,-0.229C0.194,-0.162 0.212,-0.123 0.249,-0.112C0.26,-0.109 0.272,-0.107 0.285,-0.107C0.323,-0.107 0.354,-0.121 0.377,-0.149L0.377,-0.51L0.499,-0.51L0.499,-0.063C0.499,-0.034 0.5,-0.013 0.502,-0L0.377,-0L0.377,-0.044Z" style="fill-rule:nonzero;"/>
        </g>
        <g transform="matrix(107.522,0,0,107.522,2050.76,491.355)">
            <path d="M0.204,-0.141C0.204,-0.068 0.205,-0.021 0.208,-0L0.08,-0L0.08,-0.51L0.204,-0.51L0.204,-0.466C0.248,-0.502 0.294,-0.52 0.341,-0.52C0.396,-0.52 0.436,-0.496 0.461,-0.448C0.486,-0.474 0.507,-0.491 0.524,-0.499C0.552,-0.513 0.579,-0.52 0.607,-0.52C0.635,-0.52 0.659,-0.515 0.678,-0.506C0.698,-0.496 0.714,-0.483 0.727,-0.466C0.752,-0.431 0.765,-0.383 0.765,-0.322L0.765,-0.128C0.765,-0.073 0.766,-0.04 0.768,-0.029C0.769,-0.018 0.771,-0.011 0.774,-0.007C0.777,-0.004 0.779,-0.001 0.781,0.001L0.78,0.003C0.754,0.001 0.735,-0 0.723,-0L0.686,-0C0.674,-0 0.659,0 0.642,0.001L0.642,-0.263C0.642,-0.339 0.63,-0.384 0.606,-0.398C0.599,-0.403 0.589,-0.405 0.579,-0.405C0.568,-0.405 0.559,-0.404 0.551,-0.402C0.543,-0.399 0.535,-0.395 0.528,-0.39C0.516,-0.381 0.502,-0.364 0.487,-0.338C0.487,-0.335 0.487,-0.333 0.487,-0.33L0.487,-0.201C0.487,-0.118 0.489,-0.051 0.493,-0L0.423,-0C0.403,-0 0.385,0 0.367,0.001L0.367,-0.263C0.367,-0.316 0.364,-0.351 0.358,-0.367C0.351,-0.383 0.345,-0.393 0.337,-0.398C0.33,-0.403 0.321,-0.405 0.311,-0.405C0.268,-0.405 0.232,-0.385 0.204,-0.343L0.204,-0.141Z" style="fill-rule:nonzero;"/>
        </g>
    </g>
    <g transform="matrix(1.24116,0,0,1.24116,171.487,200.251)">
        <g transform="matrix(0.866087,0,0,0.866087,-139.401,-161.342)">
            <path d="M1.425,255.605C1.425,255.605 25.955,248.454 69.343,248.454C144.195,248.454 206.124,255.211 206.124,273.716C206.124,288.89 193.121,318.825 172.492,318.825C126.029,318.825 23.387,280.725 1.425,255.605Z" style="fill:rgb(245,223,77);"/>
        </g>
        <g transform="matrix(0.866087,0,0,0.866087,-139.401,-161.342)">
            <path d="M142.548,43.749C142.548,65.386 163.094,112.991 183.607,150.639C198.371,177.734 214.005,201.16 224.115,201.16C245.837,201.16 264.491,179.943 264.491,165.085C264.491,153.653 254.337,135.024 237.401,119.643C220.464,104.262 196.745,92.129 180.331,79.076C152.626,57.046 142.548,43.749 142.548,43.749Z" style="fill:rgb(245,223,77);"/>
        </g>
        <g transform="matrix(0.866087,0,0,0.866087,-139.401,-161.342)">
            <path d="M435.309,0C435.309,0 427.561,33.192 427.561,50.781C427.561,68.37 430.739,86.239 430.739,97.534C430.739,110.827 412.469,172.77 385.641,172.77C381.583,172.77 375.756,171.029 370.469,170.922C365.73,170.825 357.937,171.78 354.84,171.78C348.287,171.78 329.496,156.801 329.496,149.077C329.496,127.878 403.115,0 435.309,0Z" style="fill:rgb(245,223,77);"/>
        </g>
        <g transform="matrix(0.866087,0,0,0.866087,-139.401,-161.342)">
            <path d="M429.195,210.609C429.195,194.052 543.746,153.506 609.274,153.506C609.274,153.506 569.615,176.571 555.137,201.16C539.239,228.159 482.909,250.838 478.282,250.838C456.314,250.838 429.195,225.222 429.195,210.609Z" style="fill:rgb(245,223,77);"/>
        </g>
        <g transform="matrix(0.866087,0,0,0.866087,-139.401,-161.342)">
            <path d="M497.096,332.058C478.915,332.058 462.5,313.122 462.5,296.611C462.5,285.101 483.812,279.921 500.695,279.921C533.071,279.921 632.32,296.772 632.32,302.82C632.32,302.82 601.313,308.242 570.585,315.387C538.472,322.854 506.386,332.058 497.096,332.058Z" style="fill:rgb(245,223,77);"/>
        </g>
        <g transform="matrix(0.866087,0,0,0.866087,-139.401,-161.342)">
            <path d="M282.629,191.941C292.478,191.941 292.617,195.822 297.966,195.822C306.228,195.822 327.036,188.404 335.298,188.413C340.144,188.418 344.071,194.654 347.774,195.877C350.856,196.895 353.593,196.525 358.596,196.525C378.233,196.525 423.789,250.833 423.789,282.831C423.789,302.859 400.127,326.04 385.141,326.04C376.16,326.04 364.354,323.051 355.372,323.051C342.892,323.051 322.959,330.819 306.329,330.819C281.796,330.819 227.81,309.421 227.81,249.598C227.81,209.386 267.866,191.941 282.629,191.941ZM314.7,215.402C314.7,215.402 360.595,224.629 360.595,244.253C360.595,263.878 327.38,276.772 313.542,276.772C302.392,276.772 284.452,264.35 284.827,257.073C285.363,246.664 314.7,215.402 314.7,215.402Z" style="fill:rgb(245,223,77);"/>
        </g>
    </g>
</svg>
