<?xml version="1.0" encoding="UTF-8" standalone="no"?>
<svg
   xmlns:dc="http://purl.org/dc/elements/1.1/"
   xmlns:cc="http://creativecommons.org/ns#"
   xmlns:rdf="http://www.w3.org/1999/02/22-rdf-syntax-ns#"
   xmlns:svg="http://www.w3.org/2000/svg"
   xmlns="http://www.w3.org/2000/svg"
   xmlns:sodipodi="http://sodipodi.sourceforge.net/DTD/sodipodi-0.dtd"
   xmlns:inkscape="http://www.inkscape.org/namespaces/inkscape"
   width="769.81366"
   height="405.17697"
   viewBox="0 0 769.81366 405.17697"
   version="1.1"
   xml:space="preserve"
   style="clip-rule:evenodd;fill-rule:evenodd;stroke-linejoin:round;stroke-miterlimit:2"
   id="svg188"
   sodipodi:docname="ess_logo_raw.svg"
   inkscape:version="0.92.5 (2060ec1f9f, 2020-04-08)"><metadata
   id="metadata194"><rdf:RDF><cc:Work
       rdf:about=""><dc:format>image/svg+xml</dc:format><dc:type
         rdf:resource="http://purl.org/dc/dcmitype/StillImage" /><dc:title></dc:title></cc:Work></rdf:RDF></metadata><defs
   id="defs192" /><sodipodi:namedview
   pagecolor="#ffffff"
   bordercolor="#666666"
   borderopacity="1"
   objecttolerance="10"
   gridtolerance="10"
   guidetolerance="10"
   inkscape:pageopacity="0"
   inkscape:pageshadow="2"
   inkscape:window-width="3840"
   inkscape:window-height="2062"
   id="namedview190"
   showgrid="false"
   units="px"
   fit-margin-top="0"
   fit-margin-left="0"
   fit-margin-right="0"
   fit-margin-bottom="0"
   inkscape:zoom="0.78666665"
   inkscape:cx="-362.54371"
   inkscape:cy="321.76528"
   inkscape:window-x="0"
   inkscape:window-y="0"
   inkscape:window-maximized="1"
   inkscape:current-layer="svg188" />
    
    
    
    
    
    
    <g
   id="g1010"
   transform="translate(-45.668888,-0.00406462)"><g
     id="g4"
     transform="matrix(-0.133383,1.50758,1.50758,0.133383,-768.84691,-2159.1722)">
        <path
   inkscape:connector-curvature="0"
   id="path2"
   style="fill:#c00000"
   d="m 1578.93,679.976 c 0,0 -7.48,19.195 -10.57,54.039 -5.31,60.115 -4.29,110.321 10.57,111.636 12.19,1.078 37.15,-7.234 38.62,-23.8 3.3,-37.314 -20,-122.449 -38.62,-141.875 z" />
    </g><g
     id="g8"
     transform="matrix(1.51347,0,0,1.51347,-2242.1809,-1203.7822)">
        <path
   inkscape:connector-curvature="0"
   id="path6"
   style="fill:#c00000"
   d="m 1625.44,830.658 c 0,17.444 16.56,55.824 33.1,86.176 11.9,21.845 24.51,40.731 32.66,40.731 17.51,0 32.55,-17.105 32.55,-29.084 0,-9.217 -8.19,-24.236 -21.84,-36.636 -13.66,-12.401 -32.78,-22.183 -46.01,-32.706 -22.34,-17.761 -30.46,-28.481 -30.46,-28.481 z" />
    </g><g
     id="g12"
     transform="matrix(1.51347,0,0,1.51347,-2242.1809,-1291.8122)">
        <path
   inkscape:connector-curvature="0"
   id="path10"
   style="fill:#c00000"
   d="m 1861.47,853.546 c 0,0 -6.25,26.76 -6.25,40.94 0,14.181 2.56,28.587 2.56,37.693 0,10.717 -14.73,60.657 -36.36,60.657 -3.27,0 -7.97,-1.404 -12.23,-1.49 -3.82,-0.078 -10.1,0.691 -12.6,0.691 -5.28,0 -20.43,-12.076 -20.43,-18.303 0,-17.091 59.35,-120.188 85.31,-120.188 z" />
    </g><g
     id="g16"
     transform="matrix(0.11324,1.50923,1.50923,-0.11324,-793.37791,-2570.8322)">
        <path
   inkscape:connector-curvature="0"
   id="path14"
   style="fill:#c00000"
   d="m 1930.48,756.947 c -13.31,0.998 -39,95.535 -35.04,148.217 0,0 16.15,-33.272 35.04,-46.402 20.75,-14.403 35.58,-61.064 35.3,-64.783 -1.32,-17.66 -23.55,-37.914 -35.3,-37.032 z" />
    </g><g
     id="g20"
     transform="matrix(1.51347,0,0,1.51347,-2242.1809,-755.8911)">
        <path
   inkscape:connector-curvature="0"
   id="path18"
   style="fill:#c00000"
   d="m 1911.28,767.159 c -14.66,0 -27.89,-15.268 -27.89,-28.579 0,-9.279 17.18,-13.455 30.79,-13.455 26.1,0 106.12,13.585 106.12,18.461 0,0 -25,4.372 -49.77,10.132 -25.89,6.02 -51.76,13.441 -59.25,13.441 z" />
    </g><g
     id="g24"
     transform="matrix(1.51347,0,0,1.51347,-2242.1809,-869.0731)">
        <path
   inkscape:connector-curvature="0"
   id="path22"
   style="fill:#c00000"
   d="m 1738.37,728.977 c 7.94,0 8.06,3.129 12.37,3.129 6.66,0 23.43,-5.981 30.1,-5.974 3.9,0.005 7.07,5.032 10.05,6.017 2.49,0.821 4.7,0.523 8.73,0.523 15.83,0 52.56,43.785 52.56,69.581 0,16.147 -19.08,34.836 -31.16,34.836 -7.24,0 -16.76,-2.409 -24,-2.409 -10.06,0 -26.13,6.262 -39.54,6.262 -19.78,0 -63.3,-17.251 -63.3,-65.481 0,-32.42 32.29,-46.484 44.19,-46.484 z m 25.86,18.914 c 0,0 37,7.439 37,23.261 0,15.821 -26.78,26.216 -37.93,26.216 -8.99,0 -23.46,-10.014 -23.15,-15.88 0.43,-8.393 24.08,-33.597 24.08,-33.597 z" />
    </g></g>
</svg>