<?xml version="1.0" encoding="UTF-8" standalone="no"?>
<svg
   xmlns:dc="http://purl.org/dc/elements/1.1/"
   xmlns:cc="http://creativecommons.org/ns#"
   xmlns:rdf="http://www.w3.org/1999/02/22-rdf-syntax-ns#"
   xmlns:svg="http://www.w3.org/2000/svg"
   xmlns="http://www.w3.org/2000/svg"
   xmlns:sodipodi="http://sodipodi.sourceforge.net/DTD/sodipodi-0.dtd"
   xmlns:inkscape="http://www.inkscape.org/namespaces/inkscape"
   width="1200"
   height="600"
   viewBox="0 0 1200 600"
   version="1.1"
   xml:space="preserve"
   style="clip-rule:evenodd;fill-rule:evenodd;stroke-linejoin:round;stroke-miterlimit:2"
   id="svg188"
   sodipodi:docname="ess_logo.svg"
   inkscape:version="0.92.5 (2060ec1f9f, 2020-04-08)"><metadata
   id="metadata194"><rdf:RDF><cc:Work
       rdf:about=""><dc:format>image/svg+xml</dc:format><dc:type
         rdf:resource="http://purl.org/dc/dcmitype/StillImage" /><dc:title /></cc:Work></rdf:RDF></metadata><defs
   id="defs192" /><sodipodi:namedview
   pagecolor="#ffffff"
   bordercolor="#666666"
   borderopacity="1"
   objecttolerance="10"
   gridtolerance="10"
   guidetolerance="10"
   inkscape:pageopacity="0"
   inkscape:pageshadow="2"
   inkscape:window-width="3840"
   inkscape:window-height="2062"
   id="namedview190"
   showgrid="false"
   units="px"
   fit-margin-top="0"
   fit-margin-left="0"
   fit-margin-right="0"
   fit-margin-bottom="0"
   inkscape:zoom="1.5733333"
   inkscape:cx="499.58793"
   inkscape:cy="266.80822"
   inkscape:window-x="0"
   inkscape:window-y="0"
   inkscape:window-maximized="1"
   inkscape:current-layer="svg188" />
    
    
    
    
    
    
    <g
   id="g3895"
   transform="translate(45.668894,-0.00407887)"><g
     id="g4"
     transform="matrix(-0.133383,1.50758,1.50758,0.133383,-814.5158,-2159.1681)">
        <path
   inkscape:connector-curvature="0"
   id="path2"
   style="fill:#c00000"
   d="m 1578.93,679.976 c 0,0 -7.48,19.195 -10.57,54.039 -5.31,60.115 -4.29,110.321 10.57,111.636 12.19,1.078 37.15,-7.234 38.62,-23.8 3.3,-37.314 -20,-122.449 -38.62,-141.875 z" />
    </g><g
     id="g8"
     transform="matrix(1.51347,0,0,1.51347,-2287.8498,-1203.7781)">
        <path
   inkscape:connector-curvature="0"
   id="path6"
   style="fill:#c00000"
   d="m 1625.44,830.658 c 0,17.444 16.56,55.824 33.1,86.176 11.9,21.845 24.51,40.731 32.66,40.731 17.51,0 32.55,-17.105 32.55,-29.084 0,-9.217 -8.19,-24.236 -21.84,-36.636 -13.66,-12.401 -32.78,-22.183 -46.01,-32.706 -22.34,-17.761 -30.46,-28.481 -30.46,-28.481 z" />
    </g><g
     id="g12"
     transform="matrix(1.51347,0,0,1.51347,-2287.8498,-1291.8081)">
        <path
   inkscape:connector-curvature="0"
   id="path10"
   style="fill:#c00000"
   d="m 1861.47,853.546 c 0,0 -6.25,26.76 -6.25,40.94 0,14.181 2.56,28.587 2.56,37.693 0,10.717 -14.73,60.657 -36.36,60.657 -3.27,0 -7.97,-1.404 -12.23,-1.49 -3.82,-0.078 -10.1,0.691 -12.6,0.691 -5.28,0 -20.43,-12.076 -20.43,-18.303 0,-17.091 59.35,-120.188 85.31,-120.188 z" />
    </g><g
     id="g16"
     transform="matrix(0.11324,1.50923,1.50923,-0.11324,-839.0468,-2570.8281)">
        <path
   inkscape:connector-curvature="0"
   id="path14"
   style="fill:#c00000"
   d="m 1930.48,756.947 c -13.31,0.998 -39,95.535 -35.04,148.217 0,0 16.15,-33.272 35.04,-46.402 20.75,-14.403 35.58,-61.064 35.3,-64.783 -1.32,-17.66 -23.55,-37.914 -35.3,-37.032 z" />
    </g><g
     id="g20"
     transform="matrix(1.51347,0,0,1.51347,-2287.8498,-755.88702)">
        <path
   inkscape:connector-curvature="0"
   id="path18"
   style="fill:#c00000"
   d="m 1911.28,767.159 c -14.66,0 -27.89,-15.268 -27.89,-28.579 0,-9.279 17.18,-13.455 30.79,-13.455 26.1,0 106.12,13.585 106.12,18.461 0,0 -25,4.372 -49.77,10.132 -25.89,6.02 -51.76,13.441 -59.25,13.441 z" />
    </g><g
     id="g24"
     transform="matrix(1.51347,0,0,1.51347,-2287.8498,-869.06902)">
        <path
   inkscape:connector-curvature="0"
   id="path22"
   style="fill:#c00000"
   d="m 1738.37,728.977 c 7.94,0 8.06,3.129 12.37,3.129 6.66,0 23.43,-5.981 30.1,-5.974 3.9,0.005 7.07,5.032 10.05,6.017 2.49,0.821 4.7,0.523 8.73,0.523 15.83,0 52.56,43.785 52.56,69.581 0,16.147 -19.08,34.836 -31.16,34.836 -7.24,0 -16.76,-2.409 -24,-2.409 -10.06,0 -26.13,6.262 -39.54,6.262 -19.78,0 -63.3,-17.251 -63.3,-65.481 0,-32.42 32.29,-46.484 44.19,-46.484 z m 25.86,18.914 c 0,0 37,7.439 37,23.261 0,15.821 -26.78,26.216 -37.93,26.216 -8.99,0 -23.46,-10.014 -23.15,-15.88 0.43,-8.393 24.08,-33.597 24.08,-33.597 z" />
    </g><g
     id="g186"
     transform="matrix(1.51347,0,0,1.51347,-2287.8498,-77.423125)">
        <path
   inkscape:connector-curvature="0"
   id="path26"
   style="fill-rule:nonzero"
   d="m 1728.32,387.272 c 1.3,0 2.19,-0.125 2.69,-0.375 l 0.12,0.031 -0.31,7.839 h -23.39 v -41.755 c 0.56,0.042 1.19,0.073 1.88,0.094 l 2.18,0.063 c 1.46,0.041 3.04,0.062 4.75,0.062 4.77,0 9.48,-0.083 14.15,-0.25 -0.23,1.832 -0.35,4.279 -0.35,7.339 0,0.333 0.02,0.583 0.07,0.75 l -0.07,0.093 c -1.08,-0.312 -2.62,-0.468 -4.62,-0.468 h -9.84 v 7.964 h 7.4 c 2.29,0 3.67,-0.063 4.13,-0.188 l 0.09,7.714 c -1,-0.104 -2.29,-0.156 -3.87,-0.156 h -7.75 v 11.243 z" />
        <path
   inkscape:connector-curvature="0"
   id="path28"
   style="fill-rule:nonzero"
   d="m 1761.08,393.018 c -2.64,1.478 -5.28,2.217 -7.93,2.217 -2.64,0 -4.95,-0.416 -6.93,-1.249 -1.98,-0.833 -3.66,-1.978 -5.06,-3.435 -2.87,-2.998 -4.31,-6.891 -4.31,-11.68 0,-4.955 1.67,-9.078 5,-12.367 3.35,-3.331 7.64,-4.997 12.86,-4.997 1.61,0 3.18,0.208 4.72,0.625 v -13.898 h 7.65 v 33.385 c 0,2.769 0.13,4.581 0.39,5.434 0.26,0.854 0.55,1.478 0.88,1.874 0.32,0.396 0.73,0.77 1.23,1.124 l -5.87,5.184 c -1.09,-0.583 -1.96,-1.322 -2.63,-2.217 z m -6.46,-4.965 c 1.75,0 3.35,-0.334 4.81,-1 v -17.301 c -1.46,-0.604 -3.04,-0.906 -4.75,-0.906 -1.7,0 -3.17,0.229 -4.39,0.687 -1.21,0.458 -2.26,1.093 -3.13,1.905 -1.84,1.707 -2.75,3.925 -2.75,6.652 0,2.977 0.83,5.351 2.5,7.121 1.79,1.894 4.36,2.842 7.71,2.842 z" />
        <path
   inkscape:connector-curvature="0"
   id="path30"
   style="fill-rule:nonzero"
   d="m 1775.08,352.825 c 1.66,-2.603 3.4,-4.893 5.21,-6.871 l 6.72,5.278 c -0.9,1.104 -1.73,2.186 -2.5,3.248 0,0 -0.81,1.135 -2.41,3.404 z m 8.21,38.444 c 0,1.791 0.04,2.957 0.12,3.498 h -7.93 v -32.635 h 7.81 z" />
        <path
   inkscape:connector-curvature="0"
   id="path32"
   style="fill-rule:nonzero"
   d="m 1806.59,387.896 c 2.68,0 4.52,-0.697 5.52,-2.092 h 0.25 l 0.1,7.245 c -1.02,1.021 -2.92,1.697 -5.69,2.03 -0.75,0.104 -1.68,0.156 -2.79,0.156 -1.12,0 -2.32,-0.208 -3.62,-0.624 -1.31,-0.417 -2.41,-1.093 -3.33,-2.03 -1.9,-1.936 -2.84,-4.966 -2.84,-9.088 v -14.179 h -4.72 c -0.02,-0.603 -0.03,-1.217 -0.03,-1.842 v -4.81 c 0,-0.353 0.01,-0.53 0.03,-0.53 h 4.72 v -8.901 h 7.65 v 8.901 h 8.59 v 7.182 h -8.59 v 12.742 c 0,3.269 0.91,5.133 2.72,5.591 0.58,0.166 1.26,0.249 2.03,0.249 z" />
        <path
   inkscape:connector-curvature="0"
   id="path34"
   style="fill-rule:nonzero"
   d="m 1827.26,391.269 c 0,1.791 0.04,2.957 0.12,3.498 h -7.77 v -44.659 h 7.65 v 14.46 c 2.69,-2.041 5.46,-3.061 8.31,-3.061 3.5,0 6.31,1.155 8.43,3.467 2.08,2.311 3.12,5.371 3.12,9.181 v 12.43 c 0,3.518 0.05,5.632 0.16,6.339 0.1,0.708 0.24,1.166 0.42,1.375 0.18,0.208 0.33,0.395 0.45,0.562 l -0.06,0.125 c -1.69,-0.146 -2.92,-0.219 -3.69,-0.219 h -2.21 c -0.69,0 -1.59,0.031 -2.72,0.094 v -18.083 c 0,-2.873 -0.63,-4.996 -1.9,-6.37 -0.96,-1.041 -2.26,-1.562 -3.91,-1.562 -2.43,0 -4.57,1.405 -6.4,4.216 z" />
        <path
   inkscape:connector-curvature="0"
   id="path36"
   style="fill-rule:nonzero"
   d="m 1903.12,355.542 -0.59,9.182 -0.22,0.062 c -1.54,-2.311 -4.17,-3.81 -7.87,-4.497 -1.17,-0.229 -2.29,-0.344 -3.36,-0.344 -1.07,0 -1.99,0.094 -2.75,0.282 -0.76,0.187 -1.41,0.458 -1.95,0.812 -1.14,0.749 -1.72,1.728 -1.72,2.935 0,1.582 0.5,2.769 1.5,3.56 1.25,0.958 3.32,1.63 6.22,2.015 2.89,0.385 5.21,0.911 6.96,1.577 1.75,0.666 3.19,1.509 4.31,2.529 2.12,1.916 3.19,4.623 3.19,8.12 0,4.581 -1.73,8.11 -5.19,10.587 -2.96,2.124 -6.68,3.186 -11.18,3.186 -3.62,0 -7.2,-0.687 -10.74,-2.061 -1.17,-0.458 -2.19,-0.989 -3.06,-1.593 l 0.34,-10.431 0.13,-0.094 c 2.58,4.456 6.81,6.684 12.71,6.684 4.18,0 6.95,-1.01 8.3,-3.03 0.46,-0.687 0.69,-1.452 0.69,-2.295 0,-0.843 -0.13,-1.541 -0.41,-2.093 -0.27,-0.551 -0.71,-1.025 -1.34,-1.421 -1.21,-0.791 -3.23,-1.322 -6.09,-1.592 -2.85,-0.271 -5.18,-0.781 -6.99,-1.531 -1.82,-0.749 -3.26,-1.676 -4.34,-2.779 -1.96,-1.999 -2.94,-4.789 -2.94,-8.37 0,-3.706 1.3,-6.704 3.9,-8.994 2.65,-2.332 6.21,-3.498 10.7,-3.498 4.49,0 8.42,1.031 11.79,3.092 z" />
        <path
   inkscape:connector-curvature="0"
   id="path38"
   style="fill-rule:nonzero"
   d="m 1929.01,387.896 c 2.68,0 4.53,-0.697 5.53,-2.092 h 0.25 l 0.09,7.245 c -1.02,1.021 -2.91,1.697 -5.68,2.03 -0.75,0.104 -1.68,0.156 -2.8,0.156 -1.11,0 -2.32,-0.208 -3.62,-0.624 -1.3,-0.417 -2.41,-1.093 -3.33,-2.03 -1.89,-1.936 -2.84,-4.966 -2.84,-9.088 v -14.179 h -4.72 c -0.02,-0.603 -0.03,-1.217 -0.03,-1.842 v -4.81 c 0,-0.353 0.01,-0.53 0.03,-0.53 h 4.72 v -8.901 h 7.65 v 8.901 h 8.59 v 7.182 h -8.59 v 12.742 c 0,3.269 0.91,5.133 2.72,5.591 0.58,0.166 1.26,0.249 2.03,0.249 z" />
        <path
   inkscape:connector-curvature="0"
   id="path40"
   style="fill-rule:nonzero"
   d="m 1939.66,378.715 c 0,-2.436 0.41,-4.695 1.25,-6.777 0.83,-2.082 2.01,-3.904 3.53,-5.465 3.24,-3.311 7.49,-4.966 12.74,-4.966 4.43,0 7.99,1.468 10.68,4.403 2.64,2.832 3.97,6.392 3.97,10.681 0,1.645 -0.13,2.769 -0.38,3.373 -2.08,0.583 -6.32,0.874 -12.71,0.874 h -10.99 c 0.54,2.228 1.8,3.961 3.78,5.2 1.97,1.239 4.55,1.858 7.71,1.858 3.31,0 6.15,-0.593 8.53,-1.78 0.62,-0.312 1.09,-0.604 1.4,-0.874 -0.04,0.874 -0.09,1.77 -0.16,2.686 l -0.34,4.872 c -1.58,1.082 -4.14,1.832 -7.68,2.248 -1.04,0.125 -2.04,0.187 -3,0.187 -5.29,0 -9.66,-1.54 -13.12,-4.622 -3.47,-3.102 -5.21,-7.068 -5.21,-11.898 z m 23.86,-3.935 c -0.86,-4.477 -3.29,-6.715 -7.31,-6.715 -3.16,0 -5.57,1.364 -7.21,4.091 -0.5,0.833 -0.89,1.749 -1.16,2.749 0.5,0.02 1.11,0.041 1.84,0.062 h 2.31 c 0.77,0.021 1.51,0.031 2.22,0.031 h 1.78 c 1.06,0 2.1,-0.01 3.12,-0.031 l 2.56,-0.094 c 0.69,-0.02 1.31,-0.052 1.85,-0.093 z" />
        <path
   inkscape:connector-curvature="0"
   id="path42"
   style="fill-rule:nonzero"
   d="m 1977.6,352.825 c 1.67,-2.603 3.41,-4.893 5.22,-6.871 l 6.71,5.278 c -0.89,1.104 -1.73,2.186 -2.5,3.248 0,0 -0.8,1.135 -2.4,3.404 z m 8.22,38.444 c 0,1.791 0.04,2.957 0.12,3.498 h -7.93 v -32.635 h 7.81 z" />
        <path
   inkscape:connector-curvature="0"
   id="path44"
   style="fill-rule:nonzero"
   d="m 2002.84,390.77 c 0,1.832 0.08,3.164 0.25,3.997 h -7.84 v -32.635 h 7.59 v 2.779 c 2.74,-2.269 5.68,-3.404 8.8,-3.404 3.42,0 6.14,1.161 8.19,3.482 2.04,2.322 3.05,5.377 3.05,9.166 v 12.43 c 0,3.518 0.06,5.632 0.16,6.339 0.11,0.708 0.25,1.166 0.42,1.375 0.18,0.208 0.33,0.395 0.46,0.562 l -0.07,0.125 c -1.68,-0.146 -2.91,-0.219 -3.68,-0.219 h -2.19 c -0.66,0 -1.56,0.031 -2.68,0.094 V 377.84 c 0,-6.1 -1.86,-9.15 -5.56,-9.15 -2.75,0 -5.05,1.416 -6.9,4.247 z" />
        <path
   inkscape:connector-curvature="0"
   id="path46"
   style="fill-rule:nonzero"
   d="m 2079.07,355.542 -0.59,9.182 -0.22,0.062 c -1.54,-2.311 -4.17,-3.81 -7.87,-4.497 -1.17,-0.229 -2.29,-0.344 -3.36,-0.344 -1.07,0 -1.99,0.094 -2.75,0.282 -0.76,0.187 -1.41,0.458 -1.95,0.812 -1.14,0.749 -1.72,1.728 -1.72,2.935 0,1.582 0.5,2.769 1.5,3.56 1.25,0.958 3.32,1.63 6.22,2.015 2.89,0.385 5.21,0.911 6.96,1.577 1.75,0.666 3.19,1.509 4.31,2.529 2.12,1.916 3.19,4.623 3.19,8.12 0,4.581 -1.73,8.11 -5.19,10.587 -2.95,2.124 -6.68,3.186 -11.18,3.186 -3.62,0 -7.2,-0.687 -10.74,-2.061 -1.17,-0.458 -2.19,-0.989 -3.06,-1.593 l 0.34,-10.431 0.13,-0.094 c 2.58,4.456 6.82,6.684 12.71,6.684 4.18,0 6.95,-1.01 8.31,-3.03 0.45,-0.687 0.68,-1.452 0.68,-2.295 0,-0.843 -0.13,-1.541 -0.4,-2.093 -0.27,-0.551 -0.72,-1.025 -1.35,-1.421 -1.2,-0.791 -3.24,-1.322 -6.09,-1.592 -2.85,-0.271 -5.18,-0.781 -6.99,-1.531 -1.81,-0.749 -3.26,-1.676 -4.34,-2.779 -1.96,-1.999 -2.94,-4.789 -2.94,-8.37 0,-3.706 1.3,-6.704 3.91,-8.994 2.64,-2.332 6.2,-3.498 10.69,-3.498 4.49,0 8.42,1.031 11.79,3.092 z" />
        <path
   inkscape:connector-curvature="0"
   id="path48"
   style="fill-rule:nonzero"
   d="m 2115.98,391.738 c -2.33,2.332 -5.98,3.497 -10.96,3.497 -4.83,0 -8.77,-1.467 -11.83,-4.403 -3.11,-2.977 -4.66,-6.933 -4.66,-11.867 0,-5.018 1.53,-9.14 4.59,-12.368 3.25,-3.393 7.59,-5.09 13.03,-5.09 3.85,0 7.07,0.843 9.68,2.53 l -1.25,7.995 -0.22,-0.032 c -1,-1.207 -2.05,-1.998 -3.15,-2.373 -1.8,-0.625 -3.59,-0.937 -5.38,-0.937 -1.79,0 -3.19,0.229 -4.21,0.687 -1.02,0.458 -1.9,1.093 -2.63,1.905 -1.45,1.666 -2.18,3.873 -2.18,6.621 0,4.872 1.68,8.057 5.06,9.556 1.16,0.5 2.4,0.75 3.7,0.75 1.3,0 2.44,-0.115 3.4,-0.344 0.97,-0.229 1.85,-0.541 2.64,-0.937 1.69,-0.833 2.83,-1.801 3.44,-2.904 l 0.22,0.094 z" />
        <path
   inkscape:connector-curvature="0"
   id="path50"
   style="fill-rule:nonzero"
   d="m 2130.97,391.269 c 0,1.791 0.04,2.957 0.13,3.498 h -7.78 v -44.659 h 7.65 v 14.46 c 2.69,-2.041 5.46,-3.061 8.31,-3.061 3.5,0 6.31,1.155 8.43,3.467 2.09,2.311 3.13,5.371 3.13,9.181 v 12.43 c 0,3.518 0.05,5.632 0.15,6.339 0.11,0.708 0.25,1.166 0.42,1.375 0.18,0.208 0.33,0.395 0.46,0.562 l -0.07,0.125 c -1.68,-0.146 -2.91,-0.219 -3.68,-0.219 h -2.22 c -0.68,0 -1.59,0.031 -2.72,0.094 v -18.083 c 0,-2.873 -0.63,-4.996 -1.9,-6.37 -0.96,-1.041 -2.26,-1.562 -3.9,-1.562 -2.44,0 -4.57,1.405 -6.41,4.216 z" />
        <path
   inkscape:connector-curvature="0"
   id="path52"
   style="fill-rule:nonzero"
   d="m 2179.32,391.925 c -2.67,2.207 -5.57,3.31 -8.72,3.31 -3.37,0 -6.01,-1.134 -7.93,-3.404 -1.83,-2.207 -2.75,-5.236 -2.75,-9.088 v -12.398 c 0,-4.164 -0.08,-6.553 -0.26,-7.167 -0.18,-0.614 -0.31,-1.005 -0.39,-1.171 0.96,0.083 1.95,0.125 3,0.125 h 2.59 c 0.69,0 1.59,-0.032 2.71,-0.094 v 18.082 c 0,4.289 1.17,6.777 3.5,7.464 0.71,0.208 1.48,0.312 2.31,0.312 2.46,0 4.44,-0.895 5.94,-2.685 v -23.079 h 7.74 v 28.638 c 0,1.832 0.09,3.164 0.25,3.997 h -7.99 z" />
        <path
   inkscape:connector-curvature="0"
   id="path54"
   style="fill-rule:nonzero"
   d="m 2204.27,391.269 c 0,1.791 0.04,2.957 0.12,3.498 h -7.93 v -46.533 h 7.81 z" />
        <path
   inkscape:connector-curvature="0"
   id="path56"
   style="fill-rule:nonzero"
   d="m 2211.48,378.715 c 0,-2.436 0.42,-4.695 1.25,-6.777 0.84,-2.082 2.01,-3.904 3.53,-5.465 3.25,-3.311 7.5,-4.966 12.74,-4.966 4.44,0 8,1.468 10.68,4.403 2.65,2.832 3.97,6.392 3.97,10.681 0,1.645 -0.12,2.769 -0.37,3.373 -2.09,0.583 -6.32,0.874 -12.71,0.874 h -11 c 0.54,2.228 1.8,3.961 3.78,5.2 1.98,1.239 4.55,1.858 7.72,1.858 3.31,0 6.15,-0.593 8.52,-1.78 0.63,-0.312 1.09,-0.604 1.41,-0.874 -0.05,0.874 -0.1,1.77 -0.16,2.686 l -0.34,4.872 c -1.59,1.082 -4.15,1.832 -7.69,2.248 -1.04,0.125 -2.04,0.187 -2.99,0.187 -5.29,0 -9.66,-1.54 -13.12,-4.622 -3.48,-3.102 -5.22,-7.068 -5.22,-11.898 z m 23.86,-3.935 c -0.85,-4.477 -3.29,-6.715 -7.3,-6.715 -3.17,0 -5.57,1.364 -7.22,4.091 -0.5,0.833 -0.88,1.749 -1.15,2.749 0.5,0.02 1.11,0.041 1.84,0.062 h 2.31 c 0.77,0.021 1.51,0.031 2.22,0.031 h 1.78 c 1.06,0 2.1,-0.01 3.12,-0.031 l 2.56,-0.094 c 0.69,-0.02 1.3,-0.052 1.84,-0.093 z" />
        <g
   id="g60"
   transform="translate(-1.32147)">
            <path
   inkscape:connector-curvature="0"
   id="path58"
   style="fill-rule:nonzero"
   d="m 1720.82,417.553 -0.28,4.479 -0.11,0.031 c -0.75,-1.128 -2.03,-1.859 -3.84,-2.194 -0.57,-0.112 -1.12,-0.168 -1.64,-0.168 -0.52,0 -0.97,0.046 -1.34,0.137 -0.37,0.092 -0.69,0.224 -0.95,0.396 -0.56,0.366 -0.84,0.843 -0.84,1.432 0,0.772 0.24,1.351 0.73,1.737 0.61,0.467 1.62,0.795 3.03,0.983 1.42,0.188 2.55,0.444 3.4,0.769 0.85,0.325 1.56,0.737 2.1,1.234 1.04,0.935 1.56,2.255 1.56,3.961 0,2.235 -0.85,3.956 -2.53,5.165 -1.44,1.036 -3.26,1.554 -5.46,1.554 -1.76,0 -3.51,-0.335 -5.24,-1.006 -0.57,-0.223 -1.06,-0.482 -1.49,-0.777 l 0.17,-5.088 0.06,-0.046 c 1.26,2.174 3.33,3.261 6.2,3.261 2.04,0 3.39,-0.493 4.05,-1.478 0.22,-0.335 0.34,-0.709 0.34,-1.12 0,-0.411 -0.07,-0.752 -0.2,-1.021 -0.13,-0.269 -0.35,-0.5 -0.66,-0.693 -0.58,-0.386 -1.58,-0.645 -2.97,-0.777 -1.39,-0.132 -2.53,-0.381 -3.41,-0.746 -0.88,-0.366 -1.59,-0.818 -2.12,-1.356 -0.95,-0.975 -1.43,-2.336 -1.43,-4.083 0,-1.808 0.64,-3.271 1.91,-4.388 1.28,-1.137 3.02,-1.706 5.21,-1.706 2.19,0 4.11,0.503 5.75,1.508 z" />
        </g>
        <g
   id="g64"
   transform="translate(-1.32147)">
            <path
   inkscape:connector-curvature="0"
   id="path62"
   style="fill-rule:nonzero"
   d="m 1725.23,428.812 c 0,-1.118 0.19,-2.187 0.57,-3.207 0.38,-1.021 0.93,-1.912 1.64,-2.674 1.55,-1.645 3.57,-2.468 6.04,-2.468 2.47,0 4.43,0.777 5.89,2.331 1.39,1.483 2.08,3.407 2.08,5.774 0,2.366 -0.71,4.327 -2.15,5.881 -1.51,1.645 -3.51,2.468 -6.01,2.468 -2.58,0 -4.61,-0.808 -6.07,-2.423 -1.33,-1.472 -1.99,-3.367 -1.99,-5.682 z m 3.7,-0.092 c 0,0.64 0.11,1.26 0.32,1.859 0.21,0.599 0.52,1.112 0.91,1.539 0.85,0.924 1.95,1.386 3.32,1.386 1.27,0 2.27,-0.452 3.01,-1.356 0.71,-0.873 1.06,-2.011 1.06,-3.413 0,-1.421 -0.36,-2.569 -1.1,-3.443 -0.78,-0.934 -1.85,-1.401 -3.21,-1.401 -1.38,0 -2.46,0.497 -3.24,1.493 -0.72,0.914 -1.07,2.026 -1.07,3.336 z" />
        </g>
        <g
   id="g68"
   transform="translate(-1.32147)">
            <path
   inkscape:connector-curvature="0"
   id="path66"
   style="fill-rule:nonzero"
   d="m 1748.63,434.738 c 0,0.894 0.04,1.544 0.12,1.95 h -3.83 v -15.92 h 3.71 v 1.356 c 1.34,-1.108 2.77,-1.661 4.29,-1.661 1.67,0 3,0.566 3.99,1.699 1,1.132 1.5,2.623 1.5,4.471 v 6.064 c 0,1.716 0.02,2.747 0.08,3.092 0.05,0.346 0.11,0.569 0.2,0.671 0.09,0.101 0.16,0.193 0.22,0.274 l -0.03,0.061 c -0.82,-0.071 -1.42,-0.107 -1.8,-0.107 h -1.06 c -0.33,0 -0.76,0.015 -1.31,0.046 v -8.303 c 0,-2.976 -0.91,-4.464 -2.72,-4.464 -1.34,0 -2.46,0.691 -3.36,2.072 z" />
        </g>
        <g
   id="g72"
   transform="translate(-1.32147)">
            <path
   inkscape:connector-curvature="0"
   id="path70"
   style="fill-rule:nonzero"
   d="m 1773.78,435.835 c -1.29,0.721 -2.58,1.082 -3.87,1.082 -1.29,0 -2.42,-0.204 -3.38,-0.61 -0.97,-0.406 -1.79,-0.965 -2.47,-1.676 -1.4,-1.462 -2.1,-3.361 -2.1,-5.697 0,-2.418 0.81,-4.429 2.44,-6.033 1.63,-1.626 3.72,-2.438 6.27,-2.438 0.78,0 1.55,0.101 2.3,0.305 v -6.78 h 3.73 v 16.286 c 0,1.351 0.07,2.235 0.2,2.651 0.12,0.416 0.26,0.721 0.42,0.914 0.16,0.193 0.36,0.376 0.6,0.549 l -2.86,2.529 c -0.53,-0.285 -0.95,-0.645 -1.28,-1.082 z m -3.15,-2.422 c 0.85,0 1.63,-0.163 2.34,-0.488 v -8.44 c -0.71,-0.295 -1.48,-0.442 -2.31,-0.442 -0.84,0 -1.55,0.112 -2.14,0.335 -0.6,0.224 -1.11,0.534 -1.53,0.93 -0.9,0.832 -1.35,1.914 -1.35,3.245 0,1.452 0.41,2.61 1.22,3.473 0.88,0.924 2.13,1.387 3.77,1.387 z" />
        </g>
        <g
   id="g76"
   transform="translate(-1.32147)">
            <path
   inkscape:connector-curvature="0"
   id="path74"
   style="fill-rule:nonzero"
   d="m 1780.33,428.857 c 0,-1.188 0.2,-2.29 0.61,-3.306 0.41,-1.015 0.98,-1.904 1.72,-2.666 1.59,-1.615 3.66,-2.422 6.22,-2.422 2.16,0 3.9,0.716 5.21,2.148 1.29,1.381 1.93,3.118 1.93,5.21 0,0.803 -0.06,1.351 -0.18,1.646 -1.01,0.284 -3.08,0.426 -6.2,0.426 h -5.36 c 0.26,1.087 0.88,1.933 1.84,2.537 0.97,0.604 2.22,0.906 3.76,0.906 1.62,0 3,-0.289 4.16,-0.868 0.31,-0.152 0.54,-0.295 0.69,-0.427 -0.02,0.427 -0.05,0.864 -0.08,1.311 l -0.17,2.376 c -0.77,0.528 -2.02,0.894 -3.74,1.097 -0.51,0.061 -1,0.092 -1.47,0.092 -2.58,0 -4.71,-0.752 -6.39,-2.255 -1.7,-1.513 -2.55,-3.448 -2.55,-5.805 z m 11.64,-1.919 c -0.42,-2.184 -1.6,-3.276 -3.56,-3.276 -1.55,0 -2.72,0.666 -3.52,1.996 -0.25,0.406 -0.44,0.853 -0.57,1.341 0.25,0.01 0.55,0.02 0.9,0.03 h 1.13 c 0.38,0.01 0.74,0.015 1.08,0.015 h 0.87 c 0.52,0 1.03,-0.005 1.52,-0.015 l 1.25,-0.046 c 0.34,-0.01 0.64,-0.025 0.9,-0.045 z" />
        </g>
        <g
   id="g80"
   transform="translate(-1.32147)">
            <path
   inkscape:connector-curvature="0"
   id="path78"
   style="fill-rule:nonzero"
   d="m 1802.92,434.982 c 0,0.873 0.02,1.442 0.07,1.706 h -3.8 v -15.92 h 3.73 v 1.173 c 0.87,-0.985 1.77,-1.478 2.72,-1.478 0.95,0 1.7,0.117 2.25,0.35 l -0.27,4.099 -0.06,0.045 c -0.36,-0.629 -1.1,-0.944 -2.21,-0.944 -0.43,0 -0.86,0.144 -1.31,0.434 -0.44,0.289 -0.81,0.673 -1.12,1.15 z" />
        </g>
        <g
   id="g84"
   transform="translate(-1.32147)">
            <path
   inkscape:connector-curvature="0"
   id="path82"
   style="fill-rule:nonzero"
   d="m 1813.71,436.368 v 4.479 c 0,0.874 0.02,1.442 0.06,1.707 h -3.79 v -21.786 h 3.73 v 0.99 c 1.23,-0.863 2.41,-1.295 3.54,-1.295 1.12,0 2.12,0.157 3,0.472 0.87,0.315 1.64,0.803 2.3,1.463 1.45,1.432 2.18,3.473 2.18,6.124 0,1.757 -0.42,3.326 -1.24,4.708 -0.7,1.168 -1.67,2.102 -2.91,2.803 -1.09,0.62 -2.28,0.929 -3.56,0.929 -1.28,0 -2.39,-0.198 -3.31,-0.594 z m 0,-3.839 c 0.77,0.65 1.77,0.975 3,0.975 2.01,0 3.31,-0.97 3.9,-2.91 0.21,-0.66 0.31,-1.368 0.31,-2.125 0,-0.757 -0.07,-1.361 -0.22,-1.813 -0.14,-0.452 -0.32,-0.843 -0.55,-1.173 -0.23,-0.33 -0.49,-0.604 -0.77,-0.823 -0.29,-0.218 -0.58,-0.393 -0.87,-0.525 -0.52,-0.234 -1.05,-0.351 -1.6,-0.351 -0.55,0 -1.12,0.127 -1.71,0.381 -0.58,0.254 -1.08,0.594 -1.49,1.021 z" />
        </g>
        <g
   id="g88"
   transform="translate(-1.32147)">
            <path
   inkscape:connector-curvature="0"
   id="path86"
   style="fill-rule:nonzero"
   d="m 1838.44,435.744 c -1.44,0.782 -2.75,1.173 -3.92,1.173 -1.17,0 -2.17,-0.11 -3,-0.328 -0.83,-0.218 -1.54,-0.541 -2.12,-0.967 -1.18,-0.864 -1.77,-2.113 -1.77,-3.748 0,-1.463 0.73,-2.681 2.17,-3.657 1.56,-1.056 3.69,-1.584 6.37,-1.584 l 0.61,0.015 c 0.12,0.01 0.26,0.018 0.41,0.023 0.15,0.005 0.29,0.018 0.41,0.038 -0.08,-1.625 -0.78,-2.574 -2.1,-2.849 -0.44,-0.091 -0.9,-0.137 -1.4,-0.137 -0.49,0 -0.97,0.043 -1.45,0.13 -0.47,0.086 -0.93,0.2 -1.37,0.342 -0.99,0.315 -1.69,0.676 -2.12,1.082 l -0.05,-0.03 -0.45,-3.367 c 1.79,-0.945 3.76,-1.417 5.89,-1.417 3.31,0 5.43,1.193 6.35,3.58 0.3,0.762 0.45,1.62 0.45,2.575 v 5.515 c 0,1.178 0.41,1.98 1.25,2.407 l -2.76,2.529 c -0.58,-0.305 -1.05,-0.747 -1.4,-1.325 z m -0.83,-6.292 c -0.27,-0.051 -0.55,-0.077 -0.85,-0.077 h -0.61 c -2.24,0 -3.67,0.498 -4.28,1.493 -0.18,0.295 -0.27,0.605 -0.27,0.93 0,0.325 0.05,0.612 0.17,0.86 0.12,0.249 0.31,0.455 0.59,0.617 0.53,0.305 1.31,0.458 2.35,0.458 1.04,0 2.02,-0.249 2.92,-0.747 -0.01,-0.112 -0.02,-0.229 -0.02,-0.35 z m 2.27,-14.55 c -0.04,0.508 -0.06,1.155 -0.06,1.943 0,0.787 0.02,1.358 0.06,1.714 h -4.03 c 0.08,-0.63 0.12,-1.252 0.12,-1.867 0,-0.614 -0.03,-1.211 -0.09,-1.79 z m -6.55,0 c -0.04,0.508 -0.06,1.155 -0.06,1.943 0,0.787 0.02,1.358 0.06,1.714 h -4.03 c 0.08,-0.63 0.12,-1.252 0.12,-1.867 0,-0.614 -0.03,-1.211 -0.09,-1.79 z" />
        </g>
        <g
   id="g92"
   transform="translate(-1.32147)">
            <path
   inkscape:connector-curvature="0"
   id="path90"
   style="fill-rule:nonzero"
   d="m 1857.02,435.835 c -1.29,0.721 -2.58,1.082 -3.87,1.082 -1.29,0 -2.41,-0.204 -3.38,-0.61 -0.96,-0.406 -1.79,-0.965 -2.47,-1.676 -1.4,-1.462 -2.1,-3.361 -2.1,-5.697 0,-2.418 0.81,-4.429 2.44,-6.033 1.63,-1.626 3.73,-2.438 6.28,-2.438 0.78,0 1.54,0.101 2.3,0.305 v -6.78 h 3.73 v 16.286 c 0,1.351 0.06,2.235 0.19,2.651 0.13,0.416 0.27,0.721 0.43,0.914 0.15,0.193 0.35,0.376 0.6,0.549 l -2.87,2.529 c -0.52,-0.285 -0.95,-0.645 -1.28,-1.082 z m -3.15,-2.422 c 0.85,0 1.64,-0.163 2.35,-0.488 v -8.44 c -0.71,-0.295 -1.49,-0.442 -2.32,-0.442 -0.83,0 -1.55,0.112 -2.14,0.335 -0.59,0.224 -1.11,0.534 -1.53,0.93 -0.89,0.832 -1.34,1.914 -1.34,3.245 0,1.452 0.4,2.61 1.22,3.473 0.87,0.924 2.13,1.387 3.76,1.387 z" />
        </g>
        <g
   id="g96"
   transform="translate(-1.32147)">
            <path
   inkscape:connector-curvature="0"
   id="path94"
   style="fill-rule:nonzero"
   d="m 1874.85,435.744 c -1.44,0.782 -2.75,1.173 -3.92,1.173 -1.16,0 -2.17,-0.11 -3,-0.328 -0.83,-0.218 -1.54,-0.541 -2.12,-0.967 -1.17,-0.864 -1.76,-2.113 -1.76,-3.748 0,-1.463 0.72,-2.681 2.16,-3.657 1.56,-1.056 3.69,-1.584 6.37,-1.584 l 0.61,0.015 c 0.12,0.01 0.26,0.018 0.41,0.023 0.15,0.005 0.29,0.018 0.41,0.038 -0.08,-1.625 -0.78,-2.574 -2.1,-2.849 -0.44,-0.091 -0.9,-0.137 -1.4,-0.137 -0.49,0 -0.97,0.043 -1.44,0.13 -0.48,0.086 -0.94,0.2 -1.38,0.342 -0.99,0.315 -1.69,0.676 -2.12,1.082 l -0.05,-0.03 -0.45,-3.367 c 1.8,-0.945 3.76,-1.417 5.89,-1.417 3.31,0 5.43,1.193 6.36,3.58 0.29,0.762 0.44,1.62 0.44,2.575 v 5.515 c 0,1.178 0.41,1.98 1.25,2.407 l -2.76,2.529 c -0.58,-0.305 -1.05,-0.747 -1.4,-1.325 z m -0.82,-6.292 c -0.28,-0.051 -0.56,-0.077 -0.86,-0.077 h -0.61 c -2.24,0 -3.67,0.498 -4.28,1.493 -0.18,0.295 -0.27,0.605 -0.27,0.93 0,0.325 0.06,0.612 0.17,0.86 0.12,0.249 0.32,0.455 0.59,0.617 0.53,0.305 1.31,0.458 2.35,0.458 1.04,0 2.02,-0.249 2.92,-0.747 -0.01,-0.112 -0.01,-0.229 -0.01,-0.35 z" />
        </g>
        <g
   id="g100"
   transform="translate(-1.32147)">
            <path
   inkscape:connector-curvature="0"
   id="path98"
   style="fill-rule:nonzero"
   d="m 1886.7,432.453 c -0.37,0.497 -0.56,0.891 -0.56,1.181 0,0.289 0.04,0.512 0.13,0.67 0.1,0.157 0.29,0.307 0.6,0.449 0.67,0.315 1.77,0.592 3.3,0.831 1.54,0.238 2.74,0.535 3.61,0.891 0.87,0.355 1.57,0.792 2.11,1.31 1,0.985 1.51,2.382 1.51,4.19 0,1.807 -0.64,3.196 -1.91,4.166 -1.27,0.97 -3.15,1.455 -5.65,1.455 -2.52,0 -4.55,-0.548 -6.09,-1.645 -1.55,-1.097 -2.34,-2.554 -2.38,-4.372 -0.06,-2.113 0.76,-3.642 2.48,-4.586 -0.47,-0.386 -0.78,-0.841 -0.94,-1.364 -0.15,-0.523 -0.23,-1.119 -0.23,-1.79 0,-1.127 0.49,-2.082 1.48,-2.864 -1.15,-1.087 -1.73,-2.438 -1.73,-4.052 0,-1.808 0.66,-3.322 1.95,-4.54 1.38,-1.28 3.15,-1.92 5.34,-1.92 1.15,0 2.22,0.213 3.23,0.64 1.32,-0.559 2.29,-1.049 2.91,-1.47 0.62,-0.422 1.01,-0.729 1.19,-0.922 l 0.09,0.015 c 0.09,0.244 0.2,0.589 0.32,1.036 l 0.27,1.097 c 0.25,0.904 0.39,1.524 0.44,1.859 -0.44,0.487 -1.23,0.833 -2.36,1.036 0.44,0.843 0.66,1.736 0.66,2.681 0,0.945 -0.17,1.8 -0.49,2.567 -0.33,0.767 -0.79,1.44 -1.39,2.019 -1.33,1.249 -3.02,1.874 -5.09,1.874 -1,0 -1.94,-0.148 -2.8,-0.442 z m -0.39,-6.856 c -0.15,0.366 -0.22,0.736 -0.22,1.112 0,0.376 0.08,0.737 0.24,1.082 0.16,0.345 0.39,0.655 0.69,0.929 0.68,0.61 1.57,0.914 2.67,0.914 0.83,0 1.55,-0.279 2.16,-0.838 0.64,-0.609 0.96,-1.343 0.96,-2.201 0,-0.858 -0.29,-1.551 -0.87,-2.08 -0.58,-0.528 -1.37,-0.792 -2.39,-0.792 -1.68,0 -2.76,0.625 -3.24,1.874 z m 3.73,18.769 c 2.5,0 3.75,-0.873 3.75,-2.62 0,-0.833 -0.41,-1.503 -1.22,-2.011 -0.92,-0.579 -2.49,-1.031 -4.71,-1.356 l -0.79,-0.137 c -0.67,0.356 -1.17,0.813 -1.48,1.371 -0.32,0.559 -0.47,1.089 -0.47,1.592 0.01,0.503 0.13,0.937 0.36,1.303 0.24,0.365 0.56,0.685 0.98,0.96 0.92,0.599 2.12,0.898 3.58,0.898 z" />
        </g>
        <g
   id="g104"
   transform="translate(-1.32147)">
            <path
   inkscape:connector-curvature="0"
   id="path102"
   style="fill-rule:nonzero"
   d="m 1899.53,428.812 c 0,-1.118 0.19,-2.187 0.57,-3.207 0.38,-1.021 0.93,-1.912 1.64,-2.674 1.55,-1.645 3.57,-2.468 6.05,-2.468 2.46,0 4.42,0.777 5.88,2.331 1.39,1.483 2.08,3.407 2.08,5.774 0,2.366 -0.71,4.327 -2.14,5.881 -1.52,1.645 -3.52,2.468 -6.02,2.468 -2.58,0 -4.6,-0.808 -6.07,-2.423 -1.33,-1.472 -1.99,-3.367 -1.99,-5.682 z m 3.7,-0.092 c 0,0.64 0.11,1.26 0.32,1.859 0.21,0.599 0.52,1.112 0.92,1.539 0.84,0.924 1.94,1.386 3.32,1.386 1.27,0 2.27,-0.452 3,-1.356 0.71,-0.873 1.06,-2.011 1.06,-3.413 0,-1.421 -0.36,-2.569 -1.09,-3.443 -0.78,-0.934 -1.86,-1.401 -3.22,-1.401 -1.38,0 -2.46,0.497 -3.24,1.493 -0.71,0.914 -1.07,2.026 -1.07,3.336 z" />
        </g>
        <g
   id="g108"
   transform="translate(-1.32147)">
            <path
   inkscape:connector-curvature="0"
   id="path106"
   style="fill-rule:nonzero"
   d="m 1923.11,432.453 c -0.37,0.497 -0.56,0.891 -0.56,1.181 0,0.289 0.04,0.512 0.14,0.67 0.09,0.157 0.29,0.307 0.59,0.449 0.67,0.315 1.77,0.592 3.31,0.831 1.53,0.238 2.73,0.535 3.6,0.891 0.87,0.355 1.57,0.792 2.11,1.31 1,0.985 1.51,2.382 1.51,4.19 0,1.807 -0.64,3.196 -1.91,4.166 -1.27,0.97 -3.15,1.455 -5.65,1.455 -2.52,0 -4.55,-0.548 -6.09,-1.645 -1.55,-1.097 -2.34,-2.554 -2.38,-4.372 -0.06,-2.113 0.77,-3.642 2.48,-4.586 -0.46,-0.386 -0.78,-0.841 -0.93,-1.364 -0.16,-0.523 -0.24,-1.119 -0.24,-1.79 0,-1.127 0.49,-2.082 1.48,-2.864 -1.15,-1.087 -1.72,-2.438 -1.72,-4.052 0,-1.808 0.65,-3.322 1.95,-4.54 1.37,-1.28 3.14,-1.92 5.33,-1.92 1.15,0 2.22,0.213 3.23,0.64 1.32,-0.559 2.29,-1.049 2.91,-1.47 0.62,-0.422 1.01,-0.729 1.19,-0.922 l 0.09,0.015 c 0.09,0.244 0.2,0.589 0.32,1.036 l 0.27,1.097 c 0.25,0.904 0.39,1.524 0.44,1.859 -0.44,0.487 -1.23,0.833 -2.36,1.036 0.44,0.843 0.66,1.736 0.66,2.681 0,0.945 -0.16,1.8 -0.49,2.567 -0.32,0.767 -0.79,1.44 -1.39,2.019 -1.33,1.249 -3.02,1.874 -5.09,1.874 -1,0 -1.93,-0.148 -2.8,-0.442 z m -0.39,-6.856 c -0.15,0.366 -0.22,0.736 -0.22,1.112 0,0.376 0.08,0.737 0.24,1.082 0.16,0.345 0.39,0.655 0.69,0.929 0.68,0.61 1.57,0.914 2.67,0.914 0.83,0 1.55,-0.279 2.16,-0.838 0.64,-0.609 0.96,-1.343 0.96,-2.201 0,-0.858 -0.29,-1.551 -0.87,-2.08 -0.58,-0.528 -1.37,-0.792 -2.39,-0.792 -1.67,0 -2.76,0.625 -3.24,1.874 z m 3.73,18.769 c 2.5,0 3.75,-0.873 3.75,-2.62 0,-0.833 -0.41,-1.503 -1.22,-2.011 -0.92,-0.579 -2.49,-1.031 -4.71,-1.356 l -0.79,-0.137 c -0.67,0.356 -1.16,0.813 -1.48,1.371 -0.32,0.559 -0.47,1.089 -0.46,1.592 0,0.503 0.12,0.937 0.35,1.303 0.24,0.365 0.56,0.685 0.98,0.96 0.92,0.599 2.12,0.898 3.58,0.898 z" />
        </g>
        <g
   id="g112"
   transform="translate(-1.32147)">
            <path
   inkscape:connector-curvature="0"
   id="path110"
   style="fill-rule:nonzero"
   d="m 1936.61,416.228 c 0.81,-1.27 1.66,-2.387 2.54,-3.352 l 3.28,2.575 c -0.44,0.538 -0.84,1.066 -1.22,1.584 0,0 -0.39,0.554 -1.17,1.661 z m 4.01,18.754 c 0,0.873 0.02,1.442 0.06,1.706 h -3.87 v -15.92 h 3.81 z" />
        </g>
        <g
   id="g116"
   transform="translate(-1.32147)">
            <path
   inkscape:connector-curvature="0"
   id="path114"
   style="fill-rule:nonzero"
   d="m 1950.28,436.917 c -2.87,0 -5.03,-0.523 -6.48,-1.57 0.02,-0.304 0.05,-0.65 0.09,-1.036 l 0.14,-1.096 c 0.08,-0.722 0.13,-1.171 0.15,-1.349 0.02,-0.177 0.04,-0.274 0.05,-0.289 0.01,-0.015 0.09,0.066 0.24,0.244 0.15,0.177 0.44,0.393 0.87,0.647 0.43,0.254 0.92,0.477 1.48,0.67 1.21,0.417 2.47,0.625 3.78,0.625 1.75,0 2.63,-0.584 2.63,-1.752 0,-0.376 -0.17,-0.655 -0.5,-0.838 -0.6,-0.305 -1.48,-0.536 -2.64,-0.693 -1.17,-0.158 -2.12,-0.389 -2.86,-0.693 -0.74,-0.305 -1.35,-0.671 -1.81,-1.097 -0.87,-0.803 -1.3,-1.854 -1.3,-3.154 0,-1.584 0.61,-2.828 1.83,-3.732 1.21,-0.894 2.88,-1.341 5.01,-1.341 2.11,0 3.92,0.599 5.41,1.798 -0.07,0.264 -0.15,0.518 -0.23,0.761 -0.23,0.671 -0.4,1.153 -0.52,1.448 l -0.35,0.899 c -0.02,0.081 -0.03,0.121 -0.04,0.121 -0.02,0 -0.1,-0.106 -0.25,-0.319 -0.64,-0.742 -1.63,-1.229 -2.98,-1.463 -0.42,-0.081 -0.85,-0.122 -1.28,-0.122 -1.85,0 -2.78,0.559 -2.78,1.676 0,0.386 0.2,0.68 0.58,0.884 0.73,0.385 1.71,0.67 2.97,0.853 1.25,0.183 2.2,0.429 2.85,0.739 0.65,0.309 1.18,0.683 1.57,1.119 0.73,0.793 1.1,1.844 1.1,3.154 0,1.432 -0.57,2.595 -1.72,3.489 -1.2,0.944 -2.87,1.417 -5.01,1.417 z" />
        </g>
        <g
   id="g120"
   transform="translate(-1.32147)">
            <path
   inkscape:connector-curvature="0"
   id="path118"
   style="fill-rule:nonzero"
   d="m 1972.99,435.21 c -1.14,1.138 -2.92,1.707 -5.35,1.707 -2.35,0 -4.28,-0.716 -5.77,-2.148 -1.51,-1.453 -2.27,-3.383 -2.27,-5.79 0,-2.448 0.75,-4.459 2.24,-6.033 1.58,-1.655 3.7,-2.483 6.35,-2.483 1.88,0 3.45,0.411 4.72,1.234 l -0.6,3.9 -0.11,-0.015 c -0.49,-0.589 -1,-0.975 -1.54,-1.158 -0.87,-0.305 -1.75,-0.457 -2.62,-0.457 -0.87,0 -1.56,0.112 -2.06,0.335 -0.49,0.224 -0.92,0.533 -1.28,0.929 -0.71,0.813 -1.06,1.89 -1.06,3.23 0,2.377 0.82,3.931 2.47,4.662 0.56,0.244 1.17,0.366 1.8,0.366 0.64,0 1.19,-0.056 1.66,-0.168 0.47,-0.112 0.9,-0.264 1.29,-0.457 0.82,-0.406 1.38,-0.878 1.67,-1.417 l 0.11,0.046 z" />
        </g>
        <g
   id="g124"
   transform="translate(-1.32147)">
            <path
   inkscape:connector-curvature="0"
   id="path122"
   style="fill-rule:nonzero"
   d="m 1980.3,434.982 c 0,0.873 0.02,1.442 0.07,1.706 h -3.8 v -21.786 h 3.73 v 7.054 c 1.31,-0.995 2.67,-1.493 4.06,-1.493 1.7,0 3.07,0.564 4.11,1.691 1.02,1.127 1.52,2.62 1.52,4.479 v 6.064 c 0,1.716 0.03,2.747 0.08,3.092 0.05,0.346 0.12,0.569 0.21,0.671 0.08,0.101 0.15,0.193 0.22,0.274 l -0.03,0.061 c -0.83,-0.071 -1.43,-0.107 -1.8,-0.107 h -1.08 c -0.34,0 -0.78,0.015 -1.33,0.046 v -8.821 c 0,-1.402 -0.31,-2.438 -0.93,-3.108 -0.47,-0.508 -1.1,-0.762 -1.9,-0.762 -1.19,0 -2.23,0.686 -3.13,2.057 z" />
        </g>
        <g
   id="g128"
   transform="translate(-1.32147)">
            <path
   inkscape:connector-curvature="0"
   id="path126"
   style="fill-rule:nonzero"
   d="m 1993.59,428.857 c 0,-1.188 0.2,-2.29 0.61,-3.306 0.4,-1.015 0.98,-1.904 1.72,-2.666 1.58,-1.615 3.66,-2.422 6.21,-2.422 2.17,0 3.91,0.716 5.22,2.148 1.28,1.381 1.93,3.118 1.93,5.21 0,0.803 -0.06,1.351 -0.18,1.646 -1.02,0.284 -3.08,0.426 -6.2,0.426 h -5.37 c 0.27,1.087 0.88,1.933 1.85,2.537 0.96,0.604 2.22,0.906 3.76,0.906 1.62,0 3,-0.289 4.16,-0.868 0.31,-0.152 0.53,-0.295 0.69,-0.427 -0.02,0.427 -0.05,0.864 -0.08,1.311 l -0.17,2.376 c -0.77,0.528 -2.02,0.894 -3.75,1.097 -0.5,0.061 -0.99,0.092 -1.46,0.092 -2.58,0 -4.71,-0.752 -6.4,-2.255 -1.69,-1.513 -2.54,-3.448 -2.54,-5.805 z m 11.64,-1.919 c -0.42,-2.184 -1.61,-3.276 -3.57,-3.276 -1.54,0 -2.71,0.666 -3.52,1.996 -0.24,0.406 -0.43,0.853 -0.56,1.341 0.24,0.01 0.54,0.02 0.9,0.03 h 1.13 c 0.37,0.01 0.73,0.015 1.08,0.015 h 0.87 c 0.51,0 1.02,-0.005 1.52,-0.015 l 1.25,-0.046 c 0.33,-0.01 0.63,-0.025 0.9,-0.045 z" />
        </g>
        <g
   id="g132"
   transform="translate(-1.32147)">
            <path
   inkscape:connector-curvature="0"
   id="path130"
   style="fill-rule:nonzero"
   d="m 2017.95,436.917 c -2.86,0 -5.02,-0.523 -6.48,-1.57 0.02,-0.304 0.06,-0.65 0.1,-1.036 l 0.13,-1.096 c 0.08,-0.722 0.14,-1.171 0.16,-1.349 0.02,-0.177 0.03,-0.274 0.04,-0.289 0.01,-0.015 0.09,0.066 0.24,0.244 0.16,0.177 0.45,0.393 0.87,0.647 0.43,0.254 0.92,0.477 1.48,0.67 1.21,0.417 2.47,0.625 3.78,0.625 1.76,0 2.63,-0.584 2.63,-1.752 0,-0.376 -0.16,-0.655 -0.5,-0.838 -0.6,-0.305 -1.48,-0.536 -2.64,-0.693 -1.16,-0.158 -2.12,-0.389 -2.86,-0.693 -0.74,-0.305 -1.34,-0.671 -1.81,-1.097 -0.86,-0.803 -1.3,-1.854 -1.3,-3.154 0,-1.584 0.61,-2.828 1.83,-3.732 1.21,-0.894 2.88,-1.341 5.01,-1.341 2.12,0 3.92,0.599 5.41,1.798 -0.07,0.264 -0.14,0.518 -0.23,0.761 -0.23,0.671 -0.4,1.153 -0.51,1.448 l -0.35,0.899 c -0.02,0.081 -0.04,0.121 -0.05,0.121 -0.02,0 -0.1,-0.106 -0.24,-0.319 -0.64,-0.742 -1.64,-1.229 -2.99,-1.463 -0.42,-0.081 -0.84,-0.122 -1.28,-0.122 -1.85,0 -2.77,0.559 -2.77,1.676 0,0.386 0.19,0.68 0.58,0.884 0.72,0.385 1.71,0.67 2.96,0.853 1.25,0.183 2.21,0.429 2.86,0.739 0.65,0.309 1.17,0.683 1.57,1.119 0.73,0.793 1.09,1.844 1.09,3.154 0,1.432 -0.57,2.595 -1.72,3.489 -1.2,0.944 -2.87,1.417 -5.01,1.417 z" />
        </g>
        <g
   id="g136"
   transform="translate(-1.32147)">
            <path
   inkscape:connector-curvature="0"
   id="path134"
   style="fill-rule:nonzero"
   d="m 2049.62,427.928 c -0.48,-0.051 -1.11,-0.076 -1.89,-0.076 h -4.61 v 8.836 h -4.18 v -20.369 c 0.28,0.02 0.59,0.036 0.95,0.046 l 1.12,0.03 c 0.78,0.021 1.58,0.031 2.41,0.031 2.5,0 4.89,-0.041 7.16,-0.122 -0.11,0.894 -0.17,2.087 -0.17,3.58 0,0.162 0.02,0.284 0.04,0.366 l -0.04,0.045 c -0.53,-0.152 -1.29,-0.228 -2.25,-0.228 h -5.04 v 4.189 h 4.45 c 1.11,0 1.78,-0.03 2.01,-0.091 z" />
        </g>
        <g
   id="g140"
   transform="translate(-1.32147)">
            <path
   inkscape:connector-curvature="0"
   id="path138"
   style="fill-rule:nonzero"
   d="m 2052.97,428.812 c 0,-1.118 0.19,-2.187 0.58,-3.207 0.38,-1.021 0.92,-1.912 1.63,-2.674 1.56,-1.645 3.57,-2.468 6.05,-2.468 2.47,0 4.43,0.777 5.88,2.331 1.39,1.483 2.09,3.407 2.09,5.774 0,2.366 -0.72,4.327 -2.15,5.881 -1.51,1.645 -3.52,2.468 -6.02,2.468 -2.58,0 -4.6,-0.808 -6.06,-2.423 -1.33,-1.472 -2,-3.367 -2,-5.682 z m 3.71,-0.092 c 0,0.64 0.1,1.26 0.32,1.859 0.21,0.599 0.51,1.112 0.91,1.539 0.84,0.924 1.95,1.386 3.32,1.386 1.27,0 2.27,-0.452 3,-1.356 0.71,-0.873 1.07,-2.011 1.07,-3.413 0,-1.421 -0.37,-2.569 -1.1,-3.443 -0.78,-0.934 -1.85,-1.401 -3.21,-1.401 -1.38,0 -2.47,0.497 -3.25,1.493 -0.71,0.914 -1.06,2.026 -1.06,3.336 z m 9.62,-13.818 c -0.04,0.508 -0.06,1.155 -0.06,1.943 0,0.787 0.02,1.358 0.06,1.714 h -4.03 c 0.08,-0.63 0.12,-1.252 0.12,-1.867 0,-0.614 -0.03,-1.211 -0.09,-1.79 z m -6.55,0 c -0.04,0.508 -0.06,1.155 -0.06,1.943 0,0.787 0.02,1.358 0.06,1.714 h -4.03 c 0.08,-0.63 0.12,-1.252 0.12,-1.867 0,-0.614 -0.03,-1.211 -0.09,-1.79 z" />
        </g>
        <g
   id="g144"
   transform="translate(-1.32147)">
            <path
   inkscape:connector-curvature="0"
   id="path142"
   style="fill-rule:nonzero"
   d="m 2075.96,434.982 c 0,0.873 0.02,1.442 0.06,1.706 h -3.79 v -15.92 h 3.73 v 1.173 c 0.87,-0.985 1.77,-1.478 2.72,-1.478 0.95,0 1.7,0.117 2.25,0.35 l -0.27,4.099 -0.06,0.045 c -0.36,-0.629 -1.1,-0.944 -2.21,-0.944 -0.43,0 -0.86,0.144 -1.31,0.434 -0.44,0.289 -0.81,0.673 -1.12,1.15 z" />
        </g>
        <g
   id="g148"
   transform="translate(-1.32147)">
            <path
   inkscape:connector-curvature="0"
   id="path146"
   style="fill-rule:nonzero"
   d="m 2093.71,435.835 c -1.29,0.721 -2.58,1.082 -3.87,1.082 -1.29,0 -2.41,-0.204 -3.38,-0.61 -0.97,-0.406 -1.79,-0.965 -2.47,-1.676 -1.4,-1.462 -2.1,-3.361 -2.1,-5.697 0,-2.418 0.81,-4.429 2.44,-6.033 1.63,-1.626 3.72,-2.438 6.27,-2.438 0.79,0 1.55,0.101 2.3,0.305 v -6.78 h 3.74 v 16.286 c 0,1.351 0.06,2.235 0.19,2.651 0.12,0.416 0.27,0.721 0.42,0.914 0.16,0.193 0.36,0.376 0.61,0.549 l -2.87,2.529 c -0.53,-0.285 -0.95,-0.645 -1.28,-1.082 z m -3.15,-2.422 c 0.85,0 1.63,-0.163 2.34,-0.488 v -8.44 c -0.71,-0.295 -1.48,-0.442 -2.31,-0.442 -0.83,0 -1.55,0.112 -2.14,0.335 -0.6,0.224 -1.11,0.534 -1.53,0.93 -0.9,0.832 -1.34,1.914 -1.34,3.245 0,1.452 0.4,2.61 1.22,3.473 0.87,0.924 2.12,1.387 3.76,1.387 z" />
        </g>
        <g
   id="g152"
   transform="translate(-1.32147)">
            <path
   inkscape:connector-curvature="0"
   id="path150"
   style="fill-rule:nonzero"
   d="m 2100.26,428.857 c 0,-1.188 0.21,-2.29 0.61,-3.306 0.41,-1.015 0.98,-1.904 1.72,-2.666 1.59,-1.615 3.66,-2.422 6.22,-2.422 2.16,0 3.9,0.716 5.21,2.148 1.29,1.381 1.93,3.118 1.93,5.21 0,0.803 -0.06,1.351 -0.18,1.646 -1.01,0.284 -3.08,0.426 -6.2,0.426 h -5.36 c 0.26,1.087 0.88,1.933 1.84,2.537 0.97,0.604 2.22,0.906 3.77,0.906 1.61,0 3,-0.289 4.15,-0.868 0.31,-0.152 0.54,-0.295 0.69,-0.427 -0.02,0.427 -0.05,0.864 -0.08,1.311 l -0.16,2.376 c -0.78,0.528 -2.03,0.894 -3.75,1.097 -0.51,0.061 -1,0.092 -1.46,0.092 -2.58,0 -4.72,-0.752 -6.4,-2.255 -1.7,-1.513 -2.55,-3.448 -2.55,-5.805 z m 11.64,-1.919 c -0.41,-2.184 -1.6,-3.276 -3.56,-3.276 -1.55,0 -2.72,0.666 -3.52,1.996 -0.25,0.406 -0.43,0.853 -0.57,1.341 0.25,0.01 0.55,0.02 0.9,0.03 h 1.13 c 0.38,0.01 0.74,0.015 1.08,0.015 h 0.87 c 0.52,0 1.03,-0.005 1.52,-0.015 l 1.25,-0.046 c 0.34,-0.01 0.64,-0.025 0.9,-0.045 z" />
        </g>
        <g
   id="g156"
   transform="translate(-1.32147)">
            <path
   inkscape:connector-curvature="0"
   id="path154"
   style="fill-rule:nonzero"
   d="m 2122.86,434.982 c 0,0.873 0.02,1.442 0.06,1.706 h -3.8 v -15.92 h 3.74 v 1.173 c 0.86,-0.985 1.77,-1.478 2.71,-1.478 0.96,0 1.7,0.117 2.25,0.35 l -0.27,4.099 -0.06,0.045 c -0.36,-0.629 -1.09,-0.944 -2.21,-0.944 -0.43,0 -0.86,0.144 -1.3,0.434 -0.45,0.289 -0.82,0.673 -1.12,1.15 z" />
        </g>
        <g
   id="g160"
   transform="translate(-1.32147)">
            <path
   inkscape:connector-curvature="0"
   id="path158"
   style="fill-rule:nonzero"
   d="m 2129.65,421.484 -0.03,-0.716 h 12.87 l -7.77,12.873 h 5.99 c 0.9,0 1.5,-0.127 1.81,-0.381 l -1,3.657 c -0.45,-0.031 -0.99,-0.056 -1.62,-0.077 l -1.89,-0.091 c -1.16,-0.041 -2.27,-0.061 -3.3,-0.061 -2.3,0 -4.43,0.076 -6.41,0.229 l 7.96,-13.163 h -3.78 c -1.17,0 -2.14,0.132 -2.89,0.396 0.04,-0.792 0.06,-1.407 0.06,-1.844 z" />
        </g>
        <g
   id="g164"
   transform="translate(-1.32147)">
            <path
   inkscape:connector-curvature="0"
   id="path162"
   style="fill-rule:nonzero"
   d="m 2144.52,428.857 c 0,-1.188 0.2,-2.29 0.61,-3.306 0.4,-1.015 0.98,-1.904 1.72,-2.666 1.58,-1.615 3.66,-2.422 6.22,-2.422 2.16,0 3.9,0.716 5.21,2.148 1.29,1.381 1.93,3.118 1.93,5.21 0,0.803 -0.06,1.351 -0.18,1.646 -1.02,0.284 -3.08,0.426 -6.2,0.426 h -5.36 c 0.26,1.087 0.87,1.933 1.84,2.537 0.96,0.604 2.22,0.906 3.76,0.906 1.62,0 3,-0.289 4.16,-0.868 0.31,-0.152 0.53,-0.295 0.69,-0.427 -0.02,0.427 -0.05,0.864 -0.08,1.311 l -0.17,2.376 c -0.77,0.528 -2.02,0.894 -3.74,1.097 -0.51,0.061 -1,0.092 -1.47,0.092 -2.58,0 -4.71,-0.752 -6.4,-2.255 -1.69,-1.513 -2.54,-3.448 -2.54,-5.805 z m 11.64,-1.919 c -0.42,-2.184 -1.61,-3.276 -3.57,-3.276 -1.54,0 -2.71,0.666 -3.52,1.996 -0.24,0.406 -0.43,0.853 -0.56,1.341 0.25,0.01 0.54,0.02 0.9,0.03 h 1.13 c 0.37,0.01 0.73,0.015 1.08,0.015 h 0.87 c 0.52,0 1.02,-0.005 1.52,-0.015 l 1.25,-0.046 c 0.34,-0.01 0.63,-0.025 0.9,-0.045 z" />
        </g>
        <g
   id="g168"
   transform="translate(-1.32147)">
            <path
   inkscape:connector-curvature="0"
   id="path166"
   style="fill-rule:nonzero"
   d="m 2167.52,434.738 c 0,0.894 0.05,1.544 0.13,1.95 h -3.83 v -15.92 h 3.7 v 1.356 c 1.35,-1.108 2.78,-1.661 4.3,-1.661 1.67,0 3,0.566 3.99,1.699 1,1.132 1.49,2.623 1.49,4.471 v 6.064 c 0,1.716 0.03,2.747 0.08,3.092 0.05,0.346 0.12,0.569 0.21,0.671 0.08,0.101 0.16,0.193 0.22,0.274 l -0.03,0.061 c -0.83,-0.071 -1.42,-0.107 -1.8,-0.107 h -1.07 c -0.32,0 -0.76,0.015 -1.31,0.046 v -8.303 c 0,-2.976 -0.9,-4.464 -2.71,-4.464 -1.34,0 -2.46,0.691 -3.37,2.072 z" />
        </g>
        <g
   id="g172"
   transform="translate(-1.32147)">
            <path
   inkscape:connector-curvature="0"
   id="path170"
   style="fill-rule:nonzero"
   d="m 2188.82,433.336 c 1.31,0 2.21,-0.34 2.7,-1.02 h 0.12 l 0.05,3.534 c -0.5,0.498 -1.43,0.828 -2.78,0.99 -0.36,0.051 -0.82,0.077 -1.36,0.077 -0.54,0 -1.13,-0.102 -1.77,-0.305 -0.63,-0.203 -1.17,-0.533 -1.62,-0.99 -0.92,-0.945 -1.39,-2.423 -1.39,-4.434 v -6.916 h -2.3 c -0.01,-0.295 -0.01,-0.595 -0.01,-0.899 v -2.346 c 0,-0.173 0,-0.259 0.01,-0.259 h 2.3 v -4.342 h 3.74 v 4.342 h 4.19 v 3.504 h -4.19 v 6.215 c 0,1.595 0.44,2.504 1.32,2.728 0.29,0.081 0.62,0.121 0.99,0.121 z" />
        </g>
        <g
   id="g176"
   transform="translate(-1.32147)">
            <path
   inkscape:connector-curvature="0"
   id="path174"
   style="fill-rule:nonzero"
   d="m 2198.38,434.982 c 0,0.873 0.01,1.442 0.06,1.706 h -3.8 v -15.92 h 3.74 v 1.173 c 0.86,-0.985 1.76,-1.478 2.71,-1.478 0.95,0 1.7,0.117 2.25,0.35 l -0.27,4.099 -0.06,0.045 c -0.36,-0.629 -1.1,-0.944 -2.21,-0.944 -0.43,0 -0.86,0.144 -1.31,0.434 -0.44,0.289 -0.81,0.673 -1.11,1.15 z" />
        </g>
        <g
   id="g180"
   transform="translate(-1.32147)">
            <path
   inkscape:connector-curvature="0"
   id="path178"
   style="fill-rule:nonzero"
   d="m 2214.74,435.302 c -1.3,1.076 -2.72,1.615 -4.25,1.615 -1.65,0 -2.94,-0.554 -3.87,-1.661 -0.9,-1.077 -1.34,-2.554 -1.34,-4.433 v -6.049 c 0,-2.031 -0.05,-3.196 -0.13,-3.496 -0.09,-0.3 -0.15,-0.49 -0.19,-0.571 0.46,0.04 0.95,0.061 1.46,0.061 h 1.26 c 0.34,0 0.78,-0.016 1.33,-0.046 v 8.821 c 0,2.092 0.57,3.306 1.71,3.641 0.34,0.102 0.72,0.152 1.12,0.152 1.2,0 2.17,-0.436 2.9,-1.31 v -11.258 h 3.77 v 13.97 c 0,0.894 0.05,1.544 0.13,1.95 h -3.9 z" />
        </g>
        <g
   id="g184"
   transform="translate(-1.32147)">
            <path
   inkscape:connector-curvature="0"
   id="path182"
   style="fill-rule:nonzero"
   d="m 2227.49,432.285 c 0,2.285 0.04,3.753 0.12,4.403 h -3.98 v -15.92 h 3.86 v 1.371 c 1.39,-1.117 2.82,-1.676 4.28,-1.676 1.73,0 2.98,0.746 3.76,2.239 0.79,-0.802 1.44,-1.33 1.95,-1.584 0.87,-0.437 1.73,-0.655 2.6,-0.655 0.87,0 1.61,0.147 2.22,0.442 0.61,0.294 1.11,0.711 1.5,1.249 0.81,1.087 1.21,2.58 1.21,4.479 v 6.064 c 0,1.716 0.02,2.747 0.08,3.092 0.05,0.346 0.11,0.569 0.2,0.671 0.09,0.101 0.16,0.193 0.22,0.274 l -0.03,0.061 c -0.81,-0.071 -1.41,-0.107 -1.8,-0.107 h -1.14 c -0.38,0 -0.84,0.015 -1.39,0.046 v -8.242 c 0,-2.377 -0.36,-3.789 -1.09,-4.236 -0.25,-0.142 -0.53,-0.213 -0.86,-0.213 -0.33,0 -0.62,0.038 -0.88,0.114 -0.25,0.077 -0.49,0.201 -0.71,0.374 -0.38,0.274 -0.81,0.812 -1.28,1.615 0.01,0.081 0.01,0.162 0.01,0.243 v 4.022 c 0,2.6 0.06,4.693 0.18,6.277 h -2.2 c -0.6,0 -1.18,0.015 -1.73,0.046 v -8.258 c 0,-1.655 -0.1,-2.732 -0.29,-3.229 -0.2,-0.498 -0.41,-0.823 -0.64,-0.975 -0.22,-0.153 -0.5,-0.229 -0.82,-0.229 -1.34,0 -2.46,0.645 -3.35,1.935 z" />
        </g>
    </g></g>
</svg>